<svg width="928" height="1899" viewBox="0 0 928 1899" fill="none" xmlns="http://www.w3.org/2000/svg">
<path fill-rule="evenodd" clip-rule="evenodd" d="M369.245 1898.64C304.754 1898.64 239.428 1881.23 180.06 1844.57C4.85324 1736.55 -52.3424 1502.45 52.4141 1321.67L710.358 185.658C777.077 70.5053 897.539 0 1027.58 0C1157.62 0 1278.08 70.5053 1344.8 185.658L2002.8 1321.67C2107.5 1502.45 2050.36 1736.55 1875.15 1844.57C1699.95 1952.72 1473.06 1893.7 1368.36 1712.87L1027.58 1124.58L686.801 1712.87C617.631 1832.39 494.998 1898.64 369.245 1898.64Z" fill="#F8F8F8"/>
<path fill-rule="evenodd" clip-rule="evenodd" d="M1561.75 1131.45C1561.75 840.076 1322.35 603.885 1027.02 603.885C731.688 603.885 492.287 840.076 492.287 1131.45C492.287 1422.82 731.688 1659.01 1027.02 1659.01C1322.35 1659.01 1561.75 1422.82 1561.75 1131.45Z" fill="white"/>
<path fill-rule="evenodd" clip-rule="evenodd" d="M1273.47 1135.48C1273.47 972.865 1139.87 841.058 975.051 841.058C810.228 841.058 676.629 972.865 676.629 1135.48C676.629 1298.09 810.228 1429.9 975.051 1429.9C1139.87 1429.9 1273.47 1298.09 1273.47 1135.48Z" fill="#F8F8F8"/>
</svg>
