<svg width="243" height="23" viewBox="0 0 243 23" fill="none" xmlns="http://www.w3.org/2000/svg">
<path d="M13.6 12.7905H3.7V22.0005H0.1V1.00049H3.7V9.61049H13.6V1.00049H17.2V22.0005H13.6V12.7905ZM21.5488 1.00049H25.1488V22.0005H21.5488V1.00049ZM37.5848 11.1405H46.4348V12.7005C46.4348 15.8605 45.6748 18.2505 44.1548 19.8705C42.6348 21.4705 40.5448 22.2705 37.8848 22.2705C36.4648 22.2705 35.1948 22.0605 34.0748 21.6405C32.9548 21.2005 31.9948 20.5605 31.1948 19.7205C30.3948 18.8805 29.7848 17.8405 29.3648 16.6005C28.9448 15.3605 28.7348 13.9305 28.7348 12.3105V10.6905C28.7348 7.47049 29.5348 5.01049 31.1348 3.31049C32.7348 1.59049 34.9848 0.730487 37.8848 0.730487C39.0848 0.730487 40.1648 0.910487 41.1248 1.27049C42.1048 1.61049 42.9448 2.09049 43.6448 2.71049C44.3648 3.31049 44.9448 4.02049 45.3848 4.84049C45.8248 5.66049 46.1248 6.53049 46.2848 7.45049H42.3848C42.0848 6.49049 41.5648 5.69049 40.8248 5.05049C40.1048 4.41049 39.1248 4.09049 37.8848 4.09049C36.1448 4.09049 34.8148 4.62049 33.8948 5.68049C32.9748 6.72049 32.5148 8.39049 32.5148 10.6905V12.3105C32.5148 14.5305 33.0048 16.1905 33.9848 17.2905C34.9848 18.3705 36.2848 18.9105 37.8848 18.9105C39.4048 18.9105 40.5848 18.5505 41.4248 17.8305C42.2848 17.1105 42.8048 15.9005 42.9848 14.2005H37.5848V11.1405ZM63.3754 12.7905H53.4754V22.0005H49.8754V1.00049H53.4754V9.61049H63.3754V1.00049H66.9754V22.0005H63.3754V12.7905ZM86.6242 14.0805H82.2742V22.0005H78.6742V1.00049H85.9042C88.7042 1.00049 90.7442 1.58049 92.0242 2.74049C93.3242 3.90049 93.9742 5.50049 93.9742 7.54049C93.9742 8.94049 93.6542 10.1505 93.0142 11.1705C92.3742 12.1705 91.3942 12.9205 90.0742 13.4205L94.5742 22.0005H90.4942L86.6242 14.0805ZM82.2742 4.18049V10.9005H85.9042C87.4042 10.9005 88.4942 10.6005 89.1742 10.0005C89.8542 9.38049 90.1942 8.56049 90.1942 7.54049C90.1942 6.50049 89.8542 5.68049 89.1742 5.08049C88.4942 4.48049 87.4042 4.18049 85.9042 4.18049H82.2742ZM97.2777 1.00049H110.778V4.18049H100.878V9.61049H108.978V12.7905H100.878V18.8205H110.778V22.0005H97.2777V1.00049ZM114.065 1.00049H117.665V18.8205H126.965V22.0005H114.065V1.00049ZM129.654 1.00049H133.254V22.0005H129.654V1.00049ZM149.11 16.6905H141.16L139.42 22.0005H135.64L143.14 1.00049H147.34L154.84 22.0005H150.88L149.11 16.6905ZM142.21 13.5105H148.06L146.56 8.92049L145.15 4.60049L143.74 8.92049L142.21 13.5105ZM157.102 1.00049H164.152C165.532 1.00049 166.702 1.13049 167.662 1.39049C168.642 1.65049 169.432 2.02049 170.032 2.50049C170.652 2.98049 171.102 3.58049 171.382 4.30049C171.662 5.00049 171.802 5.80049 171.802 6.70049C171.802 7.62049 171.582 8.46049 171.142 9.22049C170.702 9.98049 170.022 10.6005 169.102 11.0805C170.242 11.5405 171.072 12.2005 171.592 13.0605C172.132 13.9005 172.402 14.8605 172.402 15.9405C172.402 16.9405 172.262 17.8205 171.982 18.5805C171.702 19.3205 171.252 19.9505 170.632 20.4705C170.032 20.9705 169.242 21.3505 168.262 21.6105C167.302 21.8705 166.132 22.0005 164.752 22.0005H157.102V1.00049ZM160.702 12.6705V18.9405H164.752C166.192 18.9405 167.192 18.6905 167.752 18.1905C168.332 17.6705 168.622 16.8705 168.622 15.7905C168.622 14.7305 168.332 13.9505 167.752 13.4505C167.192 12.9305 166.192 12.6705 164.752 12.6705H160.702ZM160.702 4.06049V9.73049H164.152C165.572 9.73049 166.572 9.49049 167.152 9.01049C167.732 8.51049 168.022 7.80049 168.022 6.88049C168.022 5.98049 167.732 5.29049 167.152 4.81049C166.572 4.31049 165.572 4.06049 164.152 4.06049H160.702ZM175.855 1.00049H179.455V22.0005H175.855V1.00049ZM183.791 1.00049H187.391V18.8205H196.691V22.0005H183.791V1.00049ZM199.381 1.00049H202.981V22.0005H199.381V1.00049ZM205.667 1.00049H222.167V4.18049H215.717V22.0005H212.117V4.18049H205.667V1.00049ZM231.305 14.9505L223.505 1.00049H227.585L233.165 11.2605L238.505 1.00049H242.405L234.905 14.9505V22.0005H231.305V14.9505Z" fill="url(#paint0_linear)"/>
<defs>
<linearGradient id="paint0_linear" x1="3.61926" y1="-7.99951" x2="14.6228" y2="64.6098" gradientUnits="userSpaceOnUse">
<stop stop-color="#00CDFF"/>
<stop offset="0.40625" stop-color="#7744D2"/>
<stop offset="0.697932" stop-color="#FF3C01"/>
<stop offset="1" stop-color="#FFC700"/>
</linearGradient>
</defs>
</svg>
