<svg width="65" height="18" viewBox="0 0 65 18" fill="none" xmlns="http://www.w3.org/2000/svg">
<path fill-rule="evenodd" clip-rule="evenodd" d="M34.9386 4.71289C35.0949 4.88041 36.5008 8.87129 36.6479 9.36399C36.7943 9.89187 37.0011 10.3983 37.2635 10.8717C37.7506 10.9899 37.7965 10.4676 37.9436 10.0538C38.743 7.81691 39.956 4.55522 40.5625 2.35777C40.9853 1.29354 41.022 1.00777 40.2593 1.00777C39.4966 1.00777 39.5793 1.53989 39.276 2.22967C39.0095 3.54026 37.9803 6.30924 37.6036 7.58041C37.6036 7.74793 37.6036 7.74793 37.4106 7.74793C36.7765 5.85595 36.0414 3.54026 35.3246 1.66799C35.1316 1.30339 34.7916 1.22456 34.5619 2.04244C34.1759 3.34318 33.6429 4.89026 33.2294 6.15158C33.2294 6.15158 32.7332 7.74793 32.6964 7.82676C32.4336 7.37366 32.2412 6.87778 32.1267 6.35851C31.5569 4.85084 31.0607 3.22493 30.5737 1.71726C30.4542 1.43149 30.4542 1.26398 30.1877 1.09646C29.9206 0.990312 29.6318 0.963086 29.3515 1.01763C28.598 1.14573 29.085 1.79609 29.2412 2.27894C30.1601 4.92968 31.1802 8.11253 32.2002 10.6352C32.2241 10.6977 32.2629 10.7523 32.3127 10.7936C32.3626 10.8349 32.4217 10.8614 32.4841 10.8704C32.5466 10.8794 32.6101 10.8706 32.6683 10.8448C32.7266 10.8191 32.7775 10.7774 32.8159 10.7238C32.9629 10.4184 34.8284 4.71289 34.9386 4.71289Z" fill="white"/>
<path fill-rule="evenodd" clip-rule="evenodd" d="M0.167099 1.17588C0.129114 1.34003 0.142017 1.51298 0.203857 1.66856C0.360076 2.35831 -0.099392 10.2215 0.0200697 10.5368C0.392032 10.7161 0.809065 10.7577 1.2055 10.655C1.38928 10.4481 1.31577 10.251 1.31577 9.92586C1.31577 8.53651 1.42604 7.19642 1.42604 5.76765C1.47199 5.23556 1.50875 4.87097 1.50875 4.5458C1.50875 4.22064 1.50875 4.26005 1.58226 4.18122C1.65578 4.10239 2.85958 6.34901 2.97904 6.59535C3.20878 7.07818 3.65906 7.81719 3.9623 8.3887C4.42177 9.28538 4.65151 8.67446 4.76178 8.46753C5.02827 8.10295 7.08669 4.23049 7.23372 4.15166C7.37156 4.30932 7.37156 8.18178 7.37156 8.46753C7.37156 10.5861 7.14182 10.793 8.39157 10.7043C8.77753 10.7043 8.81429 10.3791 8.77753 10.0145C8.77753 9.32479 8.77753 8.54636 8.77753 7.85661C8.67645 6.10267 8.60293 4.10239 8.60293 2.35831C8.60293 2.15138 8.67645 1.37295 8.67645 1.25471C8.56395 1.11877 8.41155 1.02808 8.24446 0.997618C8.07736 0.967159 7.90558 0.998761 7.75751 1.0872C7.49102 1.25471 7.4175 1.61929 7.22453 1.86563C6.45262 3.33381 5.41422 4.99907 4.68826 6.38842C4.42177 6.8811 4.42177 6.71359 4.19204 6.38842C3.69581 5.60999 3.05256 4.2699 2.60228 3.49147L1.68334 1.86563C1.55561 1.58309 1.39168 1.32108 1.19631 1.0872C0.939005 0.890126 0.433591 1.04778 0.167099 1.17588Z" fill="white"/>
<path fill-rule="evenodd" clip-rule="evenodd" d="M48.658 5.73797C48.9832 5.45342 49.369 5.25953 49.7811 5.17358C50.1931 5.08762 50.6186 5.11227 51.0196 5.24531C52.2326 5.8168 52.3888 7.73816 51.8559 8.67421C51.6289 9.03901 51.3019 9.31929 50.92 9.47636C50.5381 9.63343 50.1202 9.65956 49.7239 9.55114C49.34 9.4699 48.9766 9.30196 48.658 9.05849V5.73797ZM48.658 4.34868C48.6006 3.27556 48.6006 2.19981 48.658 1.12669C48.658 0.683302 48.5109 0.604477 48.125 0.762127C47.206 1.17596 47.206 1.00846 47.3347 1.90509C47.4082 2.35834 47.3347 7.61007 47.3347 8.34906C47.3347 9.80733 47.1417 10.1423 49.1174 10.7532C49.68 10.8797 50.2606 10.883 50.8244 10.7628C51.3881 10.6425 51.9234 10.4013 52.398 10.0537C54.337 8.34906 53.804 3.54072 50.2661 3.90528C49.9577 3.92318 49.6507 3.96268 49.3472 4.02352C49.2277 4.06294 48.7774 4.34868 48.7223 4.34868H48.658Z" fill="white"/>
<path fill-rule="evenodd" clip-rule="evenodd" d="M21.8611 10.6255C22.0048 10.1116 22.0455 9.57099 21.9805 9.03906C21.9429 8.48141 21.9429 7.92158 21.9805 7.36394C22.0908 7.36394 22.2103 7.57086 22.44 7.8172C22.6697 8.06354 24.5628 10.1821 24.866 10.4186C24.9718 10.5242 25.0993 10.6015 25.2383 10.6443C25.3772 10.6871 25.5235 10.6942 25.6655 10.6649C25.932 10.6649 26.3547 10.6649 26.5017 10.4678C26.5017 10.1821 25.9687 9.72881 25.739 9.48247C25.5093 9.23613 25.2152 8.92081 24.9487 8.58579C24.3642 8.0342 23.8176 7.43816 23.313 6.80228C23.313 6.71359 25.399 4.83155 25.7849 4.47681C25.932 4.3093 26.0882 4.26989 26.0514 4.02355C25.5785 3.86709 25.0725 3.86709 24.5995 4.02355C24.4157 4.11223 23.1568 5.33408 22.8168 5.65925C22.7065 5.7775 22.054 6.51652 21.9805 6.47711C21.8703 6.10267 21.9805 1.00833 21.907 0.722571C21.8335 0.436815 20.5378 0.890083 20.5746 1.38277C20.6466 1.72893 20.6836 2.08243 20.6848 2.43711V9.48247C20.6848 9.72881 20.6113 10.4678 20.7675 10.5861C21.1251 10.6841 21.4982 10.6975 21.8611 10.6255Z" fill="white"/>
<path fill-rule="evenodd" clip-rule="evenodd" d="M11.9637 7.28506C12.3864 7.16681 13.8016 7.53141 13.8659 7.93541C13.9027 8.37138 13.9027 8.81001 13.8659 9.24597C13.5994 9.61056 11.7707 10.3397 11.1642 9.03904C11.0825 8.85427 11.0401 8.65232 11.0401 8.44781C11.0401 8.2433 11.0825 8.04136 11.1642 7.85658C11.2525 7.70635 11.3693 7.57778 11.5071 7.47929C11.6448 7.38081 11.8004 7.31462 11.9637 7.28506ZM13.9027 6.79237C13.5456 6.53871 13.1462 6.36138 12.7264 6.27012C12.2033 6.208 11.674 6.24806 11.1642 6.38836C10.735 6.52019 10.3565 6.79623 10.0845 7.17589C9.81243 7.55555 9.66117 8.01879 9.65294 8.4975C9.64471 8.9762 9.77995 9.44511 10.0388 9.83526C10.2976 10.2254 10.6663 10.5162 11.0907 10.6649C11.8176 10.9307 12.6061 10.9307 13.3329 10.6649C13.4892 10.5861 13.7924 10.3792 13.9027 10.3397C14.013 10.3003 14.0589 10.6255 14.2059 10.7043C14.353 10.7832 15.0422 10.7043 15.2352 10.5073C15.4281 10.3102 15.4649 10.3397 15.3454 10.054C15.1676 9.67694 15.1034 9.24998 15.1616 8.83211V5.89567C15.2097 5.47989 15.115 5.05956 14.8951 4.71321C14.1692 3.16616 9.79501 3.7771 10.1442 5.08766C10.4934 6.39822 11.0631 4.63438 12.9929 4.88073C14.0313 4.99897 13.9211 6.06318 13.9211 6.79237H13.9027Z" fill="white"/>
<path fill-rule="evenodd" clip-rule="evenodd" d="M58.8861 6.59589H55.7342C55.7764 6.1914 55.9486 5.81527 56.2212 5.53197C56.5188 5.25222 56.8926 5.08292 57.2872 5.04926C57.4927 5.03106 57.6995 5.05745 57.8953 5.12684C58.091 5.19624 58.2718 5.30722 58.4266 5.45316C58.5825 5.59067 58.7056 5.7661 58.7855 5.96486C58.8654 6.16362 58.8999 6.37996 58.8861 6.59589ZM55.6514 7.64996C55.8812 7.53175 59.3272 7.64996 59.9521 7.64996C60.5769 7.64996 60.2921 5.45316 59.1526 4.5567C58.6871 4.18465 58.1329 3.96132 57.554 3.91251C56.9752 3.86369 56.3952 3.99138 55.8811 4.28083C55.3671 4.57028 54.9399 5.00968 54.6488 5.54831C54.3578 6.08694 54.2148 6.70283 54.2363 7.32488C54.2145 7.92904 54.3456 8.52827 54.6158 9.05899C54.886 9.58971 55.2851 10.0321 55.7709 10.3393C56.7909 11.0782 59.5294 11.0388 59.8694 9.89603C60.2921 8.4282 59.2996 9.24585 58.9504 9.40347C58.6568 9.53252 58.3473 9.61547 58.0315 9.64975C56.0006 9.89603 55.5044 7.97505 55.6514 7.64996Z" fill="white"/>
<path fill-rule="evenodd" clip-rule="evenodd" d="M41.8592 6.59517C41.8914 6.1743 42.0698 5.78175 42.3591 5.49525C42.6485 5.20874 43.0275 5.04917 43.4213 5.04811C44.2116 4.95943 45.1306 5.69847 44.9743 6.59517H41.8592ZM41.7029 7.58056C41.8959 7.58056 45.4706 7.58056 45.9668 7.58056C46.463 7.58056 46.3803 7.25538 46.3435 6.85137C46.3167 6.30424 46.1578 5.77397 45.8824 5.3125C45.6069 4.85102 45.2244 4.47418 44.7724 4.21888C44.3203 3.96358 43.8141 3.83858 43.3034 3.85611C42.7928 3.87365 42.2951 4.03313 41.8592 4.31893C41.369 4.62945 40.9681 5.07885 40.7007 5.61776C40.4332 6.15666 40.3094 6.7642 40.3429 7.37363C40.3039 7.97522 40.4303 8.57587 40.7063 9.10128C40.9823 9.62669 41.3959 10.0538 41.8959 10.3298C43.1916 11.1871 45.7371 10.8225 45.9668 9.84695C45.9668 9.56119 46.1506 8.86157 45.7371 9.02908C45.2375 9.33189 44.6938 9.54179 44.1289 9.64988C43.8278 9.69302 43.5217 9.67169 43.2283 9.58712C42.9349 9.50255 42.6601 9.35642 42.4197 9.15718C42.0889 8.87142 41.5559 8.01413 41.7029 7.58056Z" fill="white"/>
<path fill-rule="evenodd" clip-rule="evenodd" d="M62.3421 10.6646C62.5719 10.4183 62.5351 10.3 62.5351 9.93547V8.95015C62.5351 7.64952 62.3054 5.49165 63.7114 5.16649C64.0146 5.08767 64.0881 5.36356 64.4741 5.28473C64.7017 5.06578 64.8727 4.78745 64.9703 4.47676C64.9703 3.85601 64.0514 3.73777 63.2151 4.14175C62.9486 4.26984 62.7281 4.71324 62.5351 4.75265C62.5351 4.38808 62.6086 4.23043 62.3789 3.90527C62.0844 3.93556 61.7992 4.03298 61.5427 4.19102C61.1659 4.38808 61.0924 4.38808 61.1659 4.88075C61.2394 5.37341 61.1659 8.75308 61.1659 9.56105C61.2027 10.7927 61.2027 10.7533 62.3421 10.6646Z" fill="white"/>
<path fill-rule="evenodd" clip-rule="evenodd" d="M17.5339 10.6264V10.5475C17.6405 9.54671 17.6682 8.53803 17.6166 7.53221C17.6166 6.75375 17.8003 5.49244 18.5998 5.24609C19.2431 4.99974 19.2798 5.6501 19.7025 5.24609C20.6858 4.14245 19.3625 3.69902 18.5631 4.06361C17.7636 4.42821 17.8739 4.71398 17.6441 4.79281C17.6257 4.63247 17.6257 4.4703 17.6441 4.30996C17.6441 4.10303 17.5614 4.10303 17.4879 3.98478C17.1933 3.98221 16.9038 4.0675 16.6517 4.23113C16.2749 4.38879 16.1555 4.42821 16.2749 4.92091C16.3558 5.67637 16.3803 6.43753 16.3484 7.19718V9.44389C16.4311 10.6658 16.2749 10.7545 17.5339 10.6264Z" fill="white"/>
<path fill-rule="evenodd" clip-rule="evenodd" d="M34.6722 11.9371C33.1552 12.1377 31.6636 12.5177 30.2245 13.0701C29.7742 13.2771 29.3056 13.3953 28.8553 13.6022C27.9364 13.9668 27.0726 14.2919 26.1628 14.6663C25.8596 14.7846 23.6909 15.4743 23.3141 15.5629C21.4763 16.0457 18.7194 16.6172 16.9643 15.76C16.1281 15.3166 16.0453 16.696 17.9475 17.1887C19.0599 17.3975 20.2014 17.3437 21.2925 17.031C22.2114 16.8241 23.3141 16.4595 24.1871 16.1738C25.0601 15.8881 26.0893 15.5629 27.0358 15.2772C27.2655 15.1885 27.4493 15.1097 27.7158 15.0309L29.1218 14.5776C29.3883 14.4988 29.5813 14.3806 29.811 14.2919L31.2629 13.9274C31.5294 13.8485 31.7224 13.7697 31.9521 13.681C33.8761 13.2409 35.8385 13.0229 37.8057 13.0307C38.2928 13.0307 39.0187 13.1588 39.5149 13.2376C40.4339 13.3559 40.2317 12.8337 39.6252 12.4987C38.0483 11.8508 36.3406 11.6572 34.6722 11.9371Z" fill="#F9CC46"/>
</svg>
