<svg width="144" height="23" viewBox="0 0 144 23" fill="none" xmlns="http://www.w3.org/2000/svg">
<path d="M9.65 22.2705C8.25 22.2705 6.97 22.0505 5.81 21.6105C4.67 21.1505 3.69 20.5005 2.87 19.6605C2.07 18.8005 1.45 17.7505 1.01 16.5105C0.57 15.2705 0.35 13.8605 0.35 12.2805V10.7205C0.35 9.16049 0.57 7.76049 1.01 6.52049C1.47 5.28049 2.1 4.24049 2.9 3.40049C3.72 2.54049 4.7 1.88049 5.84 1.42049C7 0.960487 8.27 0.730487 9.65 0.730487C11.05 0.730487 12.32 0.960487 13.46 1.42049C14.62 1.86049 15.6 2.51049 16.4 3.37049C17.22 4.23049 17.85 5.28049 18.29 6.52049C18.73 7.74049 18.95 9.14049 18.95 10.7205V12.2805C18.95 13.8405 18.72 15.2405 18.26 16.4805C17.82 17.7205 17.19 18.7705 16.37 19.6305C15.57 20.4905 14.59 21.1505 13.43 21.6105C12.29 22.0505 11.03 22.2705 9.65 22.2705ZM9.65 18.9105C11.29 18.9105 12.62 18.3605 13.64 17.2605C14.66 16.1405 15.17 14.4805 15.17 12.2805V10.7205C15.17 9.64049 15.03 8.69049 14.75 7.87049C14.49 7.03049 14.11 6.34049 13.61 5.80049C13.13 5.24049 12.55 4.82049 11.87 4.54049C11.19 4.24049 10.45 4.09049 9.65 4.09049C7.99 4.09049 6.65 4.65049 5.63 5.77049C4.63 6.87049 4.13 8.52049 4.13 10.7205V12.2805C4.13 14.4605 4.64 16.1105 5.66 17.2305C6.7 18.3505 8.03 18.9105 9.65 18.9105ZM19.6906 1.00049H23.5906L29.5906 17.8005L35.1106 1.00049H38.8906L31.6906 22.0005H27.4906L19.6906 1.00049ZM41.2953 1.00049H54.7953V4.18049H44.8953V9.61049H52.9953V12.7905H44.8953V18.8205H54.7953V22.0005H41.2953V1.00049ZM66.0324 14.0805H61.6824V22.0005H58.0824V1.00049H65.3124C68.1124 1.00049 70.1524 1.58049 71.4324 2.74049C72.7324 3.90049 73.3824 5.50049 73.3824 7.54049C73.3824 8.94049 73.0624 10.1505 72.4224 11.1705C71.7824 12.1705 70.8024 12.9205 69.4824 13.4205L73.9824 22.0005H69.9024L66.0324 14.0805ZM61.6824 4.18049V10.9005H65.3124C66.8124 10.9005 67.9024 10.6005 68.5824 10.0005C69.2624 9.38049 69.6024 8.56049 69.6024 7.54049C69.6024 6.50049 69.2624 5.68049 68.5824 5.08049C67.9024 4.48049 66.8124 4.18049 65.3124 4.18049H61.6824ZM90.6359 22.2705C89.7359 22.2705 88.9159 22.1405 88.1759 21.8805C87.4559 21.6205 86.8259 21.2605 86.2859 20.8005C85.7459 20.3205 85.2959 19.7705 84.9359 19.1505C84.5759 18.5105 84.3259 17.8105 84.1859 17.0505H87.8759C88.0959 17.5505 88.4359 17.9905 88.8959 18.3705C89.3559 18.7305 89.9859 18.9105 90.7859 18.9105C91.3659 18.9105 91.8959 18.8205 92.3759 18.6405C92.8559 18.4405 93.2659 18.1205 93.6059 17.6805C93.9459 17.2205 94.2159 16.6405 94.4159 15.9405C94.6159 15.2205 94.7359 14.3305 94.7759 13.2705C94.2359 13.8505 93.5959 14.3005 92.8559 14.6205C92.1159 14.9205 91.3259 15.0705 90.4859 15.0705C88.3259 15.0705 86.6359 14.4605 85.4159 13.2405C84.1959 12.0005 83.5859 10.2805 83.5859 8.08049V7.72049C83.5859 6.70049 83.7559 5.76049 84.0959 4.90049C84.4359 4.04049 84.9159 3.30049 85.5359 2.68049C86.1759 2.06049 86.9359 1.58049 87.8159 1.24049C88.7159 0.900487 89.7059 0.730487 90.7859 0.730487C91.9259 0.730487 92.9559 0.920487 93.8759 1.30049C94.7959 1.66049 95.5859 2.22049 96.2459 2.98049C96.9059 3.72049 97.4059 4.66049 97.7459 5.80049C98.1059 6.94049 98.2859 8.28049 98.2859 9.82049V11.3805C98.2859 13.3605 98.1059 15.0405 97.7459 16.4205C97.3859 17.8005 96.8659 18.9305 96.1859 19.8105C95.5259 20.6705 94.7259 21.3005 93.7859 21.7005C92.8459 22.0805 91.7959 22.2705 90.6359 22.2705ZM90.7859 11.7105C91.9659 11.7105 92.8759 11.3905 93.5159 10.7505C94.1759 10.1105 94.5059 9.22049 94.5059 8.08049V7.72049C94.5059 6.58049 94.1759 5.69049 93.5159 5.05049C92.8759 4.41049 91.9659 4.09049 90.7859 4.09049C89.7659 4.09049 88.9359 4.41049 88.2959 5.05049C87.6759 5.69049 87.3659 6.58049 87.3659 7.72049V8.08049C87.3659 9.22049 87.6759 10.1105 88.2959 10.7505C88.9359 11.3905 89.7659 11.7105 90.7859 11.7105ZM102.478 1.00049H114.628V4.18049H105.688L105.328 8.86049C106.348 8.08049 107.598 7.69049 109.078 7.69049C110.098 7.69049 111.028 7.86049 111.868 8.20049C112.728 8.54049 113.458 9.03049 114.058 9.67049C114.658 10.3105 115.128 11.0805 115.468 11.9805C115.808 12.8805 115.978 13.8805 115.978 14.9805C115.978 16.0805 115.808 17.0805 115.468 17.9805C115.128 18.8805 114.628 19.6505 113.968 20.2905C113.328 20.9105 112.538 21.4005 111.598 21.7605C110.678 22.1005 109.638 22.2705 108.478 22.2705C107.518 22.2705 106.618 22.1505 105.778 21.9105C104.938 21.6505 104.188 21.2805 103.528 20.8005C102.888 20.3205 102.348 19.7405 101.908 19.0605C101.468 18.3605 101.158 17.5605 100.978 16.6605H104.758C105.058 17.4005 105.528 17.9605 106.168 18.3405C106.828 18.7205 107.598 18.9105 108.478 18.9105C109.618 18.9105 110.518 18.5705 111.178 17.8905C111.858 17.2105 112.198 16.2405 112.198 14.9805C112.198 13.7205 111.858 12.7505 111.178 12.0705C110.518 11.3905 109.618 11.0505 108.478 11.0505C107.698 11.0505 107.008 11.2105 106.408 11.5305C105.828 11.8505 105.378 12.2505 105.058 12.7305H101.578L102.478 1.00049ZM122.741 11.7705C121.941 11.7705 121.221 11.6505 120.581 11.4105C119.941 11.1505 119.391 10.8005 118.931 10.3605C118.471 9.92049 118.111 9.40049 117.851 8.80049C117.611 8.18049 117.491 7.50049 117.491 6.76049V5.74049C117.491 5.00049 117.611 4.33049 117.851 3.73049C118.111 3.11049 118.471 2.58049 118.931 2.14049C119.391 1.70049 119.941 1.36049 120.581 1.12049C121.221 0.860487 121.941 0.730487 122.741 0.730487C123.541 0.730487 124.261 0.860487 124.901 1.12049C125.541 1.36049 126.091 1.70049 126.551 2.14049C127.011 2.58049 127.361 3.11049 127.601 3.73049C127.861 4.33049 127.991 5.00049 127.991 5.74049V6.76049C127.991 7.50049 127.861 8.18049 127.601 8.80049C127.361 9.40049 127.011 9.92049 126.551 10.3605C126.091 10.8005 125.541 11.1505 124.901 11.4105C124.261 11.6505 123.541 11.7705 122.741 11.7705ZM122.741 9.19049C123.401 9.19049 123.931 8.98049 124.331 8.56049C124.751 8.12049 124.961 7.52049 124.961 6.76049V5.74049C124.961 4.98049 124.751 4.39049 124.331 3.97049C123.931 3.53049 123.401 3.31049 122.741 3.31049C122.061 3.31049 121.511 3.53049 121.091 3.97049C120.691 4.39049 120.491 4.98049 120.491 5.74049V6.76049C120.491 7.52049 120.691 8.12049 121.091 8.56049C121.511 8.98049 122.061 9.19049 122.741 9.19049ZM138.041 22.2705C137.241 22.2705 136.521 22.1505 135.881 21.9105C135.241 21.6505 134.691 21.3005 134.231 20.8605C133.771 20.4205 133.411 19.9005 133.151 19.3005C132.911 18.6805 132.791 18.0005 132.791 17.2605V16.2405C132.791 15.5005 132.911 14.8305 133.151 14.2305C133.411 13.6105 133.771 13.0805 134.231 12.6405C134.691 12.2005 135.241 11.8605 135.881 11.6205C136.521 11.3605 137.241 11.2305 138.041 11.2305C138.841 11.2305 139.561 11.3605 140.201 11.6205C140.841 11.8605 141.391 12.2005 141.851 12.6405C142.311 13.0805 142.661 13.6105 142.901 14.2305C143.161 14.8305 143.291 15.5005 143.291 16.2405V17.2605C143.291 18.0005 143.161 18.6805 142.901 19.3005C142.661 19.9005 142.311 20.4205 141.851 20.8605C141.391 21.3005 140.841 21.6505 140.201 21.9105C139.561 22.1505 138.841 22.2705 138.041 22.2705ZM138.041 19.6905C138.701 19.6905 139.231 19.4805 139.631 19.0605C140.051 18.6205 140.261 18.0205 140.261 17.2605V16.2405C140.261 15.4805 140.051 14.8905 139.631 14.4705C139.231 14.0305 138.701 13.8105 138.041 13.8105C137.361 13.8105 136.811 14.0305 136.391 14.4705C135.991 14.8905 135.791 15.4805 135.791 16.2405V17.2605C135.791 18.0205 135.991 18.6205 136.391 19.0605C136.811 19.4805 137.361 19.6905 138.041 19.6905ZM134.891 1.00049H138.191L125.891 22.0005H122.591L134.891 1.00049Z" fill="url(#paint0_linear)"/>
<defs>
<linearGradient id="paint0_linear" x1="2.32568" y1="-7.99951" x2="20.1746" y2="61.707" gradientUnits="userSpaceOnUse">
<stop stop-color="#00CDFF"/>
<stop offset="0.40625" stop-color="#7744D2"/>
<stop offset="0.697932" stop-color="#FF3C01"/>
<stop offset="1" stop-color="#FFC700"/>
</linearGradient>
</defs>
</svg>
