<svg width="47" height="41" viewBox="0 0 47 41" fill="none" xmlns="http://www.w3.org/2000/svg">
<path d="M32.7939 19.3292C33.2081 19.3293 33.544 18.9936 33.5441 18.5794C33.5442 18.1652 33.2085 17.8293 32.7942 17.8292L32.7939 19.3292ZM33.8413 16.3412C34.2555 16.3412 34.5913 16.0054 34.5913 15.5912C34.5913 15.177 34.2555 14.8412 33.8413 14.8412L33.8413 16.3412ZM32.7941 13.3531C33.2083 13.3531 33.5441 13.0174 33.5441 12.6031C33.5441 12.1889 33.2083 11.8531 32.7941 11.8531L32.7941 13.3531ZM27.2575 6.58092C27.2575 6.1667 26.9217 5.83092 26.5075 5.83092C26.0933 5.83092 25.7575 6.1667 25.7575 6.58092H27.2575ZM24.2288 5.36767C24.2288 4.95346 23.893 4.61767 23.4788 4.61767C23.0646 4.61767 22.7288 4.95346 22.7288 5.36767H24.2288ZM22.8202 8.48841L22.8203 7.73841H22.8202V8.48841ZM21.2001 6.58083C21.2001 6.16662 20.8644 5.83083 20.4501 5.83083C20.0359 5.83083 19.7001 6.16662 19.7001 6.58083H21.2001ZM14.0395 11.8531C13.6252 11.8531 13.2895 12.1888 13.2895 12.6031C13.2895 13.0173 13.6252 13.3531 14.0395 13.3531V11.8531ZM13.1163 14.8411C12.7021 14.8411 12.3663 15.1769 12.3663 15.5911C12.3663 16.0053 12.7021 16.3411 13.1163 16.3411V14.8411ZM14.0395 17.8291C13.6252 17.8291 13.2895 18.1649 13.2895 18.5791C13.2895 18.9933 13.6252 19.3291 14.0395 19.3291V17.8291ZM19.6293 22.6939L19.6293 21.9439H19.6293V22.6939ZM23.8329 0.998779V0.248779V0.998779ZM11.4627 8.38238L11.3773 9.1275L11.9073 9.18827L12.1386 8.70759L11.4627 8.38238ZM45.7996 21.0876L46.533 21.2444L46.5385 21.2185L46.5422 21.1924L45.7996 21.0876ZM24.8416 22.694L24.8416 23.444H24.8416V22.694ZM34.7854 8.38238L34.0461 8.50866L34.1634 9.19517L34.8567 9.12898L34.7854 8.38238ZM14.5646 34.1948L14.5646 34.9448L15.3146 34.9448V34.1948H14.5646ZM27.2395 37.4469L27.2988 38.1945L27.2395 37.4469ZM32.3931 34.1949H31.6431V34.9449L32.3931 34.9449L32.3931 34.1949ZM23.4788 8.4885L23.4787 9.2385H23.4788V8.4885ZM27.3283 23.444H28.7025V21.944H27.3283V23.444ZM28.7025 23.444C30.1965 23.444 31.4282 22.2433 31.4282 20.7449H29.9282C29.9282 21.3958 29.3872 21.944 28.7025 21.944V23.444ZM31.4282 20.7449V19.2289H29.9282V20.7449H31.4282ZM31.4282 17.9295V16.2409H29.9282V17.9295H31.4282ZM31.4282 14.9415V13.2529H29.9282V14.9415H31.4282ZM31.4282 11.9534V10.4377H29.9282V11.9534H31.4282ZM31.4282 10.4377C31.4282 8.93921 30.1965 7.7385 28.7025 7.7385V9.2385C29.3872 9.2385 29.9282 9.78667 29.9282 10.4377H31.4282ZM28.7025 7.7385H27.166V9.2385H28.7025V7.7385ZM25.8489 7.7385H24.1374V9.2385H25.8489V7.7385ZM22.8202 7.73841H21.1087V9.23841H22.8202V7.73841ZM19.7916 7.73841H18.2551V9.23841H19.7916V7.73841ZM18.2551 7.73841C16.7611 7.73841 15.5294 8.93912 15.5294 10.4376H17.0294C17.0294 9.78659 17.5704 9.23841 18.2551 9.23841V7.73841ZM15.5294 10.4376V11.9533H17.0294V10.4376H15.5294ZM15.5294 13.2528V14.9414H17.0294V13.2528H15.5294ZM15.5294 16.2408V17.9294H17.0294V16.2408H15.5294ZM15.5294 19.2288V20.7448H17.0294V19.2288H15.5294ZM15.5294 20.7448C15.5294 22.2432 16.7611 23.4439 18.2551 23.4439V21.9439C17.5704 21.9439 17.0294 21.3958 17.0294 20.7448H15.5294ZM18.2551 23.4439H19.6293V21.9439H18.2551V23.4439ZM23.8329 0.248779C19.9431 0.248779 17.1761 1.10805 15.1152 2.55735C13.0609 4.00194 11.7874 5.97794 10.7869 8.05717L12.1386 8.70759C13.0882 6.7342 14.2231 5.0184 15.978 3.78435C17.7262 2.555 20.1693 1.74878 23.8329 1.74878V0.248779ZM11.5482 7.63726C11.1568 7.59238 10.7618 7.56957 10.3683 7.56957V9.06957C10.7041 9.06957 11.042 9.08904 11.3773 9.1275L11.5482 7.63726ZM10.3683 7.56957C4.79796 7.56957 0.25 12.0419 0.25 17.562H1.75C1.75 12.8894 5.60719 9.06957 10.3683 9.06957V7.56957ZM0.25 17.562C0.25 23.0821 4.79794 27.5545 10.3682 27.5545V26.0545C5.6072 26.0545 1.75 22.2346 1.75 17.562H0.25ZM10.3682 27.5545H14.5646V26.0545H10.3682V27.5545ZM14.5646 27.5545H19.6293V26.0545H14.5646V27.5545ZM19.6293 27.5545L27.3283 27.5546L27.3283 26.0546L19.6293 26.0545L19.6293 27.5545ZM27.3283 27.5546H32.3931V26.0546H27.3283V27.5546ZM32.3931 27.5546H38.6468V26.0546H32.3931V27.5546ZM38.6468 27.5546C42.4299 27.5546 45.7497 24.9103 46.533 21.2444L45.0661 20.9309C44.4338 23.8902 41.7374 26.0546 38.6468 26.0546V27.5546ZM9.29608 34.5277C9.09545 34.5277 8.94849 34.3682 8.94849 34.1948H7.44849C7.44849 35.2157 8.2862 36.0277 9.29608 36.0277V34.5277ZM8.94849 34.1948C8.94849 34.0214 9.09546 33.8619 9.29608 33.8619V32.3619C8.28619 32.3619 7.44849 33.1739 7.44849 34.1948H8.94849ZM9.29608 33.8619C9.49671 33.8619 9.64368 34.0214 9.64368 34.1948H11.1437C11.1437 33.1739 10.306 32.3619 9.29608 32.3619V33.8619ZM9.64368 34.1948C9.64368 34.3682 9.49672 34.5277 9.29608 34.5277V36.0277C10.306 36.0277 11.1437 35.2157 11.1437 34.1948H9.64368ZM19.9769 38.5263C19.9769 38.6997 19.8299 38.8591 19.6293 38.8591V40.3591C20.6392 40.3591 21.4769 39.5471 21.4769 38.5263H19.9769ZM19.6293 38.8591C19.4287 38.8591 19.2817 38.6997 19.2817 38.5263H17.7817C17.7817 39.5471 18.6194 40.3591 19.6293 40.3591V38.8591ZM19.2817 38.5263C19.2817 38.3529 19.4287 38.1934 19.6293 38.1934V36.6934C18.6194 36.6934 17.7817 37.5054 17.7817 38.5263H19.2817ZM19.6293 38.1934C19.8299 38.1934 19.9769 38.3529 19.9769 38.5263H21.4769C21.4769 37.5055 20.6392 36.6934 19.6293 36.6934V38.1934ZM27.6759 38.5263C27.6759 38.6997 27.5289 38.8591 27.3283 38.8591V40.3591C28.3382 40.3591 29.1759 39.5471 29.1759 38.5263H27.6759ZM27.3283 38.8591C27.1277 38.8591 26.9807 38.6997 26.9807 38.5263H25.4807C25.4807 39.5471 26.3184 40.3591 27.3283 40.3591V38.8591ZM27.3283 38.1934C27.5289 38.1934 27.6759 38.3529 27.6759 38.5263H29.1759C29.1759 37.5055 28.3382 36.6934 27.3283 36.6934V38.1934ZM19.6293 23.4439L24.8416 23.444L24.8416 21.944L19.6293 21.9439L19.6293 23.4439ZM24.8416 23.444H27.3283V21.944H24.8416V23.444ZM37.6615 33.8619C37.8622 33.8619 38.0091 34.0214 38.0091 34.1948H39.5091C39.5091 33.1739 38.6714 32.3619 37.6615 32.3619V33.8619ZM38.0091 34.1948C38.0091 34.3682 37.8622 34.5277 37.6615 34.5277V36.0277C38.6714 36.0277 39.5091 35.2157 39.5091 34.1948H38.0091ZM37.3139 34.1948C37.3139 34.0214 37.4609 33.8619 37.6615 33.8619V32.3619C36.6516 32.3619 35.8139 33.1739 35.8139 34.1948H37.3139ZM23.8329 1.74878C25.8143 1.74878 28.1855 2.19428 30.1515 3.27517C32.0997 4.34625 33.6208 6.01912 34.0461 8.50866L35.5247 8.25609C35.0058 5.21862 33.1277 3.19969 30.8742 1.96072C28.6385 0.731571 26.0055 0.248779 23.8329 0.248779V1.74878ZM34.8567 9.12898C36.5311 8.96914 39.466 9.44717 41.7784 11.2067C44.0306 12.9204 45.7726 15.9087 45.0569 20.9829L46.5422 21.1924C47.3287 15.6166 45.3993 12.077 42.6867 10.013C40.0343 7.99476 36.7111 7.44514 34.7141 7.63577L34.8567 9.12898ZM10.3934 34.9448C10.581 34.9449 13.2525 34.9448 14.5646 34.9448L14.5645 33.4448C13.2522 33.4448 10.5812 33.4449 10.394 33.4448L10.3934 34.9448ZM15.3146 34.1948V26.8045H13.8146V34.1948H15.3146ZM20.3793 37.4434V26.8045H18.8793V37.4434H20.3793ZM26.9807 38.5263C26.9807 38.3616 27.113 38.2093 27.2988 38.1945L27.1803 36.6992C26.2382 36.7739 25.4807 37.5556 25.4807 38.5263H26.9807ZM27.2988 38.1945C27.3084 38.1938 27.3182 38.1934 27.3283 38.1934V36.6934C27.2786 36.6934 27.2292 36.6954 27.1803 36.6992L27.2988 38.1945ZM28.0783 37.4434V26.8046H26.5783V37.4434H28.0783ZM31.6431 26.8046V34.1949H33.1431V26.8046H31.6431ZM37.6615 34.5277C37.461 34.5277 37.3139 34.3682 37.3139 34.1947L35.8139 34.1948C35.814 35.2156 36.6516 36.0277 37.6615 36.0277V34.5277ZM32.3931 34.9449L36.5639 34.9448L36.5639 33.4448L32.393 33.4449L32.3931 34.9449ZM20.3793 26.8045V22.6939H18.8793V26.8045H20.3793ZM28.0783 26.8046V22.694H26.5783V26.8046H28.0783ZM19.7916 9.23841H20.4501V7.73841H19.7916V9.23841ZM20.4501 9.23841H21.1087V7.73841H20.4501V9.23841ZM19.7001 6.58083V8.48841H21.2001V6.58083H19.7001ZM22.7288 5.36767V8.4885H24.2288V5.36767H22.7288ZM23.4789 7.7385L22.8203 7.73841L22.8201 9.23841L23.4787 9.2385L23.4789 7.7385ZM24.1374 7.7385H23.4788V9.2385H24.1374V7.7385ZM25.8489 9.2385H26.5075V7.7385H25.8489V9.2385ZM26.5075 9.2385H27.166V7.7385H26.5075V9.2385ZM25.7575 6.58092V8.4885H27.2575V6.58092H25.7575ZM15.5294 11.9533V12.6031H17.0294V11.9533H15.5294ZM15.5294 12.6031V13.2528H17.0294V12.6031H15.5294ZM16.2794 11.8531H14.0395V13.3531H16.2794V11.8531ZM15.5294 14.9414V15.5911H17.0294V14.9414H15.5294ZM15.5294 15.5911V16.2408H17.0294V15.5911H15.5294ZM16.2794 14.8411H13.1163V16.3411H16.2794V14.8411ZM15.5294 17.9294V18.5791H17.0294V17.9294H15.5294ZM15.5294 18.5791V19.2288H17.0294V18.5791H15.5294ZM16.2794 17.8291H14.0395V19.3291H16.2794V17.8291ZM29.9282 11.9534V12.6031H31.4282V11.9534H29.9282ZM29.9282 12.6031V13.2529H31.4282V12.6031H29.9282ZM30.6782 13.3531L32.7941 13.3531L32.7941 11.8531L30.6782 11.8531L30.6782 13.3531ZM29.9282 14.9415V15.5912H31.4282V14.9415H29.9282ZM29.9282 15.5912V16.2409H31.4282V15.5912H29.9282ZM30.6782 16.3412L33.8413 16.3412L33.8413 14.8412L30.6782 14.8412L30.6782 16.3412ZM29.9282 17.9295V18.5792H31.4282V17.9295H29.9282ZM29.9282 18.5792V19.2289H31.4282V18.5792H29.9282ZM32.7942 17.8292C32.4733 17.8291 31.2497 17.8292 30.6781 17.8292L30.6782 19.3292C31.2499 19.3292 32.4732 19.3291 32.7939 19.3292L32.7942 17.8292Z" fill="url(#paint0_linear)"/>
<path d="M20.5415 12.7058H26.416V18.4812H20.5415V12.7058Z" stroke="url(#paint1_linear)" stroke-width="1.5"/>
<defs>
<linearGradient id="paint0_linear" x1="2.03141" y1="0.998777" x2="39.1915" y2="45.2953" gradientUnits="userSpaceOnUse">
<stop stop-color="#00CDFF"/>
<stop offset="0.40625" stop-color="#7744D2"/>
<stop offset="0.697932" stop-color="#FF3C01"/>
<stop offset="1" stop-color="#FFC700"/>
</linearGradient>
<linearGradient id="paint1_linear" x1="19.9606" y1="11.9558" x2="27.0663" y2="19.3273" gradientUnits="userSpaceOnUse">
<stop stop-color="#00CDFF"/>
<stop offset="0.40625" stop-color="#7744D2"/>
<stop offset="0.697932" stop-color="#FF3C01"/>
<stop offset="1" stop-color="#FFC700"/>
</linearGradient>
</defs>
</svg>
