<svg width="45" height="37" viewBox="0 0 45 37" fill="none" xmlns="http://www.w3.org/2000/svg">
<path d="M13.2269 13.3203C13.7792 13.3203 14.2269 12.8726 14.2269 12.3203C14.2269 11.768 13.7792 11.3203 13.2269 11.3203V13.3203ZM3.57812 11.3203C3.02584 11.3203 2.57812 11.768 2.57812 12.3203C2.57812 12.8726 3.02584 13.3203 3.57812 13.3203V11.3203ZM13.2269 28.8026C13.7792 28.8026 14.2269 28.3549 14.2269 27.8026C14.2269 27.2503 13.7792 26.8026 13.2269 26.8026V28.8026ZM3.57812 26.8026C3.02584 26.8026 2.57812 27.2503 2.57812 27.8026C2.57812 28.3549 3.02584 28.8026 3.57812 28.8026V26.8026ZM11.4844 21.0614C12.0367 21.0614 12.4844 20.6137 12.4844 20.0614C12.4844 19.5091 12.0367 19.0614 11.4844 19.0614V21.0614ZM1 19.0614C0.447715 19.0614 0 19.5091 0 20.0614C0 20.6137 0.447715 21.0614 1 21.0614V19.0614ZM30.8203 7.2188L30.9106 6.22288L30.8655 6.2188H30.8203V7.2188ZM32.1094 2.99878C32.6617 2.99878 33.1094 2.55106 33.1094 1.99878C33.1094 1.44649 32.6617 0.998779 32.1094 0.998779V2.99878ZM26.9531 0.998779C26.4008 0.998779 25.9531 1.44649 25.9531 1.99878C25.9531 2.55106 26.4008 2.99878 26.9531 2.99878V0.998779ZM28.2422 7.2188V6.2188H28.197L28.1519 6.22288L28.2422 7.2188ZM38.0391 22.3516C38.5913 22.3516 39.0391 21.9039 39.0391 21.3516C39.0391 20.7993 38.5913 20.3516 38.0391 20.3516V22.3516ZM29.5312 21.3516H28.5312V22.3516H29.5312V21.3516ZM30.5312 12.9654C30.5312 12.4131 30.0835 11.9654 29.5312 11.9654C28.979 11.9654 28.5312 12.4131 28.5312 12.9654H30.5312ZM13.2269 11.3203H3.57812V13.3203H13.2269V11.3203ZM13.2269 26.8026H3.57812V28.8026H13.2269V26.8026ZM11.4844 19.0614H1V21.0614H11.4844V19.0614ZM28.1519 6.22288C20.4245 6.9232 14.3516 13.4392 14.3516 21.3516H16.3516C16.3516 14.4829 21.6264 8.82248 28.3324 8.21472L28.1519 6.22288ZM14.3516 21.3516C14.3516 29.7286 21.1595 36.5437 29.5312 36.5437V34.5437C22.2657 34.5437 16.3516 28.6257 16.3516 21.3516H14.3516ZM29.5312 36.5437C37.903 36.5437 44.7109 29.7286 44.7109 21.3516H42.7109C42.7109 28.6257 36.7968 34.5437 29.5312 34.5437V36.5437ZM44.7109 21.3516C44.7109 13.4392 38.638 6.9232 30.9106 6.22288L30.7301 8.21472C37.4361 8.82248 42.7109 14.4829 42.7109 21.3516H44.7109ZM38.0391 20.3516H29.5312V22.3516H38.0391V20.3516ZM30.5312 21.3516V12.9654H28.5312V21.3516H30.5312ZM32.1094 0.998779H29.4883V2.99878H32.1094V0.998779ZM29.4883 0.998779H26.9531V2.99878H29.4883V0.998779ZM28.4883 1.99878V7.2188H30.4883V1.99878H28.4883ZM28.2422 8.2188C28.2426 8.2188 28.243 8.2188 28.2434 8.2188C28.2438 8.2188 28.2442 8.2188 28.2447 8.2188C28.2451 8.2188 28.2455 8.2188 28.246 8.2188C28.2464 8.2188 28.2468 8.2188 28.2473 8.2188C28.2477 8.2188 28.2482 8.2188 28.2486 8.2188C28.2491 8.2188 28.2495 8.2188 28.25 8.2188C28.2505 8.2188 28.2509 8.2188 28.2514 8.2188C28.2519 8.2188 28.2524 8.2188 28.2529 8.2188C28.2534 8.2188 28.2538 8.2188 28.2543 8.2188C28.2548 8.2188 28.2553 8.2188 28.2558 8.2188C28.2564 8.2188 28.2569 8.2188 28.2574 8.2188C28.2579 8.2188 28.2584 8.2188 28.259 8.2188C28.2595 8.2188 28.26 8.2188 28.2606 8.2188C28.2611 8.2188 28.2616 8.2188 28.2622 8.2188C28.2627 8.2188 28.2633 8.2188 28.2638 8.2188C28.2644 8.2188 28.265 8.2188 28.2655 8.2188C28.2661 8.2188 28.2667 8.2188 28.2673 8.2188C28.2678 8.2188 28.2684 8.2188 28.269 8.2188C28.2696 8.2188 28.2702 8.2188 28.2708 8.2188C28.2714 8.2188 28.272 8.2188 28.2726 8.2188C28.2732 8.2188 28.2738 8.2188 28.2744 8.2188C28.2751 8.2188 28.2757 8.2188 28.2763 8.2188C28.2769 8.2188 28.2776 8.2188 28.2782 8.2188C28.2788 8.2188 28.2795 8.2188 28.2801 8.2188C28.2808 8.2188 28.2814 8.2188 28.2821 8.2188C28.2828 8.2188 28.2834 8.2188 28.2841 8.2188C28.2848 8.2188 28.2854 8.2188 28.2861 8.2188C28.2868 8.2188 28.2875 8.2188 28.2882 8.2188C28.2888 8.2188 28.2895 8.2188 28.2902 8.2188C28.2909 8.2188 28.2916 8.2188 28.2923 8.2188C28.293 8.2188 28.2938 8.2188 28.2945 8.2188C28.2952 8.2188 28.2959 8.2188 28.2966 8.2188C28.2974 8.2188 28.2981 8.2188 28.2988 8.2188C28.2996 8.2188 28.3003 8.2188 28.301 8.2188C28.3018 8.2188 28.3025 8.2188 28.3033 8.2188C28.304 8.2188 28.3048 8.2188 28.3056 8.2188C28.3063 8.2188 28.3071 8.2188 28.3079 8.2188C28.3086 8.2188 28.3094 8.2188 28.3102 8.2188C28.311 8.2188 28.3118 8.2188 28.3126 8.2188C28.3134 8.2188 28.3142 8.2188 28.315 8.2188C28.3158 8.2188 28.3166 8.2188 28.3174 8.2188C28.3182 8.2188 28.319 8.2188 28.3198 8.2188C28.3206 8.2188 28.3215 8.2188 28.3223 8.2188C28.3231 8.2188 28.324 8.2188 28.3248 8.2188C28.3256 8.2188 28.3265 8.2188 28.3273 8.2188C28.3282 8.2188 28.329 8.2188 28.3299 8.2188C28.3307 8.2188 28.3316 8.2188 28.3325 8.2188C28.3333 8.2188 28.3342 8.2188 28.3351 8.2188C28.336 8.2188 28.3368 8.2188 28.3377 8.2188C28.3386 8.2188 28.3395 8.2188 28.3404 8.2188C28.3413 8.2188 28.3422 8.2188 28.3431 8.2188C28.344 8.2188 28.3449 8.2188 28.3458 8.2188C28.3467 8.2188 28.3476 8.2188 28.3485 8.2188C28.3495 8.2188 28.3504 8.2188 28.3513 8.2188C28.3522 8.2188 28.3532 8.2188 28.3541 8.2188C28.355 8.2188 28.356 8.2188 28.3569 8.2188C28.3579 8.2188 28.3588 8.2188 28.3598 8.2188C28.3607 8.2188 28.3617 8.2188 28.3627 8.2188C28.3636 8.2188 28.3646 8.2188 28.3656 8.2188C28.3665 8.2188 28.3675 8.2188 28.3685 8.2188C28.3695 8.2188 28.3705 8.2188 28.3714 8.2188C28.3724 8.2188 28.3734 8.2188 28.3744 8.2188C28.3754 8.2188 28.3764 8.2188 28.3774 8.2188C28.3784 8.2188 28.3794 8.2188 28.3805 8.2188C28.3815 8.2188 28.3825 8.2188 28.3835 8.2188C28.3845 8.2188 28.3856 8.2188 28.3866 8.2188C28.3876 8.2188 28.3887 8.2188 28.3897 8.2188C28.3907 8.2188 28.3918 8.2188 28.3928 8.2188C28.3939 8.2188 28.3949 8.2188 28.396 8.2188C28.3971 8.2188 28.3981 8.2188 28.3992 8.2188C28.4002 8.2188 28.4013 8.2188 28.4024 8.2188C28.4035 8.2188 28.4045 8.2188 28.4056 8.2188C28.4067 8.2188 28.4078 8.2188 28.4089 8.2188C28.41 8.2188 28.4111 8.2188 28.4122 8.2188C28.4133 8.2188 28.4144 8.2188 28.4155 8.2188C28.4166 8.2188 28.4177 8.2188 28.4188 8.2188C28.4199 8.2188 28.421 8.2188 28.4222 8.2188C28.4233 8.2188 28.4244 8.2188 28.4255 8.2188C28.4267 8.2188 28.4278 8.2188 28.4289 8.2188C28.4301 8.2188 28.4312 8.2188 28.4324 8.2188C28.4335 8.2188 28.4347 8.2188 28.4358 8.2188C28.437 8.2188 28.4381 8.2188 28.4393 8.2188C28.4405 8.2188 28.4416 8.2188 28.4428 8.2188C28.444 8.2188 28.4452 8.2188 28.4463 8.2188C28.4475 8.2188 28.4487 8.2188 28.4499 8.2188C28.4511 8.2188 28.4523 8.2188 28.4534 8.2188C28.4546 8.2188 28.4558 8.2188 28.457 8.2188C28.4582 8.2188 28.4594 8.2188 28.4607 8.2188C28.4619 8.2188 28.4631 8.2188 28.4643 8.2188C28.4655 8.2188 28.4667 8.2188 28.468 8.2188C28.4692 8.2188 28.4704 8.2188 28.4716 8.2188C28.4729 8.2188 28.4741 8.2188 28.4754 8.2188C28.4766 8.2188 28.4778 8.2188 28.4791 8.2188C28.4803 8.2188 28.4816 8.2188 28.4828 8.2188C28.4841 8.2188 28.4854 8.2188 28.4866 8.2188C28.4879 8.2188 28.4891 8.2188 28.4904 8.2188C28.4917 8.2188 28.493 8.2188 28.4942 8.2188C28.4955 8.2188 28.4968 8.2188 28.4981 8.2188C28.4994 8.2188 28.5007 8.2188 28.502 8.2188C28.5032 8.2188 28.5045 8.2188 28.5058 8.2188C28.5071 8.2188 28.5084 8.2188 28.5098 8.2188C28.5111 8.2188 28.5124 8.2188 28.5137 8.2188C28.515 8.2188 28.5163 8.2188 28.5176 8.2188C28.519 8.2188 28.5203 8.2188 28.5216 8.2188C28.5229 8.2188 28.5243 8.2188 28.5256 8.2188C28.5269 8.2188 28.5283 8.2188 28.5296 8.2188C28.531 8.2188 28.5323 8.2188 28.5337 8.2188C28.535 8.2188 28.5364 8.2188 28.5377 8.2188C28.5391 8.2188 28.5404 8.2188 28.5418 8.2188C28.5432 8.2188 28.5445 8.2188 28.5459 8.2188C28.5473 8.2188 28.5487 8.2188 28.55 8.2188C28.5514 8.2188 28.5528 8.2188 28.5542 8.2188C28.5556 8.2188 28.557 8.2188 28.5584 8.2188C28.5597 8.2188 28.5611 8.2188 28.5625 8.2188C28.5639 8.2188 28.5653 8.2188 28.5667 8.2188C28.5682 8.2188 28.5696 8.2188 28.571 8.2188C28.5724 8.2188 28.5738 8.2188 28.5752 8.2188C28.5766 8.2188 28.5781 8.2188 28.5795 8.2188C28.5809 8.2188 28.5823 8.2188 28.5838 8.2188C28.5852 8.2188 28.5866 8.2188 28.5881 8.2188C28.5895 8.2188 28.591 8.2188 28.5924 8.2188C28.5939 8.2188 28.5953 8.2188 28.5968 8.2188C28.5982 8.2188 28.5997 8.2188 28.6011 8.2188C28.6026 8.2188 28.6041 8.2188 28.6055 8.2188C28.607 8.2188 28.6085 8.2188 28.6099 8.2188C28.6114 8.2188 28.6129 8.2188 28.6144 8.2188C28.6158 8.2188 28.6173 8.2188 28.6188 8.2188C28.6203 8.2188 28.6218 8.2188 28.6233 8.2188C28.6248 8.2188 28.6263 8.2188 28.6278 8.2188C28.6292 8.2188 28.6308 8.2188 28.6323 8.2188C28.6338 8.2188 28.6353 8.2188 28.6368 8.2188C28.6383 8.2188 28.6398 8.2188 28.6413 8.2188C28.6428 8.2188 28.6444 8.2188 28.6459 8.2188C28.6474 8.2188 28.6489 8.2188 28.6505 8.2188C28.652 8.2188 28.6535 8.2188 28.6551 8.2188C28.6566 8.2188 28.6581 8.2188 28.6597 8.2188C28.6612 8.2188 28.6628 8.2188 28.6643 8.2188C28.6659 8.2188 28.6674 8.2188 28.669 8.2188C28.6705 8.2188 28.6721 8.2188 28.6736 8.2188C28.6752 8.2188 28.6768 8.2188 28.6783 8.2188C28.6799 8.2188 28.6815 8.2188 28.683 8.2188C28.6846 8.2188 28.6862 8.2188 28.6878 8.2188C28.6893 8.2188 28.6909 8.2188 28.6925 8.2188C28.6941 8.2188 28.6957 8.2188 28.6973 8.2188C28.6988 8.2188 28.7004 8.2188 28.702 8.2188C28.7036 8.2188 28.7052 8.2188 28.7068 8.2188C28.7084 8.2188 28.71 8.2188 28.7116 8.2188C28.7133 8.2188 28.7149 8.2188 28.7165 8.2188C28.7181 8.2188 28.7197 8.2188 28.7213 8.2188C28.7229 8.2188 28.7246 8.2188 28.7262 8.2188C28.7278 8.2188 28.7294 8.2188 28.7311 8.2188C28.7327 8.2188 28.7343 8.2188 28.736 8.2188C28.7376 8.2188 28.7392 8.2188 28.7409 8.2188C28.7425 8.2188 28.7442 8.2188 28.7458 8.2188C28.7475 8.2188 28.7491 8.2188 28.7508 8.2188C28.7524 8.2188 28.7541 8.2188 28.7557 8.2188C28.7574 8.2188 28.759 8.2188 28.7607 8.2188C28.7624 8.2188 28.764 8.2188 28.7657 8.2188C28.7674 8.2188 28.769 8.2188 28.7707 8.2188C28.7724 8.2188 28.7741 8.2188 28.7758 8.2188C28.7774 8.2188 28.7791 8.2188 28.7808 8.2188C28.7825 8.2188 28.7842 8.2188 28.7859 8.2188C28.7875 8.2188 28.7892 8.2188 28.7909 8.2188C28.7926 8.2188 28.7943 8.2188 28.796 8.2188C28.7977 8.2188 28.7994 8.2188 28.8011 8.2188C28.8028 8.2188 28.8046 8.2188 28.8063 8.2188C28.808 8.2188 28.8097 8.2188 28.8114 8.2188C28.8131 8.2188 28.8148 8.2188 28.8166 8.2188C28.8183 8.2188 28.82 8.2188 28.8217 8.2188C28.8235 8.2188 28.8252 8.2188 28.8269 8.2188C28.8286 8.2188 28.8304 8.2188 28.8321 8.2188C28.8339 8.2188 28.8356 8.2188 28.8373 8.2188C28.8391 8.2188 28.8408 8.2188 28.8426 8.2188C28.8443 8.2188 28.8461 8.2188 28.8478 8.2188C28.8496 8.2188 28.8513 8.2188 28.8531 8.2188C28.8548 8.2188 28.8566 8.2188 28.8583 8.2188C28.8601 8.2188 28.8619 8.2188 28.8636 8.2188C28.8654 8.2188 28.8672 8.2188 28.8689 8.2188C28.8707 8.2188 28.8725 8.2188 28.8743 8.2188C28.876 8.2188 28.8778 8.2188 28.8796 8.2188C28.8814 8.2188 28.8831 8.2188 28.8849 8.2188C28.8867 8.2188 28.8885 8.2188 28.8903 8.2188C28.8921 8.2188 28.8939 8.2188 28.8957 8.2188C28.8975 8.2188 28.8993 8.2188 28.901 8.2188C28.9028 8.2188 28.9046 8.2188 28.9064 8.2188C28.9083 8.2188 28.9101 8.2188 28.9119 8.2188C28.9137 8.2188 28.9155 8.2188 28.9173 8.2188C28.9191 8.2188 28.9209 8.2188 28.9227 8.2188C28.9245 8.2188 28.9264 8.2188 28.9282 8.2188C28.93 8.2188 28.9318 8.2188 28.9337 8.2188C28.9355 8.2188 28.9373 8.2188 28.9391 8.2188C28.941 8.2188 28.9428 8.2188 28.9446 8.2188C28.9465 8.2188 28.9483 8.2188 28.9501 8.2188C28.952 8.2188 28.9538 8.2188 28.9557 8.2188C28.9575 8.2188 28.9593 8.2188 28.9612 8.2188C28.963 8.2188 28.9649 8.2188 28.9667 8.2188C28.9686 8.2188 28.9704 8.2188 28.9723 8.2188C28.9741 8.2188 28.976 8.2188 28.9779 8.2188C28.9797 8.2188 28.9816 8.2188 28.9834 8.2188C28.9853 8.2188 28.9872 8.2188 28.989 8.2188C28.9909 8.2188 28.9928 8.2188 28.9946 8.2188C28.9965 8.2188 28.9984 8.2188 29.0002 8.2188C29.0021 8.2188 29.004 8.2188 29.0059 8.2188C29.0078 8.2188 29.0096 8.2188 29.0115 8.2188C29.0134 8.2188 29.0153 8.2188 29.0172 8.2188C29.0191 8.2188 29.0209 8.2188 29.0228 8.2188C29.0247 8.2188 29.0266 8.2188 29.0285 8.2188C29.0304 8.2188 29.0323 8.2188 29.0342 8.2188C29.0361 8.2188 29.038 8.2188 29.0399 8.2188C29.0418 8.2188 29.0437 8.2188 29.0456 8.2188C29.0475 8.2188 29.0494 8.2188 29.0513 8.2188C29.0532 8.2188 29.0551 8.2188 29.0571 8.2188C29.059 8.2188 29.0609 8.2188 29.0628 8.2188C29.0647 8.2188 29.0666 8.2188 29.0685 8.2188C29.0705 8.2188 29.0724 8.2188 29.0743 8.2188C29.0762 8.2188 29.0782 8.2188 29.0801 8.2188C29.082 8.2188 29.0839 8.2188 29.0859 8.2188C29.0878 8.2188 29.0897 8.2188 29.0917 8.2188C29.0936 8.2188 29.0955 8.2188 29.0975 8.2188C29.0994 8.2188 29.1013 8.2188 29.1033 8.2188C29.1052 8.2188 29.1072 8.2188 29.1091 8.2188C29.1111 8.2188 29.113 8.2188 29.1149 8.2188C29.1169 8.2188 29.1188 8.2188 29.1208 8.2188C29.1227 8.2188 29.1247 8.2188 29.1266 8.2188C29.1286 8.2188 29.1306 8.2188 29.1325 8.2188C29.1345 8.2188 29.1364 8.2188 29.1384 8.2188C29.1403 8.2188 29.1423 8.2188 29.1443 8.2188C29.1462 8.2188 29.1482 8.2188 29.1502 8.2188C29.1521 8.2188 29.1541 8.2188 29.1561 8.2188C29.158 8.2188 29.16 8.2188 29.162 8.2188C29.1639 8.2188 29.1659 8.2188 29.1679 8.2188C29.1699 8.2188 29.1718 8.2188 29.1738 8.2188C29.1758 8.2188 29.1778 8.2188 29.1798 8.2188C29.1817 8.2188 29.1837 8.2188 29.1857 8.2188C29.1877 8.2188 29.1897 8.2188 29.1917 8.2188C29.1936 8.2188 29.1956 8.2188 29.1976 8.2188C29.1996 8.2188 29.2016 8.2188 29.2036 8.2188C29.2056 8.2188 29.2076 8.2188 29.2096 8.2188C29.2116 8.2188 29.2136 8.2188 29.2156 8.2188C29.2176 8.2188 29.2196 8.2188 29.2216 8.2188C29.2236 8.2188 29.2256 8.2188 29.2276 8.2188C29.2296 8.2188 29.2316 8.2188 29.2336 8.2188C29.2356 8.2188 29.2376 8.2188 29.2396 8.2188C29.2416 8.2188 29.2436 8.2188 29.2456 8.2188C29.2476 8.2188 29.2497 8.2188 29.2517 8.2188C29.2537 8.2188 29.2557 8.2188 29.2577 8.2188C29.2597 8.2188 29.2617 8.2188 29.2638 8.2188C29.2658 8.2188 29.2678 8.2188 29.2698 8.2188C29.2718 8.2188 29.2739 8.2188 29.2759 8.2188C29.2779 8.2188 29.2799 8.2188 29.282 8.2188C29.284 8.2188 29.286 8.2188 29.288 8.2188C29.2901 8.2188 29.2921 8.2188 29.2941 8.2188C29.2962 8.2188 29.2982 8.2188 29.3002 8.2188C29.3023 8.2188 29.3043 8.2188 29.3063 8.2188C29.3084 8.2188 29.3104 8.2188 29.3124 8.2188C29.3145 8.2188 29.3165 8.2188 29.3186 8.2188C29.3206 8.2188 29.3226 8.2188 29.3247 8.2188C29.3267 8.2188 29.3288 8.2188 29.3308 8.2188C29.3328 8.2188 29.3349 8.2188 29.3369 8.2188C29.339 8.2188 29.341 8.2188 29.3431 8.2188C29.3451 8.2188 29.3472 8.2188 29.3492 8.2188C29.3513 8.2188 29.3533 8.2188 29.3554 8.2188C29.3574 8.2188 29.3595 8.2188 29.3615 8.2188C29.3636 8.2188 29.3656 8.2188 29.3677 8.2188C29.3698 8.2188 29.3718 8.2188 29.3739 8.2188C29.3759 8.2188 29.378 8.2188 29.38 8.2188C29.3821 8.2188 29.3842 8.2188 29.3862 8.2188C29.3883 8.2188 29.3903 8.2188 29.3924 8.2188C29.3945 8.2188 29.3965 8.2188 29.3986 8.2188C29.4007 8.2188 29.4027 8.2188 29.4048 8.2188C29.4069 8.2188 29.4089 8.2188 29.411 8.2188C29.4131 8.2188 29.4151 8.2188 29.4172 8.2188C29.4193 8.2188 29.4213 8.2188 29.4234 8.2188C29.4255 8.2188 29.4276 8.2188 29.4296 8.2188C29.4317 8.2188 29.4338 8.2188 29.4359 8.2188C29.4379 8.2188 29.44 8.2188 29.4421 8.2188C29.4442 8.2188 29.4462 8.2188 29.4483 8.2188C29.4504 8.2188 29.4525 8.2188 29.4545 8.2188C29.4566 8.2188 29.4587 8.2188 29.4608 8.2188C29.4629 8.2188 29.4649 8.2188 29.467 8.2188C29.4691 8.2188 29.4712 8.2188 29.4733 8.2188C29.4754 8.2188 29.4774 8.2188 29.4795 8.2188C29.4816 8.2188 29.4837 8.2188 29.4858 8.2188C29.4879 8.2188 29.49 8.2188 29.492 8.2188C29.4941 8.2188 29.4962 8.2188 29.4983 8.2188C29.5004 8.2188 29.5025 8.2188 29.5046 8.2188C29.5067 8.2188 29.5087 8.2188 29.5108 8.2188C29.5129 8.2188 29.515 8.2188 29.5171 8.2188C29.5192 8.2188 29.5213 8.2188 29.5234 8.2188C29.5255 8.2188 29.5276 8.2188 29.5297 8.2188C29.5318 8.2188 29.5339 8.2188 29.536 8.2188C29.538 8.2188 29.5401 8.2188 29.5422 8.2188C29.5443 8.2188 29.5464 8.2188 29.5485 8.2188C29.5506 8.2188 29.5527 8.2188 29.5548 8.2188C29.5569 8.2188 29.559 8.2188 29.5611 8.2188C29.5632 8.2188 29.5653 8.2188 29.5674 8.2188C29.5695 8.2188 29.5716 8.2188 29.5737 8.2188C29.5758 8.2188 29.5779 8.2188 29.58 8.2188C29.5821 8.2188 29.5842 8.2188 29.5863 8.2188C29.5884 8.2188 29.5905 8.2188 29.5926 8.2188C29.5947 8.2188 29.5968 8.2188 29.5989 8.2188C29.601 8.2188 29.6031 8.2188 29.6052 8.2188C29.6073 8.2188 29.6095 8.2188 29.6116 8.2188C29.6137 8.2188 29.6158 8.2188 29.6179 8.2188C29.62 8.2188 29.6221 8.2188 29.6242 8.2188C29.6263 8.2188 29.6284 8.2188 29.6305 8.2188C29.6326 8.2188 29.6347 8.2188 29.6368 8.2188C29.6389 8.2188 29.641 8.2188 29.6431 8.2188C29.6453 8.2188 29.6474 8.2188 29.6495 8.2188C29.6516 8.2188 29.6537 8.2188 29.6558 8.2188C29.6579 8.2188 29.66 8.2188 29.6621 8.2188C29.6642 8.2188 29.6663 8.2188 29.6684 8.2188C29.6705 8.2188 29.6727 8.2188 29.6748 8.2188C29.6769 8.2188 29.679 8.2188 29.6811 8.2188C29.6832 8.2188 29.6853 8.2188 29.6874 8.2188C29.6895 8.2188 29.6916 8.2188 29.6938 8.2188C29.6959 8.2188 29.698 8.2188 29.7001 8.2188C29.7022 8.2188 29.7043 8.2188 29.7064 8.2188C29.7085 8.2188 29.7106 8.2188 29.7127 8.2188C29.7148 8.2188 29.717 8.2188 29.7191 8.2188C29.7212 8.2188 29.7233 8.2188 29.7254 8.2188C29.7275 8.2188 29.7296 8.2188 29.7317 8.2188C29.7338 8.2188 29.736 8.2188 29.7381 8.2188C29.7402 8.2188 29.7423 8.2188 29.7444 8.2188C29.7465 8.2188 29.7486 8.2188 29.7507 8.2188C29.7528 8.2188 29.7549 8.2188 29.7571 8.2188C29.7592 8.2188 29.7613 8.2188 29.7634 8.2188C29.7655 8.2188 29.7676 8.2188 29.7697 8.2188C29.7718 8.2188 29.7739 8.2188 29.776 8.2188C29.7781 8.2188 29.7803 8.2188 29.7824 8.2188C29.7845 8.2188 29.7866 8.2188 29.7887 8.2188C29.7908 8.2188 29.7929 8.2188 29.795 8.2188C29.7971 8.2188 29.7992 8.2188 29.8013 8.2188C29.8034 8.2188 29.8056 8.2188 29.8077 8.2188C29.8098 8.2188 29.8119 8.2188 29.814 8.2188C29.8161 8.2188 29.8182 8.2188 29.8203 8.2188C29.8224 8.2188 29.8245 8.2188 29.8266 8.2188C29.8287 8.2188 29.8308 8.2188 29.8329 8.2188C29.8351 8.2188 29.8372 8.2188 29.8393 8.2188C29.8414 8.2188 29.8435 8.2188 29.8456 8.2188C29.8477 8.2188 29.8498 8.2188 29.8519 8.2188C29.854 8.2188 29.8561 8.2188 29.8582 8.2188C29.8603 8.2188 29.8624 8.2188 29.8645 8.2188C29.8666 8.2188 29.8687 8.2188 29.8708 8.2188C29.8729 8.2188 29.875 8.2188 29.8771 8.2188C29.8792 8.2188 29.8813 8.2188 29.8834 8.2188C29.8855 8.2188 29.8876 8.2188 29.8897 8.2188C29.8918 8.2188 29.8939 8.2188 29.896 8.2188C29.8981 8.2188 29.9002 8.2188 29.9023 8.2188C29.9044 8.2188 29.9065 8.2188 29.9086 8.2188C29.9107 8.2188 29.9128 8.2188 29.9149 8.2188C29.917 8.2188 29.9191 8.2188 29.9212 8.2188C29.9233 8.2188 29.9254 8.2188 29.9275 8.2188C29.9296 8.2188 29.9316 8.2188 29.9337 8.2188C29.9358 8.2188 29.9379 8.2188 29.94 8.2188C29.9421 8.2188 29.9442 8.2188 29.9463 8.2188C29.9484 8.2188 29.9505 8.2188 29.9526 8.2188C29.9547 8.2188 29.9567 8.2188 29.9588 8.2188C29.9609 8.2188 29.963 8.2188 29.9651 8.2188C29.9672 8.2188 29.9693 8.2188 29.9713 8.2188C29.9734 8.2188 29.9755 8.2188 29.9776 8.2188C29.9797 8.2188 29.9818 8.2188 29.9839 8.2188C29.9859 8.2188 29.988 8.2188 29.9901 8.2188C29.9922 8.2188 29.9943 8.2188 29.9963 8.2188C29.9984 8.2188 30.0005 8.2188 30.0026 8.2188C30.0047 8.2188 30.0067 8.2188 30.0088 8.2188C30.0109 8.2188 30.013 8.2188 30.015 8.2188C30.0171 8.2188 30.0192 8.2188 30.0213 8.2188C30.0233 8.2188 30.0254 8.2188 30.0275 8.2188C30.0296 8.2188 30.0316 8.2188 30.0337 8.2188C30.0358 8.2188 30.0379 8.2188 30.0399 8.2188C30.042 8.2188 30.0441 8.2188 30.0461 8.2188C30.0482 8.2188 30.0503 8.2188 30.0523 8.2188C30.0544 8.2188 30.0565 8.2188 30.0585 8.2188C30.0606 8.2188 30.0627 8.2188 30.0647 8.2188C30.0668 8.2188 30.0688 8.2188 30.0709 8.2188C30.073 8.2188 30.075 8.2188 30.0771 8.2188C30.0791 8.2188 30.0812 8.2188 30.0833 8.2188C30.0853 8.2188 30.0874 8.2188 30.0894 8.2188C30.0915 8.2188 30.0935 8.2188 30.0956 8.2188C30.0976 8.2188 30.0997 8.2188 30.1018 8.2188C30.1038 8.2188 30.1059 8.2188 30.1079 8.2188C30.11 8.2188 30.112 8.2188 30.114 8.2188C30.1161 8.2188 30.1181 8.2188 30.1202 8.2188C30.1222 8.2188 30.1243 8.2188 30.1263 8.2188C30.1284 8.2188 30.1304 8.2188 30.1325 8.2188C30.1345 8.2188 30.1365 8.2188 30.1386 8.2188C30.1406 8.2188 30.1427 8.2188 30.1447 8.2188C30.1467 8.2188 30.1488 8.2188 30.1508 8.2188C30.1528 8.2188 30.1549 8.2188 30.1569 8.2188C30.1589 8.2188 30.161 8.2188 30.163 8.2188C30.165 8.2188 30.1671 8.2188 30.1691 8.2188C30.1711 8.2188 30.1731 8.2188 30.1752 8.2188C30.1772 8.2188 30.1792 8.2188 30.1812 8.2188C30.1833 8.2188 30.1853 8.2188 30.1873 8.2188C30.1893 8.2188 30.1913 8.2188 30.1934 8.2188C30.1954 8.2188 30.1974 8.2188 30.1994 8.2188C30.2014 8.2188 30.2034 8.2188 30.2055 8.2188C30.2075 8.2188 30.2095 8.2188 30.2115 8.2188C30.2135 8.2188 30.2155 8.2188 30.2175 8.2188C30.2195 8.2188 30.2215 8.2188 30.2235 8.2188C30.2255 8.2188 30.2276 8.2188 30.2296 8.2188C30.2316 8.2188 30.2336 8.2188 30.2356 8.2188C30.2376 8.2188 30.2396 8.2188 30.2416 8.2188C30.2436 8.2188 30.2456 8.2188 30.2475 8.2188C30.2495 8.2188 30.2515 8.2188 30.2535 8.2188C30.2555 8.2188 30.2575 8.2188 30.2595 8.2188C30.2615 8.2188 30.2635 8.2188 30.2655 8.2188C30.2675 8.2188 30.2694 8.2188 30.2714 8.2188C30.2734 8.2188 30.2754 8.2188 30.2774 8.2188C30.2793 8.2188 30.2813 8.2188 30.2833 8.2188C30.2853 8.2188 30.2873 8.2188 30.2892 8.2188C30.2912 8.2188 30.2932 8.2188 30.2952 8.2188C30.2971 8.2188 30.2991 8.2188 30.3011 8.2188C30.303 8.2188 30.305 8.2188 30.307 8.2188C30.3089 8.2188 30.3109 8.2188 30.3129 8.2188C30.3148 8.2188 30.3168 8.2188 30.3187 8.2188C30.3207 8.2188 30.3227 8.2188 30.3246 8.2188C30.3266 8.2188 30.3285 8.2188 30.3305 8.2188C30.3324 8.2188 30.3344 8.2188 30.3363 8.2188C30.3383 8.2188 30.3402 8.2188 30.3422 8.2188C30.3441 8.2188 30.3461 8.2188 30.348 8.2188C30.35 8.2188 30.3519 8.2188 30.3538 8.2188C30.3558 8.2188 30.3577 8.2188 30.3597 8.2188C30.3616 8.2188 30.3635 8.2188 30.3655 8.2188C30.3674 8.2188 30.3693 8.2188 30.3713 8.2188C30.3732 8.2188 30.3751 8.2188 30.377 8.2188C30.379 8.2188 30.3809 8.2188 30.3828 8.2188C30.3847 8.2188 30.3867 8.2188 30.3886 8.2188C30.3905 8.2188 30.3924 8.2188 30.3943 8.2188C30.3962 8.2188 30.3982 8.2188 30.4001 8.2188C30.402 8.2188 30.4039 8.2188 30.4058 8.2188C30.4077 8.2188 30.4096 8.2188 30.4115 8.2188C30.4134 8.2188 30.4153 8.2188 30.4172 8.2188C30.4191 8.2188 30.421 8.2188 30.4229 8.2188C30.4248 8.2188 30.4267 8.2188 30.4286 8.2188C30.4305 8.2188 30.4324 8.2188 30.4343 8.2188C30.4362 8.2188 30.4381 8.2188 30.4399 8.2188C30.4418 8.2188 30.4437 8.2188 30.4456 8.2188C30.4475 8.2188 30.4494 8.2188 30.4512 8.2188C30.4531 8.2188 30.455 8.2188 30.4569 8.2188C30.4587 8.2188 30.4606 8.2188 30.4625 8.2188C30.4644 8.2188 30.4662 8.2188 30.4681 8.2188C30.47 8.2188 30.4718 8.2188 30.4737 8.2188C30.4755 8.2188 30.4774 8.2188 30.4793 8.2188C30.4811 8.2188 30.483 8.2188 30.4848 8.2188C30.4867 8.2188 30.4885 8.2188 30.4904 8.2188C30.4922 8.2188 30.4941 8.2188 30.4959 8.2188C30.4978 8.2188 30.4996 8.2188 30.5015 8.2188C30.5033 8.2188 30.5051 8.2188 30.507 8.2188C30.5088 8.2188 30.5107 8.2188 30.5125 8.2188C30.5143 8.2188 30.5162 8.2188 30.518 8.2188C30.5198 8.2188 30.5216 8.2188 30.5235 8.2188C30.5253 8.2188 30.5271 8.2188 30.5289 8.2188C30.5307 8.2188 30.5326 8.2188 30.5344 8.2188C30.5362 8.2188 30.538 8.2188 30.5398 8.2188C30.5416 8.2188 30.5434 8.2188 30.5452 8.2188C30.5471 8.2188 30.5489 8.2188 30.5507 8.2188C30.5525 8.2188 30.5543 8.2188 30.5561 8.2188C30.5579 8.2188 30.5597 8.2188 30.5614 8.2188C30.5632 8.2188 30.565 8.2188 30.5668 8.2188C30.5686 8.2188 30.5704 8.2188 30.5722 8.2188C30.574 8.2188 30.5757 8.2188 30.5775 8.2188C30.5793 8.2188 30.5811 8.2188 30.5829 8.2188C30.5846 8.2188 30.5864 8.2188 30.5882 8.2188C30.5899 8.2188 30.5917 8.2188 30.5935 8.2188C30.5952 8.2188 30.597 8.2188 30.5988 8.2188C30.6005 8.2188 30.6023 8.2188 30.604 8.2188C30.6058 8.2188 30.6075 8.2188 30.6093 8.2188C30.611 8.2188 30.6128 8.2188 30.6145 8.2188C30.6163 8.2188 30.618 8.2188 30.6198 8.2188C30.6215 8.2188 30.6233 8.2188 30.625 8.2188C30.6267 8.2188 30.6285 8.2188 30.6302 8.2188C30.6319 8.2188 30.6336 8.2188 30.6354 8.2188C30.6371 8.2188 30.6388 8.2188 30.6405 8.2188C30.6423 8.2188 30.644 8.2188 30.6457 8.2188C30.6474 8.2188 30.6491 8.2188 30.6508 8.2188C30.6525 8.2188 30.6543 8.2188 30.656 8.2188C30.6577 8.2188 30.6594 8.2188 30.6611 8.2188C30.6628 8.2188 30.6645 8.2188 30.6662 8.2188C30.6679 8.2188 30.6696 8.2188 30.6712 8.2188C30.6729 8.2188 30.6746 8.2188 30.6763 8.2188C30.678 8.2188 30.6797 8.2188 30.6814 8.2188C30.683 8.2188 30.6847 8.2188 30.6864 8.2188C30.6881 8.2188 30.6897 8.2188 30.6914 8.2188C30.6931 8.2188 30.6947 8.2188 30.6964 8.2188C30.6981 8.2188 30.6997 8.2188 30.7014 8.2188C30.703 8.2188 30.7047 8.2188 30.7063 8.2188C30.708 8.2188 30.7096 8.2188 30.7113 8.2188C30.7129 8.2188 30.7146 8.2188 30.7162 8.2188C30.7179 8.2188 30.7195 8.2188 30.7211 8.2188C30.7228 8.2188 30.7244 8.2188 30.726 8.2188C30.7277 8.2188 30.7293 8.2188 30.7309 8.2188C30.7325 8.2188 30.7342 8.2188 30.7358 8.2188C30.7374 8.2188 30.739 8.2188 30.7406 8.2188C30.7422 8.2188 30.7438 8.2188 30.7455 8.2188C30.7471 8.2188 30.7487 8.2188 30.7503 8.2188C30.7519 8.2188 30.7535 8.2188 30.7551 8.2188C30.7567 8.2188 30.7582 8.2188 30.7598 8.2188C30.7614 8.2188 30.763 8.2188 30.7646 8.2188C30.7662 8.2188 30.7678 8.2188 30.7693 8.2188C30.7709 8.2188 30.7725 8.2188 30.7741 8.2188C30.7756 8.2188 30.7772 8.2188 30.7788 8.2188C30.7803 8.2188 30.7819 8.2188 30.7835 8.2188C30.785 8.2188 30.7866 8.2188 30.7881 8.2188C30.7897 8.2188 30.7912 8.2188 30.7928 8.2188C30.7943 8.2188 30.7959 8.2188 30.7974 8.2188C30.799 8.2188 30.8005 8.2188 30.802 8.2188C30.8036 8.2188 30.8051 8.2188 30.8066 8.2188C30.8082 8.2188 30.8097 8.2188 30.8112 8.2188C30.8127 8.2188 30.8143 8.2188 30.8158 8.2188C30.8173 8.2188 30.8188 8.2188 30.8203 8.2188V6.2188C30.8188 6.2188 30.8173 6.2188 30.8158 6.2188C30.8143 6.2188 30.8127 6.2188 30.8112 6.2188C30.8097 6.2188 30.8082 6.2188 30.8066 6.2188C30.8051 6.2188 30.8036 6.2188 30.802 6.2188C30.8005 6.2188 30.799 6.2188 30.7974 6.2188C30.7959 6.2188 30.7943 6.2188 30.7928 6.2188C30.7912 6.2188 30.7897 6.2188 30.7881 6.2188C30.7866 6.2188 30.785 6.2188 30.7835 6.2188C30.7819 6.2188 30.7803 6.2188 30.7788 6.2188C30.7772 6.2188 30.7756 6.2188 30.7741 6.2188C30.7725 6.2188 30.7709 6.2188 30.7693 6.2188C30.7678 6.2188 30.7662 6.2188 30.7646 6.2188C30.763 6.2188 30.7614 6.2188 30.7598 6.2188C30.7582 6.2188 30.7567 6.2188 30.7551 6.2188C30.7535 6.2188 30.7519 6.2188 30.7503 6.2188C30.7487 6.2188 30.7471 6.2188 30.7455 6.2188C30.7438 6.2188 30.7422 6.2188 30.7406 6.2188C30.739 6.2188 30.7374 6.2188 30.7358 6.2188C30.7342 6.2188 30.7325 6.2188 30.7309 6.2188C30.7293 6.2188 30.7277 6.2188 30.726 6.2188C30.7244 6.2188 30.7228 6.2188 30.7211 6.2188C30.7195 6.2188 30.7179 6.2188 30.7162 6.2188C30.7146 6.2188 30.7129 6.2188 30.7113 6.2188C30.7096 6.2188 30.708 6.2188 30.7063 6.2188C30.7047 6.2188 30.703 6.2188 30.7014 6.2188C30.6997 6.2188 30.6981 6.2188 30.6964 6.2188C30.6947 6.2188 30.6931 6.2188 30.6914 6.2188C30.6897 6.2188 30.6881 6.2188 30.6864 6.2188C30.6847 6.2188 30.683 6.2188 30.6814 6.2188C30.6797 6.2188 30.678 6.2188 30.6763 6.2188C30.6746 6.2188 30.6729 6.2188 30.6712 6.2188C30.6696 6.2188 30.6679 6.2188 30.6662 6.2188C30.6645 6.2188 30.6628 6.2188 30.6611 6.2188C30.6594 6.2188 30.6577 6.2188 30.656 6.2188C30.6543 6.2188 30.6525 6.2188 30.6508 6.2188C30.6491 6.2188 30.6474 6.2188 30.6457 6.2188C30.644 6.2188 30.6423 6.2188 30.6405 6.2188C30.6388 6.2188 30.6371 6.2188 30.6354 6.2188C30.6336 6.2188 30.6319 6.2188 30.6302 6.2188C30.6285 6.2188 30.6267 6.2188 30.625 6.2188C30.6233 6.2188 30.6215 6.2188 30.6198 6.2188C30.618 6.2188 30.6163 6.2188 30.6145 6.2188C30.6128 6.2188 30.611 6.2188 30.6093 6.2188C30.6075 6.2188 30.6058 6.2188 30.604 6.2188C30.6023 6.2188 30.6005 6.2188 30.5988 6.2188C30.597 6.2188 30.5952 6.2188 30.5935 6.2188C30.5917 6.2188 30.5899 6.2188 30.5882 6.2188C30.5864 6.2188 30.5846 6.2188 30.5829 6.2188C30.5811 6.2188 30.5793 6.2188 30.5775 6.2188C30.5757 6.2188 30.574 6.2188 30.5722 6.2188C30.5704 6.2188 30.5686 6.2188 30.5668 6.2188C30.565 6.2188 30.5632 6.2188 30.5614 6.2188C30.5597 6.2188 30.5579 6.2188 30.5561 6.2188C30.5543 6.2188 30.5525 6.2188 30.5507 6.2188C30.5489 6.2188 30.5471 6.2188 30.5452 6.2188C30.5434 6.2188 30.5416 6.2188 30.5398 6.2188C30.538 6.2188 30.5362 6.2188 30.5344 6.2188C30.5326 6.2188 30.5307 6.2188 30.5289 6.2188C30.5271 6.2188 30.5253 6.2188 30.5235 6.2188C30.5216 6.2188 30.5198 6.2188 30.518 6.2188C30.5162 6.2188 30.5143 6.2188 30.5125 6.2188C30.5107 6.2188 30.5088 6.2188 30.507 6.2188C30.5051 6.2188 30.5033 6.2188 30.5015 6.2188C30.4996 6.2188 30.4978 6.2188 30.4959 6.2188C30.4941 6.2188 30.4922 6.2188 30.4904 6.2188C30.4885 6.2188 30.4867 6.2188 30.4848 6.2188C30.483 6.2188 30.4811 6.2188 30.4793 6.2188C30.4774 6.2188 30.4755 6.2188 30.4737 6.2188C30.4718 6.2188 30.47 6.2188 30.4681 6.2188C30.4662 6.2188 30.4644 6.2188 30.4625 6.2188C30.4606 6.2188 30.4587 6.2188 30.4569 6.2188C30.455 6.2188 30.4531 6.2188 30.4512 6.2188C30.4494 6.2188 30.4475 6.2188 30.4456 6.2188C30.4437 6.2188 30.4418 6.2188 30.4399 6.2188C30.4381 6.2188 30.4362 6.2188 30.4343 6.2188C30.4324 6.2188 30.4305 6.2188 30.4286 6.2188C30.4267 6.2188 30.4248 6.2188 30.4229 6.2188C30.421 6.2188 30.4191 6.2188 30.4172 6.2188C30.4153 6.2188 30.4134 6.2188 30.4115 6.2188C30.4096 6.2188 30.4077 6.2188 30.4058 6.2188C30.4039 6.2188 30.402 6.2188 30.4001 6.2188C30.3982 6.2188 30.3962 6.2188 30.3943 6.2188C30.3924 6.2188 30.3905 6.2188 30.3886 6.2188C30.3867 6.2188 30.3847 6.2188 30.3828 6.2188C30.3809 6.2188 30.379 6.2188 30.377 6.2188C30.3751 6.2188 30.3732 6.2188 30.3713 6.2188C30.3693 6.2188 30.3674 6.2188 30.3655 6.2188C30.3635 6.2188 30.3616 6.2188 30.3597 6.2188C30.3577 6.2188 30.3558 6.2188 30.3538 6.2188C30.3519 6.2188 30.35 6.2188 30.348 6.2188C30.3461 6.2188 30.3441 6.2188 30.3422 6.2188C30.3402 6.2188 30.3383 6.2188 30.3363 6.2188C30.3344 6.2188 30.3324 6.2188 30.3305 6.2188C30.3285 6.2188 30.3266 6.2188 30.3246 6.2188C30.3227 6.2188 30.3207 6.2188 30.3187 6.2188C30.3168 6.2188 30.3148 6.2188 30.3129 6.2188C30.3109 6.2188 30.3089 6.2188 30.307 6.2188C30.305 6.2188 30.303 6.2188 30.3011 6.2188C30.2991 6.2188 30.2971 6.2188 30.2952 6.2188C30.2932 6.2188 30.2912 6.2188 30.2892 6.2188C30.2873 6.2188 30.2853 6.2188 30.2833 6.2188C30.2813 6.2188 30.2793 6.2188 30.2774 6.2188C30.2754 6.2188 30.2734 6.2188 30.2714 6.2188C30.2694 6.2188 30.2675 6.2188 30.2655 6.2188C30.2635 6.2188 30.2615 6.2188 30.2595 6.2188C30.2575 6.2188 30.2555 6.2188 30.2535 6.2188C30.2515 6.2188 30.2495 6.2188 30.2475 6.2188C30.2456 6.2188 30.2436 6.2188 30.2416 6.2188C30.2396 6.2188 30.2376 6.2188 30.2356 6.2188C30.2336 6.2188 30.2316 6.2188 30.2296 6.2188C30.2276 6.2188 30.2255 6.2188 30.2235 6.2188C30.2215 6.2188 30.2195 6.2188 30.2175 6.2188C30.2155 6.2188 30.2135 6.2188 30.2115 6.2188C30.2095 6.2188 30.2075 6.2188 30.2055 6.2188C30.2034 6.2188 30.2014 6.2188 30.1994 6.2188C30.1974 6.2188 30.1954 6.2188 30.1934 6.2188C30.1913 6.2188 30.1893 6.2188 30.1873 6.2188C30.1853 6.2188 30.1833 6.2188 30.1812 6.2188C30.1792 6.2188 30.1772 6.2188 30.1752 6.2188C30.1731 6.2188 30.1711 6.2188 30.1691 6.2188C30.1671 6.2188 30.165 6.2188 30.163 6.2188C30.161 6.2188 30.1589 6.2188 30.1569 6.2188C30.1549 6.2188 30.1528 6.2188 30.1508 6.2188C30.1488 6.2188 30.1467 6.2188 30.1447 6.2188C30.1427 6.2188 30.1406 6.2188 30.1386 6.2188C30.1365 6.2188 30.1345 6.2188 30.1325 6.2188C30.1304 6.2188 30.1284 6.2188 30.1263 6.2188C30.1243 6.2188 30.1222 6.2188 30.1202 6.2188C30.1181 6.2188 30.1161 6.2188 30.114 6.2188C30.112 6.2188 30.11 6.2188 30.1079 6.2188C30.1059 6.2188 30.1038 6.2188 30.1018 6.2188C30.0997 6.2188 30.0976 6.2188 30.0956 6.2188C30.0935 6.2188 30.0915 6.2188 30.0894 6.2188C30.0874 6.2188 30.0853 6.2188 30.0833 6.2188C30.0812 6.2188 30.0791 6.2188 30.0771 6.2188C30.075 6.2188 30.073 6.2188 30.0709 6.2188C30.0688 6.2188 30.0668 6.2188 30.0647 6.2188C30.0627 6.2188 30.0606 6.2188 30.0585 6.2188C30.0565 6.2188 30.0544 6.2188 30.0523 6.2188C30.0503 6.2188 30.0482 6.2188 30.0461 6.2188C30.0441 6.2188 30.042 6.2188 30.0399 6.2188C30.0379 6.2188 30.0358 6.2188 30.0337 6.2188C30.0316 6.2188 30.0296 6.2188 30.0275 6.2188C30.0254 6.2188 30.0233 6.2188 30.0213 6.2188C30.0192 6.2188 30.0171 6.2188 30.015 6.2188C30.013 6.2188 30.0109 6.2188 30.0088 6.2188C30.0067 6.2188 30.0047 6.2188 30.0026 6.2188C30.0005 6.2188 29.9984 6.2188 29.9963 6.2188C29.9943 6.2188 29.9922 6.2188 29.9901 6.2188C29.988 6.2188 29.9859 6.2188 29.9839 6.2188C29.9818 6.2188 29.9797 6.2188 29.9776 6.2188C29.9755 6.2188 29.9734 6.2188 29.9713 6.2188C29.9693 6.2188 29.9672 6.2188 29.9651 6.2188C29.963 6.2188 29.9609 6.2188 29.9588 6.2188C29.9567 6.2188 29.9547 6.2188 29.9526 6.2188C29.9505 6.2188 29.9484 6.2188 29.9463 6.2188C29.9442 6.2188 29.9421 6.2188 29.94 6.2188C29.9379 6.2188 29.9358 6.2188 29.9337 6.2188C29.9316 6.2188 29.9296 6.2188 29.9275 6.2188C29.9254 6.2188 29.9233 6.2188 29.9212 6.2188C29.9191 6.2188 29.917 6.2188 29.9149 6.2188C29.9128 6.2188 29.9107 6.2188 29.9086 6.2188C29.9065 6.2188 29.9044 6.2188 29.9023 6.2188C29.9002 6.2188 29.8981 6.2188 29.896 6.2188C29.8939 6.2188 29.8918 6.2188 29.8897 6.2188C29.8876 6.2188 29.8855 6.2188 29.8834 6.2188C29.8813 6.2188 29.8792 6.2188 29.8771 6.2188C29.875 6.2188 29.8729 6.2188 29.8708 6.2188C29.8687 6.2188 29.8666 6.2188 29.8645 6.2188C29.8624 6.2188 29.8603 6.2188 29.8582 6.2188C29.8561 6.2188 29.854 6.2188 29.8519 6.2188C29.8498 6.2188 29.8477 6.2188 29.8456 6.2188C29.8435 6.2188 29.8414 6.2188 29.8393 6.2188C29.8372 6.2188 29.8351 6.2188 29.8329 6.2188C29.8308 6.2188 29.8287 6.2188 29.8266 6.2188C29.8245 6.2188 29.8224 6.2188 29.8203 6.2188C29.8182 6.2188 29.8161 6.2188 29.814 6.2188C29.8119 6.2188 29.8098 6.2188 29.8077 6.2188C29.8056 6.2188 29.8034 6.2188 29.8013 6.2188C29.7992 6.2188 29.7971 6.2188 29.795 6.2188C29.7929 6.2188 29.7908 6.2188 29.7887 6.2188C29.7866 6.2188 29.7845 6.2188 29.7824 6.2188C29.7803 6.2188 29.7781 6.2188 29.776 6.2188C29.7739 6.2188 29.7718 6.2188 29.7697 6.2188C29.7676 6.2188 29.7655 6.2188 29.7634 6.2188C29.7613 6.2188 29.7592 6.2188 29.7571 6.2188C29.7549 6.2188 29.7528 6.2188 29.7507 6.2188C29.7486 6.2188 29.7465 6.2188 29.7444 6.2188C29.7423 6.2188 29.7402 6.2188 29.7381 6.2188C29.736 6.2188 29.7338 6.2188 29.7317 6.2188C29.7296 6.2188 29.7275 6.2188 29.7254 6.2188C29.7233 6.2188 29.7212 6.2188 29.7191 6.2188C29.717 6.2188 29.7148 6.2188 29.7127 6.2188C29.7106 6.2188 29.7085 6.2188 29.7064 6.2188C29.7043 6.2188 29.7022 6.2188 29.7001 6.2188C29.698 6.2188 29.6959 6.2188 29.6938 6.2188C29.6916 6.2188 29.6895 6.2188 29.6874 6.2188C29.6853 6.2188 29.6832 6.2188 29.6811 6.2188C29.679 6.2188 29.6769 6.2188 29.6748 6.2188C29.6727 6.2188 29.6705 6.2188 29.6684 6.2188C29.6663 6.2188 29.6642 6.2188 29.6621 6.2188C29.66 6.2188 29.6579 6.2188 29.6558 6.2188C29.6537 6.2188 29.6516 6.2188 29.6495 6.2188C29.6474 6.2188 29.6453 6.2188 29.6431 6.2188C29.641 6.2188 29.6389 6.2188 29.6368 6.2188C29.6347 6.2188 29.6326 6.2188 29.6305 6.2188C29.6284 6.2188 29.6263 6.2188 29.6242 6.2188C29.6221 6.2188 29.62 6.2188 29.6179 6.2188C29.6158 6.2188 29.6137 6.2188 29.6116 6.2188C29.6095 6.2188 29.6073 6.2188 29.6052 6.2188C29.6031 6.2188 29.601 6.2188 29.5989 6.2188C29.5968 6.2188 29.5947 6.2188 29.5926 6.2188C29.5905 6.2188 29.5884 6.2188 29.5863 6.2188C29.5842 6.2188 29.5821 6.2188 29.58 6.2188C29.5779 6.2188 29.5758 6.2188 29.5737 6.2188C29.5716 6.2188 29.5695 6.2188 29.5674 6.2188C29.5653 6.2188 29.5632 6.2188 29.5611 6.2188C29.559 6.2188 29.5569 6.2188 29.5548 6.2188C29.5527 6.2188 29.5506 6.2188 29.5485 6.2188C29.5464 6.2188 29.5443 6.2188 29.5422 6.2188C29.5401 6.2188 29.538 6.2188 29.536 6.2188C29.5339 6.2188 29.5318 6.2188 29.5297 6.2188C29.5276 6.2188 29.5255 6.2188 29.5234 6.2188C29.5213 6.2188 29.5192 6.2188 29.5171 6.2188C29.515 6.2188 29.5129 6.2188 29.5108 6.2188C29.5087 6.2188 29.5067 6.2188 29.5046 6.2188C29.5025 6.2188 29.5004 6.2188 29.4983 6.2188C29.4962 6.2188 29.4941 6.2188 29.492 6.2188C29.49 6.2188 29.4879 6.2188 29.4858 6.2188C29.4837 6.2188 29.4816 6.2188 29.4795 6.2188C29.4774 6.2188 29.4754 6.2188 29.4733 6.2188C29.4712 6.2188 29.4691 6.2188 29.467 6.2188C29.4649 6.2188 29.4629 6.2188 29.4608 6.2188C29.4587 6.2188 29.4566 6.2188 29.4545 6.2188C29.4525 6.2188 29.4504 6.2188 29.4483 6.2188C29.4462 6.2188 29.4442 6.2188 29.4421 6.2188C29.44 6.2188 29.4379 6.2188 29.4359 6.2188C29.4338 6.2188 29.4317 6.2188 29.4296 6.2188C29.4276 6.2188 29.4255 6.2188 29.4234 6.2188C29.4213 6.2188 29.4193 6.2188 29.4172 6.2188C29.4151 6.2188 29.4131 6.2188 29.411 6.2188C29.4089 6.2188 29.4069 6.2188 29.4048 6.2188C29.4027 6.2188 29.4007 6.2188 29.3986 6.2188C29.3965 6.2188 29.3945 6.2188 29.3924 6.2188C29.3903 6.2188 29.3883 6.2188 29.3862 6.2188C29.3842 6.2188 29.3821 6.2188 29.38 6.2188C29.378 6.2188 29.3759 6.2188 29.3739 6.2188C29.3718 6.2188 29.3698 6.2188 29.3677 6.2188C29.3656 6.2188 29.3636 6.2188 29.3615 6.2188C29.3595 6.2188 29.3574 6.2188 29.3554 6.2188C29.3533 6.2188 29.3513 6.2188 29.3492 6.2188C29.3472 6.2188 29.3451 6.2188 29.3431 6.2188C29.341 6.2188 29.339 6.2188 29.3369 6.2188C29.3349 6.2188 29.3328 6.2188 29.3308 6.2188C29.3288 6.2188 29.3267 6.2188 29.3247 6.2188C29.3226 6.2188 29.3206 6.2188 29.3186 6.2188C29.3165 6.2188 29.3145 6.2188 29.3124 6.2188C29.3104 6.2188 29.3084 6.2188 29.3063 6.2188C29.3043 6.2188 29.3023 6.2188 29.3002 6.2188C29.2982 6.2188 29.2962 6.2188 29.2941 6.2188C29.2921 6.2188 29.2901 6.2188 29.288 6.2188C29.286 6.2188 29.284 6.2188 29.282 6.2188C29.2799 6.2188 29.2779 6.2188 29.2759 6.2188C29.2739 6.2188 29.2718 6.2188 29.2698 6.2188C29.2678 6.2188 29.2658 6.2188 29.2638 6.2188C29.2617 6.2188 29.2597 6.2188 29.2577 6.2188C29.2557 6.2188 29.2537 6.2188 29.2517 6.2188C29.2497 6.2188 29.2476 6.2188 29.2456 6.2188C29.2436 6.2188 29.2416 6.2188 29.2396 6.2188C29.2376 6.2188 29.2356 6.2188 29.2336 6.2188C29.2316 6.2188 29.2296 6.2188 29.2276 6.2188C29.2256 6.2188 29.2236 6.2188 29.2216 6.2188C29.2196 6.2188 29.2176 6.2188 29.2156 6.2188C29.2136 6.2188 29.2116 6.2188 29.2096 6.2188C29.2076 6.2188 29.2056 6.2188 29.2036 6.2188C29.2016 6.2188 29.1996 6.2188 29.1976 6.2188C29.1956 6.2188 29.1936 6.2188 29.1917 6.2188C29.1897 6.2188 29.1877 6.2188 29.1857 6.2188C29.1837 6.2188 29.1817 6.2188 29.1798 6.2188C29.1778 6.2188 29.1758 6.2188 29.1738 6.2188C29.1718 6.2188 29.1699 6.2188 29.1679 6.2188C29.1659 6.2188 29.1639 6.2188 29.162 6.2188C29.16 6.2188 29.158 6.2188 29.1561 6.2188C29.1541 6.2188 29.1521 6.2188 29.1502 6.2188C29.1482 6.2188 29.1462 6.2188 29.1443 6.2188C29.1423 6.2188 29.1403 6.2188 29.1384 6.2188C29.1364 6.2188 29.1345 6.2188 29.1325 6.2188C29.1306 6.2188 29.1286 6.2188 29.1266 6.2188C29.1247 6.2188 29.1227 6.2188 29.1208 6.2188C29.1188 6.2188 29.1169 6.2188 29.1149 6.2188C29.113 6.2188 29.1111 6.2188 29.1091 6.2188C29.1072 6.2188 29.1052 6.2188 29.1033 6.2188C29.1013 6.2188 29.0994 6.2188 29.0975 6.2188C29.0955 6.2188 29.0936 6.2188 29.0917 6.2188C29.0897 6.2188 29.0878 6.2188 29.0859 6.2188C29.0839 6.2188 29.082 6.2188 29.0801 6.2188C29.0782 6.2188 29.0762 6.2188 29.0743 6.2188C29.0724 6.2188 29.0705 6.2188 29.0685 6.2188C29.0666 6.2188 29.0647 6.2188 29.0628 6.2188C29.0609 6.2188 29.059 6.2188 29.0571 6.2188C29.0551 6.2188 29.0532 6.2188 29.0513 6.2188C29.0494 6.2188 29.0475 6.2188 29.0456 6.2188C29.0437 6.2188 29.0418 6.2188 29.0399 6.2188C29.038 6.2188 29.0361 6.2188 29.0342 6.2188C29.0323 6.2188 29.0304 6.2188 29.0285 6.2188C29.0266 6.2188 29.0247 6.2188 29.0228 6.2188C29.0209 6.2188 29.0191 6.2188 29.0172 6.2188C29.0153 6.2188 29.0134 6.2188 29.0115 6.2188C29.0096 6.2188 29.0078 6.2188 29.0059 6.2188C29.004 6.2188 29.0021 6.2188 29.0002 6.2188C28.9984 6.2188 28.9965 6.2188 28.9946 6.2188C28.9928 6.2188 28.9909 6.2188 28.989 6.2188C28.9872 6.2188 28.9853 6.2188 28.9834 6.2188C28.9816 6.2188 28.9797 6.2188 28.9779 6.2188C28.976 6.2188 28.9741 6.2188 28.9723 6.2188C28.9704 6.2188 28.9686 6.2188 28.9667 6.2188C28.9649 6.2188 28.963 6.2188 28.9612 6.2188C28.9593 6.2188 28.9575 6.2188 28.9557 6.2188C28.9538 6.2188 28.952 6.2188 28.9501 6.2188C28.9483 6.2188 28.9465 6.2188 28.9446 6.2188C28.9428 6.2188 28.941 6.2188 28.9391 6.2188C28.9373 6.2188 28.9355 6.2188 28.9337 6.2188C28.9318 6.2188 28.93 6.2188 28.9282 6.2188C28.9264 6.2188 28.9245 6.2188 28.9227 6.2188C28.9209 6.2188 28.9191 6.2188 28.9173 6.2188C28.9155 6.2188 28.9137 6.2188 28.9119 6.2188C28.9101 6.2188 28.9083 6.2188 28.9064 6.2188C28.9046 6.2188 28.9028 6.2188 28.901 6.2188C28.8993 6.2188 28.8975 6.2188 28.8957 6.2188C28.8939 6.2188 28.8921 6.2188 28.8903 6.2188C28.8885 6.2188 28.8867 6.2188 28.8849 6.2188C28.8831 6.2188 28.8814 6.2188 28.8796 6.2188C28.8778 6.2188 28.876 6.2188 28.8743 6.2188C28.8725 6.2188 28.8707 6.2188 28.8689 6.2188C28.8672 6.2188 28.8654 6.2188 28.8636 6.2188C28.8619 6.2188 28.8601 6.2188 28.8583 6.2188C28.8566 6.2188 28.8548 6.2188 28.8531 6.2188C28.8513 6.2188 28.8496 6.2188 28.8478 6.2188C28.8461 6.2188 28.8443 6.2188 28.8426 6.2188C28.8408 6.2188 28.8391 6.2188 28.8373 6.2188C28.8356 6.2188 28.8339 6.2188 28.8321 6.2188C28.8304 6.2188 28.8286 6.2188 28.8269 6.2188C28.8252 6.2188 28.8235 6.2188 28.8217 6.2188C28.82 6.2188 28.8183 6.2188 28.8166 6.2188C28.8148 6.2188 28.8131 6.2188 28.8114 6.2188C28.8097 6.2188 28.808 6.2188 28.8063 6.2188C28.8046 6.2188 28.8028 6.2188 28.8011 6.2188C28.7994 6.2188 28.7977 6.2188 28.796 6.2188C28.7943 6.2188 28.7926 6.2188 28.7909 6.2188C28.7892 6.2188 28.7875 6.2188 28.7859 6.2188C28.7842 6.2188 28.7825 6.2188 28.7808 6.2188C28.7791 6.2188 28.7774 6.2188 28.7758 6.2188C28.7741 6.2188 28.7724 6.2188 28.7707 6.2188C28.769 6.2188 28.7674 6.2188 28.7657 6.2188C28.764 6.2188 28.7624 6.2188 28.7607 6.2188C28.759 6.2188 28.7574 6.2188 28.7557 6.2188C28.7541 6.2188 28.7524 6.2188 28.7508 6.2188C28.7491 6.2188 28.7475 6.2188 28.7458 6.2188C28.7442 6.2188 28.7425 6.2188 28.7409 6.2188C28.7392 6.2188 28.7376 6.2188 28.736 6.2188C28.7343 6.2188 28.7327 6.2188 28.7311 6.2188C28.7294 6.2188 28.7278 6.2188 28.7262 6.2188C28.7246 6.2188 28.7229 6.2188 28.7213 6.2188C28.7197 6.2188 28.7181 6.2188 28.7165 6.2188C28.7149 6.2188 28.7133 6.2188 28.7116 6.2188C28.71 6.2188 28.7084 6.2188 28.7068 6.2188C28.7052 6.2188 28.7036 6.2188 28.702 6.2188C28.7004 6.2188 28.6988 6.2188 28.6973 6.2188C28.6957 6.2188 28.6941 6.2188 28.6925 6.2188C28.6909 6.2188 28.6893 6.2188 28.6878 6.2188C28.6862 6.2188 28.6846 6.2188 28.683 6.2188C28.6815 6.2188 28.6799 6.2188 28.6783 6.2188C28.6768 6.2188 28.6752 6.2188 28.6736 6.2188C28.6721 6.2188 28.6705 6.2188 28.669 6.2188C28.6674 6.2188 28.6659 6.2188 28.6643 6.2188C28.6628 6.2188 28.6612 6.2188 28.6597 6.2188C28.6581 6.2188 28.6566 6.2188 28.6551 6.2188C28.6535 6.2188 28.652 6.2188 28.6505 6.2188C28.6489 6.2188 28.6474 6.2188 28.6459 6.2188C28.6444 6.2188 28.6428 6.2188 28.6413 6.2188C28.6398 6.2188 28.6383 6.2188 28.6368 6.2188C28.6353 6.2188 28.6338 6.2188 28.6323 6.2188C28.6308 6.2188 28.6292 6.2188 28.6278 6.2188C28.6263 6.2188 28.6248 6.2188 28.6233 6.2188C28.6218 6.2188 28.6203 6.2188 28.6188 6.2188C28.6173 6.2188 28.6158 6.2188 28.6144 6.2188C28.6129 6.2188 28.6114 6.2188 28.6099 6.2188C28.6085 6.2188 28.607 6.2188 28.6055 6.2188C28.6041 6.2188 28.6026 6.2188 28.6011 6.2188C28.5997 6.2188 28.5982 6.2188 28.5968 6.2188C28.5953 6.2188 28.5939 6.2188 28.5924 6.2188C28.591 6.2188 28.5895 6.2188 28.5881 6.2188C28.5866 6.2188 28.5852 6.2188 28.5838 6.2188C28.5823 6.2188 28.5809 6.2188 28.5795 6.2188C28.5781 6.2188 28.5766 6.2188 28.5752 6.2188C28.5738 6.2188 28.5724 6.2188 28.571 6.2188C28.5696 6.2188 28.5682 6.2188 28.5667 6.2188C28.5653 6.2188 28.5639 6.2188 28.5625 6.2188C28.5611 6.2188 28.5597 6.2188 28.5584 6.2188C28.557 6.2188 28.5556 6.2188 28.5542 6.2188C28.5528 6.2188 28.5514 6.2188 28.55 6.2188C28.5487 6.2188 28.5473 6.2188 28.5459 6.2188C28.5445 6.2188 28.5432 6.2188 28.5418 6.2188C28.5404 6.2188 28.5391 6.2188 28.5377 6.2188C28.5364 6.2188 28.535 6.2188 28.5337 6.2188C28.5323 6.2188 28.531 6.2188 28.5296 6.2188C28.5283 6.2188 28.5269 6.2188 28.5256 6.2188C28.5243 6.2188 28.5229 6.2188 28.5216 6.2188C28.5203 6.2188 28.519 6.2188 28.5176 6.2188C28.5163 6.2188 28.515 6.2188 28.5137 6.2188C28.5124 6.2188 28.5111 6.2188 28.5098 6.2188C28.5084 6.2188 28.5071 6.2188 28.5058 6.2188C28.5045 6.2188 28.5032 6.2188 28.502 6.2188C28.5007 6.2188 28.4994 6.2188 28.4981 6.2188C28.4968 6.2188 28.4955 6.2188 28.4942 6.2188C28.493 6.2188 28.4917 6.2188 28.4904 6.2188C28.4891 6.2188 28.4879 6.2188 28.4866 6.2188C28.4854 6.2188 28.4841 6.2188 28.4828 6.2188C28.4816 6.2188 28.4803 6.2188 28.4791 6.2188C28.4778 6.2188 28.4766 6.2188 28.4754 6.2188C28.4741 6.2188 28.4729 6.2188 28.4716 6.2188C28.4704 6.2188 28.4692 6.2188 28.468 6.2188C28.4667 6.2188 28.4655 6.2188 28.4643 6.2188C28.4631 6.2188 28.4619 6.2188 28.4607 6.2188C28.4594 6.2188 28.4582 6.2188 28.457 6.2188C28.4558 6.2188 28.4546 6.2188 28.4534 6.2188C28.4523 6.2188 28.4511 6.2188 28.4499 6.2188C28.4487 6.2188 28.4475 6.2188 28.4463 6.2188C28.4452 6.2188 28.444 6.2188 28.4428 6.2188C28.4416 6.2188 28.4405 6.2188 28.4393 6.2188C28.4381 6.2188 28.437 6.2188 28.4358 6.2188C28.4347 6.2188 28.4335 6.2188 28.4324 6.2188C28.4312 6.2188 28.4301 6.2188 28.4289 6.2188C28.4278 6.2188 28.4267 6.2188 28.4255 6.2188C28.4244 6.2188 28.4233 6.2188 28.4222 6.2188C28.421 6.2188 28.4199 6.2188 28.4188 6.2188C28.4177 6.2188 28.4166 6.2188 28.4155 6.2188C28.4144 6.2188 28.4133 6.2188 28.4122 6.2188C28.4111 6.2188 28.41 6.2188 28.4089 6.2188C28.4078 6.2188 28.4067 6.2188 28.4056 6.2188C28.4045 6.2188 28.4035 6.2188 28.4024 6.2188C28.4013 6.2188 28.4002 6.2188 28.3992 6.2188C28.3981 6.2188 28.3971 6.2188 28.396 6.2188C28.3949 6.2188 28.3939 6.2188 28.3928 6.2188C28.3918 6.2188 28.3907 6.2188 28.3897 6.2188C28.3887 6.2188 28.3876 6.2188 28.3866 6.2188C28.3856 6.2188 28.3845 6.2188 28.3835 6.2188C28.3825 6.2188 28.3815 6.2188 28.3805 6.2188C28.3794 6.2188 28.3784 6.2188 28.3774 6.2188C28.3764 6.2188 28.3754 6.2188 28.3744 6.2188C28.3734 6.2188 28.3724 6.2188 28.3714 6.2188C28.3705 6.2188 28.3695 6.2188 28.3685 6.2188C28.3675 6.2188 28.3665 6.2188 28.3656 6.2188C28.3646 6.2188 28.3636 6.2188 28.3627 6.2188C28.3617 6.2188 28.3607 6.2188 28.3598 6.2188C28.3588 6.2188 28.3579 6.2188 28.3569 6.2188C28.356 6.2188 28.355 6.2188 28.3541 6.2188C28.3532 6.2188 28.3522 6.2188 28.3513 6.2188C28.3504 6.2188 28.3495 6.2188 28.3485 6.2188C28.3476 6.2188 28.3467 6.2188 28.3458 6.2188C28.3449 6.2188 28.344 6.2188 28.3431 6.2188C28.3422 6.2188 28.3413 6.2188 28.3404 6.2188C28.3395 6.2188 28.3386 6.2188 28.3377 6.2188C28.3368 6.2188 28.336 6.2188 28.3351 6.2188C28.3342 6.2188 28.3333 6.2188 28.3325 6.2188C28.3316 6.2188 28.3307 6.2188 28.3299 6.2188C28.329 6.2188 28.3282 6.2188 28.3273 6.2188C28.3265 6.2188 28.3256 6.2188 28.3248 6.2188C28.324 6.2188 28.3231 6.2188 28.3223 6.2188C28.3215 6.2188 28.3206 6.2188 28.3198 6.2188C28.319 6.2188 28.3182 6.2188 28.3174 6.2188C28.3166 6.2188 28.3158 6.2188 28.315 6.2188C28.3142 6.2188 28.3134 6.2188 28.3126 6.2188C28.3118 6.2188 28.311 6.2188 28.3102 6.2188C28.3094 6.2188 28.3086 6.2188 28.3079 6.2188C28.3071 6.2188 28.3063 6.2188 28.3056 6.2188C28.3048 6.2188 28.304 6.2188 28.3033 6.2188C28.3025 6.2188 28.3018 6.2188 28.301 6.2188C28.3003 6.2188 28.2996 6.2188 28.2988 6.2188C28.2981 6.2188 28.2974 6.2188 28.2966 6.2188C28.2959 6.2188 28.2952 6.2188 28.2945 6.2188C28.2938 6.2188 28.293 6.2188 28.2923 6.2188C28.2916 6.2188 28.2909 6.2188 28.2902 6.2188C28.2895 6.2188 28.2888 6.2188 28.2882 6.2188C28.2875 6.2188 28.2868 6.2188 28.2861 6.2188C28.2854 6.2188 28.2848 6.2188 28.2841 6.2188C28.2834 6.2188 28.2828 6.2188 28.2821 6.2188C28.2814 6.2188 28.2808 6.2188 28.2801 6.2188C28.2795 6.2188 28.2788 6.2188 28.2782 6.2188C28.2776 6.2188 28.2769 6.2188 28.2763 6.2188C28.2757 6.2188 28.2751 6.2188 28.2744 6.2188C28.2738 6.2188 28.2732 6.2188 28.2726 6.2188C28.272 6.2188 28.2714 6.2188 28.2708 6.2188C28.2702 6.2188 28.2696 6.2188 28.269 6.2188C28.2684 6.2188 28.2678 6.2188 28.2673 6.2188C28.2667 6.2188 28.2661 6.2188 28.2655 6.2188C28.265 6.2188 28.2644 6.2188 28.2638 6.2188C28.2633 6.2188 28.2627 6.2188 28.2622 6.2188C28.2616 6.2188 28.2611 6.2188 28.2606 6.2188C28.26 6.2188 28.2595 6.2188 28.259 6.2188C28.2584 6.2188 28.2579 6.2188 28.2574 6.2188C28.2569 6.2188 28.2564 6.2188 28.2558 6.2188C28.2553 6.2188 28.2548 6.2188 28.2543 6.2188C28.2538 6.2188 28.2534 6.2188 28.2529 6.2188C28.2524 6.2188 28.2519 6.2188 28.2514 6.2188C28.2509 6.2188 28.2505 6.2188 28.25 6.2188C28.2495 6.2188 28.2491 6.2188 28.2486 6.2188C28.2482 6.2188 28.2477 6.2188 28.2473 6.2188C28.2468 6.2188 28.2464 6.2188 28.246 6.2188C28.2455 6.2188 28.2451 6.2188 28.2447 6.2188C28.2442 6.2188 28.2438 6.2188 28.2434 6.2188C28.243 6.2188 28.2426 6.2188 28.2422 6.2188V8.2188Z" fill="url(#paint0_linear)"/>
<defs>
<linearGradient id="paint0_linear" x1="1.97961" y1="1.99878" x2="33.6474" y2="43.2662" gradientUnits="userSpaceOnUse">
<stop stop-color="#00CDFF"/>
<stop offset="0.40625" stop-color="#7744D2"/>
<stop offset="0.697932" stop-color="#FF3C01"/>
<stop offset="1" stop-color="#FFC700"/>
</linearGradient>
</defs>
</svg>
