<svg width="36" height="36" viewBox="0 0 36 36" fill="none" xmlns="http://www.w3.org/2000/svg">
<path d="M31.1257 21.1261H34.4333C34.7463 21.1261 35 21.3765 35 21.6852V31.7484C35 32.0571 34.7463 32.3074 34.4333 32.3074H31.2032M31.1257 21.1261L28.0617 20.1199L27.0667 17.6645V15.815C27.0628 14.5361 26.0847 13.4647 24.7961 13.3274M31.1257 21.1261L31.2032 32.3074M24.7961 13.3274C24.7961 13.2507 24.8 13.1739 24.8 13.0975V4.91328C24.8 4.66623 24.6359 4.44866 24.396 4.37769L13.0627 1.0233C12.9564 0.991908 12.8436 0.991908 12.7373 1.0233L1.40397 4.37769C1.16436 4.44866 1 4.66623 1 4.91328V13.0975C1 13.3568 1.01771 13.6129 1.02712 13.8706C1.0415 14.2481 1.06281 14.6232 1.09684 14.9961C1.10265 15.0597 1.1104 15.1195 1.11676 15.1823C1.81265 22.2806 6.17166 28.5226 12.6468 31.6924C12.8062 31.771 12.9938 31.771 13.1535 31.6924C14.001 31.2726 14.8194 30.797 15.6025 30.2691M24.7961 13.3274C24.5644 13.3274 24.0714 13.3274 23.6606 13.4559C22.6479 13.8108 21.97 14.7548 21.9667 15.815C21.9635 16.8327 22.035 18.0491 22.1689 18.3794L22.8297 20.008H19.5373M15.6025 30.2691C15.7804 30.511 16.005 30.7154 16.2638 30.8707C15.6979 31.5365 15.5742 32.4652 15.9464 33.2528C16.3185 34.04 17.1193 34.5434 18 34.5437H27.6333C27.7454 34.5437 27.8547 34.5109 27.9479 34.4498L31.2032 32.3074M15.6025 30.2691C15.3273 29.9716 15.2078 29.4228 15.1824 29.1856C15.173 29.1084 15.1678 29.0309 15.1667 28.9531C15.1664 28.4267 15.3548 27.9171 15.6987 27.5147C14.8717 27.0315 14.4492 26.0818 14.6487 25.1543M19.5373 20.008C20.7406 17.8785 21.0735 15.8391 21.3961 13.0454C21.6489 10.8566 21.4683 8.82746 21.4 7.4045V7.14953C21.4 6.90003 21.2323 6.68083 20.9891 6.61231L13.0558 4.37605C12.9423 4.34357 12.8209 4.34711 12.7096 4.3867L4.7763 7.18202C4.55052 7.26146 4.4 7.4722 4.4 7.7086V12.4361C4.48593 13.8091 4.77773 16.8085 5.25747 17.822C6.34709 20.8483 8.4256 23.4309 11.166 25.1638L12.5934 26.069C12.7802 26.1875 13.0198 26.1875 13.2066 26.069L14.634 25.1638L14.6487 25.1543M19.5373 20.008H16.3C15.0482 20.008 14.0333 21.0093 14.0333 22.2443C14.0339 22.8154 14.2572 23.3646 14.6567 23.7779C14.8592 24.027 15.141 24.651 14.6487 25.1543M31.6432 9.04211C31.3867 8.73746 31.1111 8.44892 30.8181 8.17813M33.4195 17.9836L33.4201 17.9825C33.541 17.6055 33.6378 17.2214 33.7098 16.8327M26.6422 5.9102C27.0315 6.00875 27.4139 6.13159 27.7874 6.27791M33.3866 12.1374C33.5125 12.5139 33.614 12.898 33.6904 13.287M26.7131 10.5438L26.9153 10.6235C28.723 11.3308 29.9072 13.0579 29.9 14.9764" stroke="url(#paint0_linear)" stroke-width="1.5" stroke-linecap="round"/>
<defs>
<linearGradient id="paint0_linear" x1="1.77982" y1="0.999754" x2="34.5411" y2="34.986" gradientUnits="userSpaceOnUse">
<stop stop-color="#00CDFF"/>
<stop offset="0.40625" stop-color="#7744D2"/>
<stop offset="0.697932" stop-color="#FF3C01"/>
<stop offset="1" stop-color="#FFC700"/>
</linearGradient>
</defs>
</svg>
