<svg width="32" height="28" viewBox="0 0 32 28" fill="none" xmlns="http://www.w3.org/2000/svg">
<path d="M31 6.56601H1M27.875 0.999756H4.125C2.39941 1.00047 1.00073 2.35889 1 4.03482V23.702C1.00073 25.3779 2.39941 26.7363 4.125 26.7371H27.875C29.6006 26.7363 30.9993 25.3779 31 23.702V4.03482C30.9993 2.35889 29.6006 1.00047 27.875 0.999756Z" stroke="url(#paint0_linear)" stroke-width="1.5"/>
<path d="M10.1303 15.7986C11.9313 15.7986 13.3913 14.5023 13.3913 12.9036C13.3913 11.3046 11.9313 10.0085 10.1303 10.0085C8.32955 10.0085 6.86954 11.3046 6.86954 12.9036C6.872 14.5015 8.33053 15.7964 10.1303 15.7986Z" stroke="url(#paint1_linear)" stroke-width="1.5"/>
<path d="M9.80425 17.7294C8.5012 17.7206 7.2506 18.1945 6.3422 19.0413C5.41815 19.8953 4.91306 21.0566 4.91306 22.3184C4.91402 22.6264 5.18931 22.8758 5.52909 22.8767H14.0796C14.4194 22.8758 14.6947 22.6264 14.6957 22.3184C14.6957 21.0566 14.1906 19.8953 13.2665 19.0413C12.3581 18.1945 11.1075 17.7206 9.80425 17.7294Z" stroke="url(#paint2_linear)" stroke-width="1.5"/>
<path d="M18.6087 18.3728H28.3913" stroke="url(#paint3_linear)" stroke-width="1.5" stroke-linecap="round"/>
<path d="M18.6087 21.5896H28.3913" stroke="url(#paint4_linear)" stroke-width="1.5" stroke-linecap="round"/>
<path d="M18.6087 11.9382H28.3913" stroke="url(#paint5_linear)" stroke-width="1.5" stroke-linecap="round"/>
<path d="M18.6087 15.155H28.3913" stroke="url(#paint6_linear)" stroke-width="1.5" stroke-linecap="round"/>
<defs>
<linearGradient id="paint0_linear" x1="1.68807" y1="0.999754" x2="26.4552" y2="30.5466" gradientUnits="userSpaceOnUse">
<stop stop-color="#00CDFF"/>
<stop offset="0.40625" stop-color="#7744D2"/>
<stop offset="0.697932" stop-color="#FF3C01"/>
<stop offset="1" stop-color="#FFC700"/>
</linearGradient>
<linearGradient id="paint1_linear" x1="7.01912" y1="10.0085" x2="12.6211" y2="16.4666" gradientUnits="userSpaceOnUse">
<stop stop-color="#00CDFF"/>
<stop offset="0.40625" stop-color="#7744D2"/>
<stop offset="0.697932" stop-color="#FF3C01"/>
<stop offset="1" stop-color="#FFC700"/>
</linearGradient>
<linearGradient id="paint2_linear" x1="5.13743" y1="17.7292" x2="9.22879" y2="25.6873" gradientUnits="userSpaceOnUse">
<stop stop-color="#00CDFF"/>
<stop offset="0.40625" stop-color="#7744D2"/>
<stop offset="0.697932" stop-color="#FF3C01"/>
<stop offset="1" stop-color="#FFC700"/>
</linearGradient>
<linearGradient id="paint3_linear" x1="18.8331" y1="18.3728" x2="19.0264" y2="20.3082" gradientUnits="userSpaceOnUse">
<stop stop-color="#00CDFF"/>
<stop offset="0.40625" stop-color="#7744D2"/>
<stop offset="0.697932" stop-color="#FF3C01"/>
<stop offset="1" stop-color="#FFC700"/>
</linearGradient>
<linearGradient id="paint4_linear" x1="18.8331" y1="21.5896" x2="19.0264" y2="23.5249" gradientUnits="userSpaceOnUse">
<stop stop-color="#00CDFF"/>
<stop offset="0.40625" stop-color="#7744D2"/>
<stop offset="0.697932" stop-color="#FF3C01"/>
<stop offset="1" stop-color="#FFC700"/>
</linearGradient>
<linearGradient id="paint5_linear" x1="18.8331" y1="11.9382" x2="19.0264" y2="13.8736" gradientUnits="userSpaceOnUse">
<stop stop-color="#00CDFF"/>
<stop offset="0.40625" stop-color="#7744D2"/>
<stop offset="0.697932" stop-color="#FF3C01"/>
<stop offset="1" stop-color="#FFC700"/>
</linearGradient>
<linearGradient id="paint6_linear" x1="18.8331" y1="15.155" x2="19.0264" y2="17.0904" gradientUnits="userSpaceOnUse">
<stop stop-color="#00CDFF"/>
<stop offset="0.40625" stop-color="#7744D2"/>
<stop offset="0.697932" stop-color="#FF3C01"/>
<stop offset="1" stop-color="#FFC700"/>
</linearGradient>
</defs>
</svg>
