<svg width="1305" height="1384" viewBox="0 0 1305 1384" fill="none" xmlns="http://www.w3.org/2000/svg">
<path fill-rule="evenodd" clip-rule="evenodd" d="M333.099 1383.54C274.921 1383.54 215.989 1367.85 162.433 1334.81C4.37814 1237.45 -47.2184 1026.48 47.2831 863.565L640.819 -160.231C701.006 -264.008 809.676 -327.549 926.986 -327.549C1044.3 -327.549 1152.97 -264.008 1213.15 -160.231L1806.74 863.565C1901.19 1026.48 1849.64 1237.45 1691.59 1334.81C1533.53 1432.27 1328.86 1379.09 1234.4 1216.12L926.986 685.941L619.567 1216.12C557.169 1323.83 446.541 1383.54 333.099 1383.54Z" fill="#F7F7F7"/>
<path fill-rule="evenodd" clip-rule="evenodd" d="M1435.33 705.193C1435.33 428.194 1207.74 203.654 926.976 203.654C646.213 203.654 418.622 428.194 418.622 705.193C418.622 982.191 646.213 1206.73 926.976 1206.73C1207.74 1206.73 1435.33 982.191 1435.33 705.193Z" fill="white"/>
<path fill-rule="evenodd" clip-rule="evenodd" d="M1196.37 704.955C1196.37 558.304 1075.89 439.434 927.245 439.434C778.601 439.434 658.116 558.304 658.116 704.955C658.116 851.605 778.601 970.475 927.245 970.475C1075.89 970.475 1196.37 851.605 1196.37 704.955Z" fill="#F7F7F7"/>
</svg>
