<svg width="1120" height="450" viewBox="0 0 1120 450" fill="none" xmlns="http://www.w3.org/2000/svg">
<path fill-rule="evenodd" clip-rule="evenodd" d="M201.225 757.716C166.079 757.716 130.479 748.108 98.1258 727.878C2.64483 668.266 -28.5246 539.085 28.5637 439.33L387.118 -187.549C423.477 -251.094 489.124 -290 559.992 -290C630.859 -290 696.506 -251.094 732.865 -187.549L1091.45 439.33C1148.51 539.085 1117.37 668.266 1021.89 727.878C926.407 787.554 802.761 754.989 745.703 655.202L559.992 330.569L374.28 655.202C336.585 721.156 269.755 757.716 201.225 757.716M867.083 342.358C867.083 172.75 729.595 35.2617 559.986 35.2617C390.377 35.2617 252.889 172.75 252.889 342.358C252.889 511.967 390.377 649.455 559.986 649.455C729.595 649.455 867.083 511.967 867.083 342.358Z" fill="#723ECD"/>
<path fill-rule="evenodd" clip-rule="evenodd" d="M722.729 342.213C722.729 252.418 649.944 179.633 560.148 179.633C470.352 179.633 397.567 252.418 397.567 342.213C397.567 432.009 470.352 504.794 560.148 504.794C649.944 504.794 722.729 432.009 722.729 342.213Z" fill="#723ECD"/>
</svg>
