<svg width="1120" height="1048" viewBox="0 0 1120 1048" fill="none" xmlns="http://www.w3.org/2000/svg">
<g clip-path="url(#clip0)">
<path fill-rule="evenodd" clip-rule="evenodd" d="M201.225 1047.72C166.079 1047.72 130.479 1038.11 98.1258 1017.88C2.64483 958.266 -28.5246 829.085 28.5637 729.33L387.118 102.451C423.477 38.9065 489.124 0 559.992 0C630.859 0 696.506 38.9065 732.865 102.451L1091.45 729.33C1148.51 829.085 1117.37 958.266 1021.89 1017.88C926.407 1077.55 802.761 1044.99 745.703 945.202L559.992 620.569L374.28 945.202C336.585 1011.16 269.755 1047.72 201.225 1047.72ZM867.083 632.358C867.083 462.75 729.595 325.262 559.986 325.262C390.377 325.262 252.889 462.75 252.889 632.358C252.889 801.967 390.377 939.455 559.986 939.455C729.595 939.455 867.083 801.967 867.083 632.358Z" fill="#723ECD"/>
<path fill-rule="evenodd" clip-rule="evenodd" d="M722.729 632.213C722.729 542.418 649.944 469.633 560.148 469.633C470.352 469.633 397.567 542.418 397.567 632.213C397.567 722.009 470.352 794.794 560.148 794.794C649.944 794.794 722.729 722.009 722.729 632.213Z" fill="#723ECD"/>
</g>
<defs>
<clipPath id="clip0">
<rect width="1120" height="1047.74" fill="white"/>
</clipPath>
</defs>
</svg>
