<svg width="26" height="17" viewBox="0 0 26 17" fill="none" xmlns="http://www.w3.org/2000/svg">
<path d="M13 10.6429C14.56 9.93571 16.6 9.57143 17.9091 9.57143C20.2764 9.57143 25 10.7286 25 13.0536V16H1V13.0536C1 10.7286 5.72364 9.57143 8.09091 9.57143C9.4 9.57143 11.44 9.925 13 10.6429ZM13 10.6429C13.3491 11.0286 14.0909 11.5357 14.4545 13.0536C14.8182 14.5714 14.4545 16 14.4545 16M8.09091 8.5C10.1964 8.5 11.9091 6.81786 11.9091 4.75C11.9091 2.68214 10.1964 1 8.09091 1C5.98545 1 4.27273 2.68214 4.27273 4.75C4.27273 6.81786 5.98545 8.5 8.09091 8.5ZM17.9091 8.5C20.0145 8.5 21.7273 6.81786 21.7273 4.75C21.7273 2.68214 20.0145 1 17.9091 1C15.8036 1 14.0909 2.68214 14.0909 4.75C14.0909 6.81786 15.8036 8.5 17.9091 8.5Z" stroke="black" stroke-width="1.5"/>
</svg>
