<svg width="39" height="18" viewBox="0 0 39 18" fill="none" xmlns="http://www.w3.org/2000/svg">
<path d="M34.9655 0V1.42066H36.7043L32.9483 5.38853L30.931 3.25754L27.7607 6.60664C27.4977 6.47311 27.2071 6.39299 26.8966 6.39299C25.7845 6.39299 24.8793 7.34923 24.8793 8.52398C24.8793 8.89129 24.9762 9.23224 25.1315 9.53399L21.6167 13.6597C21.3787 13.5553 21.1187 13.4963 20.8448 13.4963C20.832 13.4963 20.8205 13.4998 20.8077 13.4998L18.104 5.88313C18.5426 5.49224 18.8276 4.91405 18.8276 4.26199C18.8276 3.08724 17.9224 2.131 16.8103 2.131C15.6983 2.131 14.7931 3.08724 14.7931 4.26199C14.7931 4.42882 14.8154 4.58941 14.8502 4.74514L10.6404 8.26455C10.2986 7.98638 9.87706 7.81365 9.41379 7.81365C8.53847 7.81365 7.79875 8.40953 7.52033 9.23432H3.9107C3.63228 8.40953 2.89256 7.81365 2.01724 7.81365C0.905198 7.81365 0 8.7699 0 9.94465C0 11.1194 0.905198 12.0756 2.01724 12.0756C2.89256 12.0756 3.63228 11.4798 3.9107 10.655H7.52099C7.79941 11.4798 8.53913 12.0756 9.41445 12.0756C10.5265 12.0756 11.4317 11.1194 11.4317 9.94465C11.4317 9.77782 11.4094 9.61723 11.3746 9.4615L15.5844 5.94209C15.9255 6.22026 16.3471 6.39299 16.8103 6.39299C16.8231 6.39299 16.8346 6.38952 16.8474 6.38952L19.5512 14.0062C19.1126 14.3971 18.8276 14.9752 18.8276 15.6273C18.8276 16.8021 19.7328 17.7583 20.8448 17.7583C21.9569 17.7583 22.8621 16.8021 22.8621 15.6273C22.8621 15.26 22.7659 14.9191 22.6099 14.6173L26.1247 10.4916C26.3627 10.596 26.6227 10.655 26.8966 10.655C28.0086 10.655 28.9138 9.69874 28.9138 8.52398C28.9138 8.19587 28.8379 7.88892 28.7115 7.6111L30.931 5.26645L32.9483 7.39744L37.6552 2.42512V4.26199H39V0H34.9655ZM2.01724 10.655C1.64623 10.655 1.34483 10.3366 1.34483 9.94465C1.34483 9.55272 1.64623 9.23432 2.01724 9.23432C2.38825 9.23432 2.68966 9.55272 2.68966 9.94465C2.68966 10.3366 2.38825 10.655 2.01724 10.655ZM9.41379 10.655C9.04278 10.655 8.74138 10.3366 8.74138 9.94465C8.74138 9.55272 9.04278 9.23432 9.41379 9.23432C9.7848 9.23432 10.0862 9.55272 10.0862 9.94465C10.0862 10.3366 9.7848 10.655 9.41379 10.655ZM16.1379 4.26199C16.1379 3.87006 16.4393 3.55166 16.8103 3.55166C17.1814 3.55166 17.4828 3.87006 17.4828 4.26199C17.4828 4.65392 17.1814 4.97232 16.8103 4.97232C16.4393 4.97232 16.1379 4.65392 16.1379 4.26199ZM20.8448 16.3376C20.4738 16.3376 20.1724 16.0192 20.1724 15.6273C20.1724 15.2354 20.4738 14.917 20.8448 14.917C21.2158 14.917 21.5172 15.2354 21.5172 15.6273C21.5172 16.0192 21.2158 16.3376 20.8448 16.3376ZM26.8966 9.23432C26.5255 9.23432 26.2241 8.91592 26.2241 8.52398C26.2241 8.13205 26.5255 7.81365 26.8966 7.81365C27.2676 7.81365 27.569 8.13205 27.569 8.52398C27.569 8.91592 27.2676 9.23432 26.8966 9.23432Z" fill="black"/>
</svg>
