<svg width="174" height="23" viewBox="0 0 174 23" fill="none" xmlns="http://www.w3.org/2000/svg">
<path d="M7.85 22.2705C6.61 22.2705 5.52 22.1205 4.58 21.8205C3.66 21.5205 2.88 21.1005 2.24 20.5605C1.62 20.0205 1.15 19.3805 0.83 18.6405C0.51 17.8805 0.35 17.0605 0.35 16.1805C0.35 14.9805 0.65 13.9605 1.25 13.1205C1.87 12.2805 2.68 11.6005 3.68 11.0805C2.84 10.6005 2.17 9.98049 1.67 9.22049C1.19 8.46049 0.95 7.54049 0.95 6.46049C0.95 5.66049 1.11 4.91049 1.43 4.21049C1.75 3.51049 2.21 2.90049 2.81 2.38049C3.41 1.86049 4.13 1.46049 4.97 1.18049C5.83 0.880487 6.79 0.730487 7.85 0.730487C8.93 0.730487 9.9 0.880487 10.76 1.18049C11.62 1.46049 12.34 1.86049 12.92 2.38049C13.52 2.88049 13.97 3.48049 14.27 4.18049C14.59 4.88049 14.75 5.64049 14.75 6.46049C14.75 7.54049 14.5 8.46049 14 9.22049C13.5 9.96049 12.83 10.5705 11.99 11.0505C12.99 11.5705 13.8 12.2605 14.42 13.1205C15.04 13.9605 15.35 14.9805 15.35 16.1805C15.35 17.0405 15.18 17.8405 14.84 18.5805C14.52 19.3205 14.04 19.9705 13.4 20.5305C12.78 21.0705 12 21.5005 11.06 21.8205C10.14 22.1205 9.07 22.2705 7.85 22.2705ZM7.85 18.9105C8.45 18.9105 8.98 18.8305 9.44 18.6705C9.9 18.5105 10.28 18.3005 10.58 18.0405C10.9 17.7805 11.14 17.4805 11.3 17.1405C11.48 16.7805 11.57 16.4205 11.57 16.0605C11.57 15.5405 11.47 15.0805 11.27 14.6805C11.07 14.2605 10.8 13.9005 10.46 13.6005C10.12 13.3005 9.72 13.0605 9.26 12.8805C8.82 12.7005 8.35 12.5805 7.85 12.5205C6.81 12.6405 5.93 12.9905 5.21 13.5705C4.49 14.1505 4.13 14.9805 4.13 16.0605C4.13 16.8205 4.45 17.4905 5.09 18.0705C5.75 18.6305 6.67 18.9105 7.85 18.9105ZM7.85 9.67049C8.27 9.61049 8.67 9.51049 9.05 9.37049C9.43 9.23049 9.76 9.04049 10.04 8.80049C10.32 8.56049 10.54 8.27049 10.7 7.93049C10.88 7.57049 10.97 7.13049 10.97 6.61049C10.97 6.31049 10.89 6.01049 10.73 5.71049C10.59 5.41049 10.38 5.14049 10.1 4.90049C9.84 4.66049 9.52 4.47049 9.14 4.33049C8.76 4.17049 8.33 4.09049 7.85 4.09049C7.37 4.09049 6.93 4.17049 6.53 4.33049C6.15 4.47049 5.82 4.66049 5.54 4.90049C5.28 5.14049 5.08 5.41049 4.94 5.71049C4.8 6.01049 4.73 6.31049 4.73 6.61049C4.73 7.09049 4.82 7.51049 5 7.87049C5.18 8.23049 5.41 8.53049 5.69 8.77049C5.99 9.01049 6.32 9.21049 6.68 9.37049C7.06 9.51049 7.45 9.61049 7.85 9.67049ZM25.8453 22.2705C24.6853 22.2705 23.6353 22.0905 22.6953 21.7305C21.7753 21.3505 20.9953 20.7605 20.3553 19.9605C19.7153 19.1605 19.2153 18.1305 18.8553 16.8705C18.5153 15.6105 18.3453 14.0805 18.3453 12.2805V10.7205C18.3453 8.94049 18.5153 7.42049 18.8553 6.16049C19.2153 4.90049 19.7153 3.87049 20.3553 3.07049C21.0153 2.25049 21.8053 1.66049 22.7253 1.30049C23.6453 0.920487 24.6853 0.730487 25.8453 0.730487C27.0053 0.730487 28.0453 0.920487 28.9653 1.30049C29.9053 1.66049 30.6953 2.24049 31.3353 3.04049C31.9953 3.84049 32.4953 4.87049 32.8353 6.13049C33.1753 7.39049 33.3453 8.92049 33.3453 10.7205V12.2805C33.3453 14.0605 33.1653 15.5805 32.8053 16.8405C32.4653 18.1005 31.9653 19.1405 31.3053 19.9605C30.6653 20.7605 29.8853 21.3505 28.9653 21.7305C28.0453 22.0905 27.0053 22.2705 25.8453 22.2705ZM25.8453 18.9105C26.4253 18.9105 26.9453 18.8105 27.4053 18.6105C27.8653 18.4105 28.2553 18.0605 28.5753 17.5605C28.8953 17.0605 29.1353 16.3905 29.2953 15.5505C29.4753 14.6905 29.5653 13.6005 29.5653 12.2805V10.7205C29.5653 9.42049 29.4753 8.35049 29.2953 7.51049C29.1153 6.65049 28.8653 5.97049 28.5453 5.47049C28.2253 4.95049 27.8353 4.59049 27.3753 4.39049C26.9153 4.19049 26.4053 4.09049 25.8453 4.09049C25.2653 4.09049 24.7453 4.19049 24.2853 4.39049C23.8253 4.59049 23.4353 4.94049 23.1153 5.44049C22.7953 5.94049 22.5453 6.62049 22.3653 7.48049C22.2053 8.32049 22.1253 9.40049 22.1253 10.7205V12.2805C22.1253 13.5805 22.2053 14.6605 22.3653 15.5205C22.5453 16.3605 22.7953 17.0405 23.1153 17.5605C23.4553 18.0605 23.8453 18.4105 24.2853 18.6105C24.7453 18.8105 25.2653 18.9105 25.8453 18.9105ZM40.8559 11.7705C40.0559 11.7705 39.3359 11.6505 38.6959 11.4105C38.0559 11.1505 37.5059 10.8005 37.0459 10.3605C36.5859 9.92049 36.2259 9.40049 35.9659 8.80049C35.7259 8.18049 35.6059 7.50049 35.6059 6.76049V5.74049C35.6059 5.00049 35.7259 4.33049 35.9659 3.73049C36.2259 3.11049 36.5859 2.58049 37.0459 2.14049C37.5059 1.70049 38.0559 1.36049 38.6959 1.12049C39.3359 0.860487 40.0559 0.730487 40.8559 0.730487C41.6559 0.730487 42.3759 0.860487 43.0159 1.12049C43.6559 1.36049 44.2059 1.70049 44.6659 2.14049C45.1259 2.58049 45.4759 3.11049 45.7159 3.73049C45.9759 4.33049 46.1059 5.00049 46.1059 5.74049V6.76049C46.1059 7.50049 45.9759 8.18049 45.7159 8.80049C45.4759 9.40049 45.1259 9.92049 44.6659 10.3605C44.2059 10.8005 43.6559 11.1505 43.0159 11.4105C42.3759 11.6505 41.6559 11.7705 40.8559 11.7705ZM40.8559 9.19049C41.5159 9.19049 42.0459 8.98049 42.4459 8.56049C42.8659 8.12049 43.0759 7.52049 43.0759 6.76049V5.74049C43.0759 4.98049 42.8659 4.39049 42.4459 3.97049C42.0459 3.53049 41.5159 3.31049 40.8559 3.31049C40.1759 3.31049 39.6259 3.53049 39.2059 3.97049C38.8059 4.39049 38.6059 4.98049 38.6059 5.74049V6.76049C38.6059 7.52049 38.8059 8.12049 39.2059 8.56049C39.6259 8.98049 40.1759 9.19049 40.8559 9.19049ZM56.1559 22.2705C55.3559 22.2705 54.6359 22.1505 53.9959 21.9105C53.3559 21.6505 52.8059 21.3005 52.3459 20.8605C51.8859 20.4205 51.5259 19.9005 51.2659 19.3005C51.0259 18.6805 50.9059 18.0005 50.9059 17.2605V16.2405C50.9059 15.5005 51.0259 14.8305 51.2659 14.2305C51.5259 13.6105 51.8859 13.0805 52.3459 12.6405C52.8059 12.2005 53.3559 11.8605 53.9959 11.6205C54.6359 11.3605 55.3559 11.2305 56.1559 11.2305C56.9559 11.2305 57.6759 11.3605 58.3159 11.6205C58.9559 11.8605 59.5059 12.2005 59.9659 12.6405C60.4259 13.0805 60.7759 13.6105 61.0159 14.2305C61.2759 14.8305 61.4059 15.5005 61.4059 16.2405V17.2605C61.4059 18.0005 61.2759 18.6805 61.0159 19.3005C60.7759 19.9005 60.4259 20.4205 59.9659 20.8605C59.5059 21.3005 58.9559 21.6505 58.3159 21.9105C57.6759 22.1505 56.9559 22.2705 56.1559 22.2705ZM56.1559 19.6905C56.8159 19.6905 57.3459 19.4805 57.7459 19.0605C58.1659 18.6205 58.3759 18.0205 58.3759 17.2605V16.2405C58.3759 15.4805 58.1659 14.8905 57.7459 14.4705C57.3459 14.0305 56.8159 13.8105 56.1559 13.8105C55.4759 13.8105 54.9259 14.0305 54.5059 14.4705C54.1059 14.8905 53.9059 15.4805 53.9059 16.2405V17.2605C53.9059 18.0205 54.1059 18.6205 54.5059 19.0605C54.9259 19.4805 55.4759 19.6905 56.1559 19.6905ZM53.0059 1.00049H56.3059L44.0059 22.0005H40.7059L53.0059 1.00049ZM71.6176 1.00049H85.1176V4.18049H75.2176V9.91049H83.3176V13.0905H75.2176V22.0005H71.6176V1.00049ZM97.5516 16.6905H89.6016L87.8616 22.0005H84.0816L91.5816 1.00049H95.7816L103.282 22.0005H99.3216L97.5516 16.6905ZM90.6516 13.5105H96.5016L95.0016 8.92049L93.5916 4.60049L92.1816 8.92049L90.6516 13.5105ZM112.3 22.2705C109.68 22.2705 107.74 21.6805 106.48 20.5005C105.22 19.3005 104.51 17.4505 104.35 14.9505H108.19C108.29 16.3905 108.65 17.4105 109.27 18.0105C109.91 18.5905 110.92 18.8805 112.3 18.8805C113.74 18.8805 114.79 18.6105 115.45 18.0705C116.13 17.5305 116.47 16.8705 116.47 16.0905C116.47 15.3105 116.18 14.7105 115.6 14.2905C115.02 13.8705 114.29 13.5305 113.41 13.2705C112.53 12.9905 111.58 12.7305 110.56 12.4905C109.54 12.2305 108.59 11.8805 107.71 11.4405C106.83 11.0005 106.1 10.4005 105.52 9.64049C104.94 8.88049 104.65 7.86049 104.65 6.58049C104.65 5.74049 104.81 4.97049 105.13 4.27049C105.45 3.55049 105.92 2.93049 106.54 2.41049C107.18 1.87049 107.98 1.46049 108.94 1.18049C109.9 0.880487 111.02 0.730487 112.3 0.730487C114.86 0.730487 116.73 1.29049 117.91 2.41049C119.11 3.51049 119.79 5.19049 119.95 7.45049H116.11C116.01 6.25049 115.67 5.39049 115.09 4.87049C114.53 4.35049 113.59 4.09049 112.27 4.09049C110.91 4.09049 109.93 4.34049 109.33 4.84049C108.73 5.32049 108.43 5.91049 108.43 6.61049C108.43 7.35049 108.72 7.92049 109.3 8.32049C109.88 8.70049 110.61 9.02049 111.49 9.28049C112.37 9.54049 113.32 9.80049 114.34 10.0605C115.36 10.3005 116.31 10.6505 117.19 11.1105C118.07 11.5505 118.8 12.1705 119.38 12.9705C119.96 13.7505 120.25 14.8105 120.25 16.1505C120.25 17.0505 120.09 17.8805 119.77 18.6405C119.45 19.3805 118.96 20.0205 118.3 20.5605C117.66 21.1005 116.84 21.5205 115.84 21.8205C114.84 22.1205 113.66 22.2705 112.3 22.2705ZM121.618 1.00049H138.118V4.18049H131.668V22.0005H128.068V4.18049H121.618V1.00049ZM140.67 1.00049H154.17V4.18049H144.27V9.61049H152.37V12.7905H144.27V18.8205H154.17V22.0005H140.67V1.00049ZM165.407 14.0805H161.057V22.0005H157.457V1.00049H164.687C167.487 1.00049 169.527 1.58049 170.807 2.74049C172.107 3.90049 172.757 5.50049 172.757 7.54049C172.757 8.94049 172.437 10.1505 171.797 11.1705C171.157 12.1705 170.177 12.9205 168.857 13.4205L173.357 22.0005H169.277L165.407 14.0805ZM161.057 4.18049V10.9005H164.687C166.187 10.9005 167.277 10.6005 167.957 10.0005C168.637 9.38049 168.977 8.56049 168.977 7.54049C168.977 6.50049 168.637 5.68049 167.957 5.08049C167.277 4.48049 166.187 4.18049 164.687 4.18049H161.057Z" fill="url(#paint0_linear)"/>
<defs>
<linearGradient id="paint0_linear" x1="3.01376" y1="-7.99951" x2="18.0937" y2="63.0779" gradientUnits="userSpaceOnUse">
<stop stop-color="#00CDFF"/>
<stop offset="0.40625" stop-color="#7744D2"/>
<stop offset="0.697932" stop-color="#FF3C01"/>
<stop offset="1" stop-color="#FFC700"/>
</linearGradient>
</defs>
</svg>
