<svg width="143" height="18" viewBox="0 0 143 18" fill="none" xmlns="http://www.w3.org/2000/svg">
<path d="M5.7 8.72H2.8V14H0.4V-9.53674e-07H5.22C7.08667 -9.53674e-07 8.44667 0.386666 9.3 1.16C10.1667 1.93333 10.6 3 10.6 4.36C10.6 5.29333 10.3867 6.1 9.96 6.78C9.53333 7.44667 8.88 7.94667 8 8.28L11 14H8.28L5.7 8.72ZM2.8 2.12V6.6H5.22C6.22 6.6 6.94667 6.4 7.4 6C7.85333 5.58667 8.08 5.04 8.08 4.36C8.08 3.66667 7.85333 3.12 7.4 2.72C6.94667 2.32 6.22 2.12 5.22 2.12H2.8ZM16.8023 14.18C16.0823 14.18 15.4357 14.0733 14.8623 13.86C14.289 13.6333 13.7957 13.3133 13.3823 12.9C12.969 12.4733 12.649 11.96 12.4223 11.36C12.209 10.76 12.1023 10.08 12.1023 9.32V8.68C12.1023 7.92 12.209 7.24 12.4223 6.64C12.649 6.04 12.969 5.53333 13.3823 5.12C13.7957 4.69333 14.289 4.37333 14.8623 4.16C15.4357 3.93333 16.0823 3.82 16.8023 3.82C18.2557 3.82 19.4023 4.26667 20.2423 5.16C21.0823 6.05333 21.5023 7.33333 21.5023 9V9.78H14.4223C14.489 10.62 14.7223 11.2267 15.1223 11.6C15.5223 11.96 16.0823 12.14 16.8023 12.14C17.509 12.14 18.0223 12.02 18.3423 11.78C18.6757 11.5267 18.8957 11.2333 19.0023 10.9H21.4023C21.2957 11.3667 21.129 11.8 20.9023 12.2C20.6757 12.6 20.3757 12.9467 20.0023 13.24C19.629 13.5333 19.1757 13.7667 18.6423 13.94C18.109 14.1 17.4957 14.18 16.8023 14.18ZM16.8023 5.86C16.1223 5.86 15.589 6.02667 15.2023 6.36C14.8157 6.69333 14.569 7.22 14.4623 7.94H19.1423C19.049 7.19333 18.8023 6.66 18.4023 6.34C18.0157 6.02 17.4823 5.86 16.8023 5.86ZM26.8631 14.18C26.2765 14.18 25.7431 14.08 25.2631 13.88C24.7831 13.68 24.3631 13.38 24.0031 12.98C23.6565 12.5667 23.3831 12.06 23.1831 11.46C22.9965 10.8467 22.9031 10.1333 22.9031 9.32V8.68C22.9031 7.88 23.0031 7.18 23.2031 6.58C23.4031 5.98 23.6765 5.47333 24.0231 5.06C24.3831 4.64667 24.8031 4.34 25.2831 4.14C25.7631 3.92667 26.2898 3.82 26.8631 3.82C27.5565 3.82 28.1765 3.94667 28.7231 4.2C29.2698 4.45333 29.7165 4.84 30.0631 5.36L30.2831 4H32.1031V18H29.7831V13.02C29.0898 13.7933 28.1165 14.18 26.8631 14.18ZM27.5631 12.02C28.2031 12.02 28.7298 11.7933 29.1431 11.34C29.5698 10.8733 29.7831 10.2 29.7831 9.32V8.56C29.7565 7.72 29.5365 7.08 29.1231 6.64C28.7098 6.2 28.1898 5.98 27.5631 5.98C26.8565 5.98 26.3098 6.19333 25.9231 6.62C25.5365 7.03333 25.3431 7.72 25.3431 8.68V9.32C25.3431 10.24 25.5431 10.92 25.9431 11.36C26.3431 11.8 26.8831 12.02 27.5631 12.02ZM38.3945 14.18C37.2212 14.18 36.2945 13.82 35.6145 13.1C34.9345 12.3667 34.5945 11.2667 34.5945 9.8V4H36.9145V9.8C36.9145 10.5333 37.0879 11.0867 37.4345 11.46C37.7812 11.8333 38.2345 12.02 38.7945 12.02C39.4745 12.02 40.0145 11.8267 40.4145 11.44C40.8279 11.0533 41.0479 10.54 41.0745 9.9V4H43.3945V14H41.5745L41.3945 12.9C41.0345 13.3133 40.6012 13.6333 40.0945 13.86C39.5879 14.0733 39.0212 14.18 38.3945 14.18ZM50.1031 14.18C49.3831 14.18 48.7365 14.0733 48.1631 13.86C47.5898 13.6333 47.0965 13.3133 46.6831 12.9C46.2698 12.4733 45.9498 11.96 45.7231 11.36C45.5098 10.76 45.4031 10.08 45.4031 9.32V8.68C45.4031 7.92 45.5098 7.24 45.7231 6.64C45.9498 6.04 46.2698 5.53333 46.6831 5.12C47.0965 4.69333 47.5898 4.37333 48.1631 4.16C48.7365 3.93333 49.3831 3.82 50.1031 3.82C51.5565 3.82 52.7031 4.26667 53.5431 5.16C54.3831 6.05333 54.8031 7.33333 54.8031 9V9.78H47.7231C47.7898 10.62 48.0231 11.2267 48.4231 11.6C48.8231 11.96 49.3831 12.14 50.1031 12.14C50.8098 12.14 51.3231 12.02 51.6431 11.78C51.9765 11.5267 52.1965 11.2333 52.3031 10.9H54.7031C54.5965 11.3667 54.4298 11.8 54.2031 12.2C53.9765 12.6 53.6765 12.9467 53.3031 13.24C52.9298 13.5333 52.4765 13.7667 51.9431 13.94C51.4098 14.1 50.7965 14.18 50.1031 14.18ZM50.1031 5.86C49.4231 5.86 48.8898 6.02667 48.5031 6.36C48.1165 6.69333 47.8698 7.22 47.7631 7.94H52.4431C52.3498 7.19333 52.1031 6.66 51.7031 6.34C51.3165 6.02 50.7831 5.86 50.1031 5.86ZM60.4039 14.18C59.0306 14.18 58.0106 13.88 57.3439 13.28C56.6906 12.6667 56.3106 11.8067 56.2039 10.7H58.6439C58.7506 11.2733 58.9239 11.68 59.1639 11.92C59.4172 12.1467 59.8306 12.26 60.4039 12.26C61.0839 12.26 61.5439 12.1667 61.7839 11.98C62.0372 11.78 62.1639 11.52 62.1639 11.2C62.1639 10.84 62.0172 10.5667 61.7239 10.38C61.4439 10.1933 61.0906 10.0467 60.6639 9.94C60.2372 9.82 59.7772 9.71333 59.2839 9.62C58.7906 9.51333 58.3306 9.36 57.9039 9.16C57.4772 8.94667 57.1172 8.66 56.8239 8.3C56.5439 7.92667 56.4039 7.41333 56.4039 6.76C56.4039 6.34667 56.4839 5.96 56.6439 5.6C56.8039 5.24 57.0506 4.93333 57.3839 4.68C57.7172 4.41333 58.1306 4.20667 58.6239 4.06C59.1306 3.9 59.7239 3.82 60.4039 3.82C61.6839 3.82 62.6439 4.12 63.2839 4.72C63.9239 5.30667 64.2972 6.13333 64.4039 7.2H61.9639C61.8572 6.65333 61.6906 6.27333 61.4639 6.06C61.2506 5.84667 60.8972 5.74 60.4039 5.74C59.8306 5.74 59.4239 5.83333 59.1839 6.02C58.9572 6.20667 58.8439 6.43333 58.8439 6.7C58.8439 7.03333 58.9839 7.28 59.2639 7.44C59.5572 7.58667 59.9172 7.71333 60.3439 7.82C60.7706 7.91333 61.2306 8.01333 61.7239 8.12C62.2172 8.21333 62.6772 8.37333 63.1039 8.6C63.5306 8.81333 63.8839 9.12 64.1639 9.52C64.4572 9.92 64.6039 10.46 64.6039 11.14C64.6039 11.58 64.5172 11.9867 64.3439 12.36C64.1839 12.7333 63.9306 13.0533 63.5839 13.32C63.2506 13.5867 62.8172 13.8 62.2839 13.96C61.7639 14.1067 61.1372 14.18 60.4039 14.18ZM65.4086 4H67.2086V1.2H69.5286V4H72.0086V6.04H69.5286V10.46C69.5286 10.98 69.6419 11.36 69.8686 11.6C70.1086 11.84 70.4619 11.96 70.9286 11.96H72.2086V14H70.5086C69.4419 14 68.6219 13.72 68.0486 13.16C67.4886 12.5867 67.2086 11.7667 67.2086 10.7V6.04H65.4086V4ZM81.4156 14.18C80.3356 14.18 79.5156 13.9133 78.9556 13.38C78.3956 12.8467 78.1156 12.1067 78.1156 11.16C78.1156 10.64 78.1956 10.1733 78.3556 9.76C78.529 9.33333 78.7956 8.98 79.1556 8.7C79.529 8.40667 80.0023 8.18667 80.5756 8.04C81.1623 7.88 81.8756 7.8 82.7156 7.8H84.3956V7.2C84.3956 6.72 84.2623 6.36 83.9956 6.12C83.7423 5.86667 83.3156 5.74 82.7156 5.74C82.1556 5.74 81.749 5.84667 81.4956 6.06C81.2423 6.27333 81.089 6.55333 81.0356 6.9H78.5156C78.569 6.00667 78.929 5.27333 79.5956 4.7C80.2756 4.11333 81.3156 3.82 82.7156 3.82C84.049 3.82 85.049 4.12667 85.7156 4.74C86.3823 5.35333 86.7156 6.17333 86.7156 7.2V14H84.8956L84.6556 12.62C84.309 13.1267 83.8556 13.5133 83.2956 13.78C82.749 14.0467 82.1223 14.18 81.4156 14.18ZM81.8156 12.26C82.189 12.26 82.529 12.2 82.8356 12.08C83.1556 11.9467 83.429 11.7733 83.6556 11.56C83.8823 11.3333 84.0623 11.08 84.1956 10.8C84.329 10.52 84.3956 10.22 84.3956 9.9V9.6H82.7156C81.9156 9.6 81.3556 9.73333 81.0356 10C80.7156 10.2667 80.5556 10.6267 80.5556 11.08C80.5556 11.44 80.6623 11.7267 80.8756 11.94C81.1023 12.1533 81.4156 12.26 81.8156 12.26ZM97.5663 14.18C96.9796 14.18 96.4463 14.08 95.9663 13.88C95.4863 13.68 95.0663 13.38 94.7063 12.98C94.3596 12.5667 94.0863 12.06 93.8863 11.46C93.6996 10.8467 93.6063 10.1333 93.6063 9.32V8.68C93.6063 7.88 93.7063 7.18 93.9063 6.58C94.1063 5.98 94.3796 5.47333 94.7263 5.06C95.0863 4.64667 95.5063 4.34 95.9863 4.14C96.4663 3.92667 96.9929 3.82 97.5663 3.82C98.8063 3.82 99.7796 4.21333 100.486 5V-9.53674e-07H102.806V14H100.986L100.766 12.66C100.42 13.1667 99.9729 13.5467 99.4263 13.8C98.8796 14.0533 98.2596 14.18 97.5663 14.18ZM98.2663 12.02C98.8929 12.02 99.4129 11.8067 99.8263 11.38C100.24 10.94 100.46 10.3 100.486 9.46V8.68C100.486 7.8 100.273 7.13333 99.8463 6.68C99.4329 6.21333 98.9063 5.98 98.2663 5.98C97.5596 5.98 97.0129 6.19333 96.6263 6.62C96.2396 7.03333 96.0463 7.72 96.0463 8.68V9.32C96.0463 10.24 96.2463 10.92 96.6463 11.36C97.0463 11.8 97.5863 12.02 98.2663 12.02ZM109.498 14.18C108.778 14.18 108.131 14.0733 107.558 13.86C106.984 13.6333 106.491 13.3133 106.078 12.9C105.664 12.4733 105.344 11.96 105.118 11.36C104.904 10.76 104.798 10.08 104.798 9.32V8.68C104.798 7.92 104.904 7.24 105.118 6.64C105.344 6.04 105.664 5.53333 106.078 5.12C106.491 4.69333 106.984 4.37333 107.558 4.16C108.131 3.93333 108.778 3.82 109.498 3.82C110.951 3.82 112.098 4.26667 112.938 5.16C113.778 6.05333 114.198 7.33333 114.198 9V9.78H107.118C107.184 10.62 107.418 11.2267 107.818 11.6C108.218 11.96 108.778 12.14 109.498 12.14C110.204 12.14 110.718 12.02 111.038 11.78C111.371 11.5267 111.591 11.2333 111.698 10.9H114.098C113.991 11.3667 113.824 11.8 113.598 12.2C113.371 12.6 113.071 12.9467 112.698 13.24C112.324 13.5333 111.871 13.7667 111.338 13.94C110.804 14.1 110.191 14.18 109.498 14.18ZM109.498 5.86C108.818 5.86 108.284 6.02667 107.898 6.36C107.511 6.69333 107.264 7.22 107.158 7.94H111.838C111.744 7.19333 111.498 6.66 111.098 6.34C110.711 6.02 110.178 5.86 109.498 5.86ZM116.198 4H118.018L118.198 5.1C118.545 4.68667 118.965 4.37333 119.458 4.16C119.965 3.93333 120.518 3.82 121.118 3.82C121.798 3.82 122.398 3.96 122.918 4.24C123.452 4.50667 123.878 4.90667 124.198 5.44C124.545 4.92 124.998 4.52 125.558 4.24C126.118 3.96 126.752 3.82 127.458 3.82C128.592 3.82 129.498 4.18667 130.178 4.92C130.858 5.65333 131.198 6.74667 131.198 8.2V14H128.878V8.2C128.878 7.45333 128.705 6.9 128.358 6.54C128.025 6.16667 127.558 5.98 126.958 5.98C126.358 5.98 125.858 6.18667 125.458 6.6C125.058 7 124.858 7.53333 124.858 8.2V14H122.538V8.2C122.538 7.46667 122.365 6.91333 122.018 6.54C121.672 6.16667 121.205 5.98 120.618 5.98C120.018 5.98 119.525 6.17333 119.138 6.56C118.752 6.94667 118.545 7.46 118.518 8.1V14H116.198V4ZM137.898 14.18C136.392 14.18 135.212 13.7533 134.358 12.9C133.518 12.0467 133.098 10.8533 133.098 9.32V8.68C133.098 7.92 133.205 7.24 133.418 6.64C133.645 6.04 133.965 5.53333 134.378 5.12C134.805 4.69333 135.312 4.37333 135.898 4.16C136.485 3.93333 137.152 3.82 137.898 3.82C139.405 3.82 140.578 4.24667 141.418 5.1C142.272 5.95333 142.698 7.14667 142.698 8.68V9.32C142.698 10.08 142.585 10.76 142.358 11.36C142.145 11.96 141.825 12.4733 141.398 12.9C140.985 13.3133 140.478 13.6333 139.878 13.86C139.292 14.0733 138.632 14.18 137.898 14.18ZM137.898 12.02C138.658 12.02 139.238 11.8 139.638 11.36C140.052 10.92 140.258 10.24 140.258 9.32V8.68C140.258 7.77333 140.045 7.1 139.618 6.66C139.205 6.20667 138.632 5.98 137.898 5.98C137.138 5.98 136.552 6.2 136.138 6.64C135.738 7.08 135.538 7.76 135.538 8.68V9.32C135.538 10.2267 135.745 10.9067 136.158 11.36C136.585 11.8 137.165 12.02 137.898 12.02Z" fill="url(#paint0_linear)"/>
<defs>
<linearGradient id="paint0_linear" x1="2.32568" y1="-6" x2="10.3305" y2="41.5179" gradientUnits="userSpaceOnUse">
<stop stop-color="#00CDFF"/>
<stop offset="0.40625" stop-color="#7744D2"/>
<stop offset="0.697932" stop-color="#FF3C01"/>
<stop offset="1" stop-color="#FFC700"/>
</linearGradient>
</defs>
</svg>
