<svg width="398" height="20" viewBox="0 0 398 20" fill="none" xmlns="http://www.w3.org/2000/svg">
<path d="M9.68 3.88L7.1 15H4.1L0.4 0.999999H2.92L5.64 12.08L8.2 0.999999H11.2L13.98 12.1L16.56 0.999999H19L15.5 15H12.5L9.68 3.88ZM23.7984 15.18C23.0784 15.18 22.4318 15.0733 21.8584 14.86C21.2851 14.6333 20.7918 14.3133 20.3784 13.9C19.9651 13.4733 19.6451 12.96 19.4184 12.36C19.2051 11.76 19.0984 11.08 19.0984 10.32V9.68C19.0984 8.92 19.2051 8.24 19.4184 7.64C19.6451 7.04 19.9651 6.53333 20.3784 6.12C20.7918 5.69333 21.2851 5.37333 21.8584 5.16C22.4318 4.93333 23.0784 4.82 23.7984 4.82C25.2518 4.82 26.3984 5.26667 27.2384 6.16C28.0784 7.05333 28.4984 8.33333 28.4984 10V10.78H21.4184C21.4851 11.62 21.7184 12.2267 22.1184 12.6C22.5184 12.96 23.0784 13.14 23.7984 13.14C24.5051 13.14 25.0184 13.02 25.3384 12.78C25.6718 12.5267 25.8918 12.2333 25.9984 11.9H28.3984C28.2918 12.3667 28.1251 12.8 27.8984 13.2C27.6718 13.6 27.3718 13.9467 26.9984 14.24C26.6251 14.5333 26.1718 14.7667 25.6384 14.94C25.1051 15.1 24.4918 15.18 23.7984 15.18ZM23.7984 6.86C23.1184 6.86 22.5851 7.02667 22.1984 7.36C21.8118 7.69333 21.5651 8.22 21.4584 8.94H26.1384C26.0451 8.19333 25.7984 7.66 25.3984 7.34C25.0118 7.02 24.4784 6.86 23.7984 6.86ZM35.4992 0.999999H37.8192V5.86C38.4859 5.16667 39.4126 4.82 40.5992 4.82C41.8259 4.82 42.7792 5.18667 43.4592 5.92C44.1526 6.64 44.4992 7.73333 44.4992 9.2V15H42.1792V9.2C42.1792 8.46667 41.9992 7.91333 41.6392 7.54C41.2926 7.16667 40.8126 6.98 40.1992 6.98C39.4792 6.98 38.9059 7.17333 38.4792 7.56C38.0659 7.94667 37.8459 8.46 37.8192 9.1V15H35.4992V0.999999ZM49.6031 15.18C48.5231 15.18 47.7031 14.9133 47.1431 14.38C46.5831 13.8467 46.3031 13.1067 46.3031 12.16C46.3031 11.64 46.3831 11.1733 46.5431 10.76C46.7165 10.3333 46.9831 9.98 47.3431 9.7C47.7165 9.40667 48.1898 9.18667 48.7631 9.04C49.3498 8.88 50.0631 8.8 50.9031 8.8H52.5831V8.2C52.5831 7.72 52.4498 7.36 52.1831 7.12C51.9298 6.86667 51.5031 6.74 50.9031 6.74C50.3431 6.74 49.9365 6.84667 49.6831 7.06C49.4298 7.27333 49.2765 7.55333 49.2231 7.9H46.7031C46.7565 7.00667 47.1165 6.27333 47.7831 5.7C48.4631 5.11333 49.5031 4.82 50.9031 4.82C52.2365 4.82 53.2365 5.12667 53.9031 5.74C54.5698 6.35333 54.9031 7.17333 54.9031 8.2V15H53.0831L52.8431 13.62C52.4965 14.1267 52.0431 14.5133 51.4831 14.78C50.9365 15.0467 50.3098 15.18 49.6031 15.18ZM50.0031 13.26C50.3765 13.26 50.7165 13.2 51.0231 13.08C51.3431 12.9467 51.6165 12.7733 51.8431 12.56C52.0698 12.3333 52.2498 12.08 52.3831 11.8C52.5165 11.52 52.5831 11.22 52.5831 10.9V10.6H50.9031C50.1031 10.6 49.5431 10.7333 49.2231 11C48.9031 11.2667 48.7431 11.6267 48.7431 12.08C48.7431 12.44 48.8498 12.7267 49.0631 12.94C49.2898 13.1533 49.6031 13.26 50.0031 13.26ZM55.8031 5H58.3231L60.9231 12.48L63.4031 5H65.8031L62.3031 15H59.5031L55.8031 5ZM70.9078 15.18C70.1878 15.18 69.5411 15.0733 68.9678 14.86C68.3945 14.6333 67.9011 14.3133 67.4878 13.9C67.0745 13.4733 66.7545 12.96 66.5278 12.36C66.3145 11.76 66.2078 11.08 66.2078 10.32V9.68C66.2078 8.92 66.3145 8.24 66.5278 7.64C66.7545 7.04 67.0745 6.53333 67.4878 6.12C67.9011 5.69333 68.3945 5.37333 68.9678 5.16C69.5411 4.93333 70.1878 4.82 70.9078 4.82C72.3611 4.82 73.5078 5.26667 74.3478 6.16C75.1878 7.05333 75.6078 8.33333 75.6078 10V10.78H68.5278C68.5945 11.62 68.8278 12.2267 69.2278 12.6C69.6278 12.96 70.1878 13.14 70.9078 13.14C71.6145 13.14 72.1278 13.02 72.4478 12.78C72.7811 12.5267 73.0011 12.2333 73.1078 11.9H75.5078C75.4011 12.3667 75.2345 12.8 75.0078 13.2C74.7811 13.6 74.4811 13.9467 74.1078 14.24C73.7345 14.5333 73.2811 14.7667 72.7478 14.94C72.2145 15.1 71.6011 15.18 70.9078 15.18ZM70.9078 6.86C70.2278 6.86 69.6945 7.02667 69.3078 7.36C68.9211 7.69333 68.6745 8.22 68.5678 8.94H73.2478C73.1545 8.19333 72.9078 7.66 72.5078 7.34C72.1211 7.02 71.5878 6.86 70.9078 6.86ZM82.6086 5H84.4286L84.6086 6.1C84.9553 5.68667 85.3753 5.37333 85.8686 5.16C86.3753 4.93333 86.9286 4.82 87.5286 4.82C88.2086 4.82 88.8086 4.96 89.3286 5.24C89.8619 5.50667 90.2886 5.90667 90.6086 6.44C90.9553 5.92 91.4086 5.52 91.9686 5.24C92.5286 4.96 93.1619 4.82 93.8686 4.82C95.0019 4.82 95.9086 5.18667 96.5886 5.92C97.2686 6.65333 97.6086 7.74667 97.6086 9.2V15H95.2886V9.2C95.2886 8.45333 95.1153 7.9 94.7686 7.54C94.4353 7.16667 93.9686 6.98 93.3686 6.98C92.7686 6.98 92.2686 7.18667 91.8686 7.6C91.4686 8 91.2686 8.53333 91.2686 9.2V15H88.9486V9.2C88.9486 8.46667 88.7753 7.91333 88.4286 7.54C88.0819 7.16667 87.6153 6.98 87.0286 6.98C86.4286 6.98 85.9353 7.17333 85.5486 7.56C85.1619 7.94667 84.9553 8.46 84.9286 9.1V15H82.6086V5ZM104.309 15.18C102.802 15.18 101.622 14.7533 100.769 13.9C99.9286 13.0467 99.5086 11.8533 99.5086 10.32V9.68C99.5086 8.92 99.6153 8.24 99.8286 7.64C100.055 7.04 100.375 6.53333 100.789 6.12C101.215 5.69333 101.722 5.37333 102.309 5.16C102.895 4.93333 103.562 4.82 104.309 4.82C105.815 4.82 106.989 5.24667 107.829 6.1C108.682 6.95333 109.109 8.14667 109.109 9.68V10.32C109.109 11.08 108.995 11.76 108.769 12.36C108.555 12.96 108.235 13.4733 107.809 13.9C107.395 14.3133 106.889 14.6333 106.289 14.86C105.702 15.0733 105.042 15.18 104.309 15.18ZM104.309 13.02C105.069 13.02 105.649 12.8 106.049 12.36C106.462 11.92 106.669 11.24 106.669 10.32V9.68C106.669 8.77333 106.455 8.1 106.029 7.66C105.615 7.20667 105.042 6.98 104.309 6.98C103.549 6.98 102.962 7.2 102.549 7.64C102.149 8.08 101.949 8.76 101.949 9.68V10.32C101.949 11.2267 102.155 11.9067 102.569 12.36C102.995 12.8 103.575 13.02 104.309 13.02ZM111.105 5H112.925L113.105 6.12C113.451 5.69333 113.878 5.37333 114.385 5.16C114.905 4.93333 115.478 4.82 116.105 4.82H117.105V6.98H116.105C115.185 6.98 114.505 7.18 114.065 7.58C113.638 7.98 113.425 8.52 113.425 9.2V15H111.105V5ZM122.607 15.18C121.887 15.18 121.24 15.0733 120.667 14.86C120.094 14.6333 119.6 14.3133 119.187 13.9C118.774 13.4733 118.454 12.96 118.227 12.36C118.014 11.76 117.907 11.08 117.907 10.32V9.68C117.907 8.92 118.014 8.24 118.227 7.64C118.454 7.04 118.774 6.53333 119.187 6.12C119.6 5.69333 120.094 5.37333 120.667 5.16C121.24 4.93333 121.887 4.82 122.607 4.82C124.06 4.82 125.207 5.26667 126.047 6.16C126.887 7.05333 127.307 8.33333 127.307 10V10.78H120.227C120.294 11.62 120.527 12.2267 120.927 12.6C121.327 12.96 121.887 13.14 122.607 13.14C123.314 13.14 123.827 13.02 124.147 12.78C124.48 12.5267 124.7 12.2333 124.807 11.9H127.207C127.1 12.3667 126.934 12.8 126.707 13.2C126.48 13.6 126.18 13.9467 125.807 14.24C125.434 14.5333 124.98 14.7667 124.447 14.94C123.914 15.1 123.3 15.18 122.607 15.18ZM122.607 6.86C121.927 6.86 121.394 7.02667 121.007 7.36C120.62 7.69333 120.374 8.22 120.267 8.94H124.947C124.854 8.19333 124.607 7.66 124.207 7.34C123.82 7.02 123.287 6.86 122.607 6.86ZM133.108 5H134.908V2.2H137.228V5H139.708V7.04H137.228V11.46C137.228 11.98 137.341 12.36 137.568 12.6C137.808 12.84 138.161 12.96 138.628 12.96H139.908V15H138.208C137.141 15 136.321 14.72 135.748 14.16C135.188 13.5867 134.908 12.7667 134.908 11.7V7.04H133.108V5ZM145.715 15.18C144.208 15.18 143.028 14.7533 142.175 13.9C141.335 13.0467 140.915 11.8533 140.915 10.32V9.68C140.915 8.92 141.022 8.24 141.235 7.64C141.462 7.04 141.782 6.53333 142.195 6.12C142.622 5.69333 143.128 5.37333 143.715 5.16C144.302 4.93333 144.968 4.82 145.715 4.82C147.222 4.82 148.395 5.24667 149.235 6.1C150.088 6.95333 150.515 8.14667 150.515 9.68V10.32C150.515 11.08 150.402 11.76 150.175 12.36C149.962 12.96 149.642 13.4733 149.215 13.9C148.802 14.3133 148.295 14.6333 147.695 14.86C147.108 15.0733 146.448 15.18 145.715 15.18ZM145.715 13.02C146.475 13.02 147.055 12.8 147.455 12.36C147.868 11.92 148.075 11.24 148.075 10.32V9.68C148.075 8.77333 147.862 8.1 147.435 7.66C147.022 7.20667 146.448 6.98 145.715 6.98C144.955 6.98 144.368 7.2 143.955 7.64C143.555 8.08 143.355 8.76 143.355 9.68V10.32C143.355 11.2267 143.562 11.9067 143.975 12.36C144.402 12.8 144.982 13.02 145.715 13.02ZM161.111 15.18C159.738 15.18 158.718 14.88 158.051 14.28C157.398 13.6667 157.018 12.8067 156.911 11.7H159.351C159.458 12.2733 159.631 12.68 159.871 12.92C160.124 13.1467 160.538 13.26 161.111 13.26C161.791 13.26 162.251 13.1667 162.491 12.98C162.744 12.78 162.871 12.52 162.871 12.2C162.871 11.84 162.724 11.5667 162.431 11.38C162.151 11.1933 161.798 11.0467 161.371 10.94C160.944 10.82 160.484 10.7133 159.991 10.62C159.498 10.5133 159.038 10.36 158.611 10.16C158.184 9.94667 157.824 9.66 157.531 9.3C157.251 8.92667 157.111 8.41333 157.111 7.76C157.111 7.34667 157.191 6.96 157.351 6.6C157.511 6.24 157.758 5.93333 158.091 5.68C158.424 5.41333 158.838 5.20667 159.331 5.06C159.838 4.9 160.431 4.82 161.111 4.82C162.391 4.82 163.351 5.12 163.991 5.72C164.631 6.30667 165.004 7.13333 165.111 8.2H162.671C162.564 7.65333 162.398 7.27333 162.171 7.06C161.958 6.84667 161.604 6.74 161.111 6.74C160.538 6.74 160.131 6.83333 159.891 7.02C159.664 7.20667 159.551 7.43333 159.551 7.7C159.551 8.03333 159.691 8.28 159.971 8.44C160.264 8.58667 160.624 8.71333 161.051 8.82C161.478 8.91333 161.938 9.01333 162.431 9.12C162.924 9.21333 163.384 9.37333 163.811 9.6C164.238 9.81333 164.591 10.12 164.871 10.52C165.164 10.92 165.311 11.46 165.311 12.14C165.311 12.58 165.224 12.9867 165.051 13.36C164.891 13.7333 164.638 14.0533 164.291 14.32C163.958 14.5867 163.524 14.8 162.991 14.96C162.471 15.1067 161.844 15.18 161.111 15.18ZM169.916 15.18C168.836 15.18 168.016 14.9133 167.456 14.38C166.896 13.8467 166.616 13.1067 166.616 12.16C166.616 11.64 166.696 11.1733 166.856 10.76C167.029 10.3333 167.296 9.98 167.656 9.7C168.029 9.40667 168.502 9.18667 169.076 9.04C169.662 8.88 170.376 8.8 171.216 8.8H172.896V8.2C172.896 7.72 172.762 7.36 172.496 7.12C172.242 6.86667 171.816 6.74 171.216 6.74C170.656 6.74 170.249 6.84667 169.996 7.06C169.742 7.27333 169.589 7.55333 169.536 7.9H167.016C167.069 7.00667 167.429 6.27333 168.096 5.7C168.776 5.11333 169.816 4.82 171.216 4.82C172.549 4.82 173.549 5.12667 174.216 5.74C174.882 6.35333 175.216 7.17333 175.216 8.2V15H173.396L173.156 13.62C172.809 14.1267 172.356 14.5133 171.796 14.78C171.249 15.0467 170.622 15.18 169.916 15.18ZM170.316 13.26C170.689 13.26 171.029 13.2 171.336 13.08C171.656 12.9467 171.929 12.7733 172.156 12.56C172.382 12.3333 172.562 12.08 172.696 11.8C172.829 11.52 172.896 11.22 172.896 10.9V10.6H171.216C170.416 10.6 169.856 10.7333 169.536 11C169.216 11.2667 169.056 11.6267 169.056 12.08C169.056 12.44 169.162 12.7267 169.376 12.94C169.602 13.1533 169.916 13.26 170.316 13.26ZM180.136 15L176.116 5H178.636L181.356 12.16L183.916 5H186.316L181.016 19H178.616L180.136 15ZM195.306 15.18C194.226 15.18 193.406 14.9133 192.846 14.38C192.286 13.8467 192.006 13.1067 192.006 12.16C192.006 11.64 192.086 11.1733 192.246 10.76C192.42 10.3333 192.686 9.98 193.046 9.7C193.42 9.40667 193.893 9.18667 194.466 9.04C195.053 8.88 195.766 8.8 196.606 8.8H198.286V8.2C198.286 7.72 198.153 7.36 197.886 7.12C197.633 6.86667 197.206 6.74 196.606 6.74C196.046 6.74 195.64 6.84667 195.386 7.06C195.133 7.27333 194.98 7.55333 194.926 7.9H192.406C192.46 7.00667 192.82 6.27333 193.486 5.7C194.166 5.11333 195.206 4.82 196.606 4.82C197.94 4.82 198.94 5.12667 199.606 5.74C200.273 6.35333 200.606 7.17333 200.606 8.2V15H198.786L198.546 13.62C198.2 14.1267 197.746 14.5133 197.186 14.78C196.64 15.0467 196.013 15.18 195.306 15.18ZM195.706 13.26C196.08 13.26 196.42 13.2 196.726 13.08C197.046 12.9467 197.32 12.7733 197.546 12.56C197.773 12.3333 197.953 12.08 198.086 11.8C198.22 11.52 198.286 11.22 198.286 10.9V10.6H196.606C195.806 10.6 195.246 10.7333 194.926 11C194.606 11.2667 194.446 11.6267 194.446 12.08C194.446 12.44 194.553 12.7267 194.766 12.94C194.993 13.1533 195.306 13.26 195.706 13.26ZM208.337 15.18C207.63 15.18 207.004 15.0533 206.457 14.8C205.924 14.5467 205.484 14.1667 205.137 13.66L204.917 15H203.097V0.999999H205.417V6C206.124 5.21333 207.097 4.82 208.337 4.82C208.91 4.82 209.437 4.92667 209.917 5.14C210.41 5.34 210.83 5.64667 211.177 6.06C211.524 6.46 211.797 6.96667 211.997 7.58C212.197 8.18 212.297 8.88 212.297 9.68V10.32C212.297 11.12 212.197 11.82 211.997 12.42C211.797 13.02 211.517 13.5267 211.157 13.94C210.81 14.3533 210.397 14.6667 209.917 14.88C209.437 15.08 208.91 15.18 208.337 15.18ZM207.637 13.02C208.344 13.02 208.89 12.8067 209.277 12.38C209.664 11.9533 209.857 11.2667 209.857 10.32V9.68C209.857 8.76 209.657 8.08 209.257 7.64C208.857 7.2 208.317 6.98 207.637 6.98C206.997 6.98 206.47 7.2 206.057 7.64C205.657 8.08 205.444 8.72 205.417 9.56V10.32C205.417 11.2 205.624 11.8733 206.037 12.34C206.464 12.7933 206.997 13.02 207.637 13.02ZM218.488 15.18C216.982 15.18 215.802 14.7533 214.948 13.9C214.108 13.0467 213.688 11.8533 213.688 10.32V9.68C213.688 8.92 213.795 8.24 214.008 7.64C214.235 7.04 214.555 6.53333 214.968 6.12C215.395 5.69333 215.902 5.37333 216.488 5.16C217.075 4.93333 217.742 4.82 218.488 4.82C219.995 4.82 221.168 5.24667 222.008 6.1C222.862 6.95333 223.288 8.14667 223.288 9.68V10.32C223.288 11.08 223.175 11.76 222.948 12.36C222.735 12.96 222.415 13.4733 221.988 13.9C221.575 14.3133 221.068 14.6333 220.468 14.86C219.882 15.0733 219.222 15.18 218.488 15.18ZM218.488 13.02C219.248 13.02 219.828 12.8 220.228 12.36C220.642 11.92 220.848 11.24 220.848 10.32V9.68C220.848 8.77333 220.635 8.1 220.208 7.66C219.795 7.20667 219.222 6.98 218.488 6.98C217.728 6.98 217.142 7.2 216.728 7.64C216.328 8.08 216.128 8.76 216.128 9.68V10.32C216.128 11.2267 216.335 11.9067 216.748 12.36C217.175 12.8 217.755 13.02 218.488 13.02ZM228.984 15.18C227.811 15.18 226.884 14.82 226.204 14.1C225.524 13.3667 225.184 12.2667 225.184 10.8V5H227.504V10.8C227.504 11.5333 227.678 12.0867 228.024 12.46C228.371 12.8333 228.824 13.02 229.384 13.02C230.064 13.02 230.604 12.8267 231.004 12.44C231.418 12.0533 231.638 11.54 231.664 10.9V5H233.984V15H232.164L231.984 13.9C231.624 14.3133 231.191 14.6333 230.684 14.86C230.178 15.0733 229.611 15.18 228.984 15.18ZM235.393 5H237.193V2.2H239.513V5H241.993V7.04H239.513V11.46C239.513 11.98 239.626 12.36 239.853 12.6C240.093 12.84 240.446 12.96 240.913 12.96H242.193V15H240.493C239.426 15 238.606 14.72 238.033 14.16C237.473 13.5867 237.193 12.7667 237.193 11.7V7.04H235.393V5ZM253 15.18C251.493 15.18 250.313 14.7533 249.46 13.9C248.62 13.0467 248.2 11.8533 248.2 10.32V9.68C248.2 8.92 248.307 8.24 248.52 7.64C248.747 7.04 249.067 6.53333 249.48 6.12C249.907 5.69333 250.413 5.37333 251 5.16C251.587 4.93333 252.253 4.82 253 4.82C254.507 4.82 255.68 5.24667 256.52 6.1C257.373 6.95333 257.8 8.14667 257.8 9.68V10.32C257.8 11.08 257.687 11.76 257.46 12.36C257.247 12.96 256.927 13.4733 256.5 13.9C256.087 14.3133 255.58 14.6333 254.98 14.86C254.393 15.0733 253.733 15.18 253 15.18ZM253 13.02C253.76 13.02 254.34 12.8 254.74 12.36C255.153 11.92 255.36 11.24 255.36 10.32V9.68C255.36 8.77333 255.147 8.1 254.72 7.66C254.307 7.20667 253.733 6.98 253 6.98C252.24 6.98 251.653 7.2 251.24 7.64C250.84 8.08 250.64 8.76 250.64 9.68V10.32C250.64 11.2267 250.847 11.9067 251.26 12.36C251.687 12.8 252.267 13.02 253 13.02ZM263.496 15.18C262.323 15.18 261.396 14.82 260.716 14.1C260.036 13.3667 259.696 12.2667 259.696 10.8V5H262.016V10.8C262.016 11.5333 262.189 12.0867 262.536 12.46C262.883 12.8333 263.336 13.02 263.896 13.02C264.576 13.02 265.116 12.8267 265.516 12.44C265.929 12.0533 266.149 11.54 266.176 10.9V5H268.496V15H266.676L266.496 13.9C266.136 14.3133 265.703 14.6333 265.196 14.86C264.689 15.0733 264.123 15.18 263.496 15.18ZM271.105 5H272.925L273.105 6.12C273.451 5.69333 273.878 5.37333 274.385 5.16C274.905 4.93333 275.478 4.82 276.105 4.82H277.105V6.98H276.105C275.185 6.98 274.505 7.18 274.065 7.58C273.638 7.98 273.425 8.52 273.425 9.2V15H271.105V5ZM282.502 5H284.302V2.2H286.622V5H289.102V7.04H286.622V11.46C286.622 11.98 286.736 12.36 286.962 12.6C287.202 12.84 287.556 12.96 288.022 12.96H289.302V15H287.602C286.536 15 285.716 14.72 285.142 14.16C284.582 13.5867 284.302 12.7667 284.302 11.7V7.04H282.502V5ZM295.009 15.18C294.289 15.18 293.643 15.0733 293.069 14.86C292.496 14.6333 292.003 14.3133 291.589 13.9C291.176 13.4733 290.856 12.96 290.629 12.36C290.416 11.76 290.309 11.08 290.309 10.32V9.68C290.309 8.92 290.416 8.24 290.629 7.64C290.856 7.04 291.176 6.53333 291.589 6.12C292.003 5.69333 292.496 5.37333 293.069 5.16C293.643 4.93333 294.289 4.82 295.009 4.82C296.463 4.82 297.609 5.26667 298.449 6.16C299.289 7.05333 299.709 8.33333 299.709 10V10.78H292.629C292.696 11.62 292.929 12.2267 293.329 12.6C293.729 12.96 294.289 13.14 295.009 13.14C295.716 13.14 296.229 13.02 296.549 12.78C296.883 12.5267 297.103 12.2333 297.209 11.9H299.609C299.503 12.3667 299.336 12.8 299.109 13.2C298.883 13.6 298.583 13.9467 298.209 14.24C297.836 14.5333 297.383 14.7667 296.849 14.94C296.316 15.1 295.703 15.18 295.009 15.18ZM295.009 6.86C294.329 6.86 293.796 7.02667 293.409 7.36C293.023 7.69333 292.776 8.22 292.669 8.94H297.349C297.256 8.19333 297.009 7.66 296.609 7.34C296.223 7.02 295.689 6.86 295.009 6.86ZM305.81 15.18C305.09 15.18 304.437 15.0733 303.85 14.86C303.277 14.6333 302.783 14.3133 302.37 13.9C301.97 13.4733 301.657 12.96 301.43 12.36C301.217 11.76 301.11 11.08 301.11 10.32V9.68C301.11 8.93333 301.217 8.26 301.43 7.66C301.657 7.06 301.977 6.55333 302.39 6.14C302.803 5.71333 303.297 5.38667 303.87 5.16C304.457 4.93333 305.103 4.82 305.81 4.82C307.077 4.82 308.057 5.13333 308.75 5.76C309.457 6.38667 309.91 7.2 310.11 8.2H307.63C307.523 7.84 307.303 7.54667 306.97 7.32C306.637 7.09333 306.217 6.98 305.71 6.98C305.417 6.98 305.137 7.03333 304.87 7.14C304.617 7.23333 304.39 7.39333 304.19 7.62C303.99 7.83333 303.83 8.11333 303.71 8.46C303.603 8.79333 303.55 9.2 303.55 9.68V10.32C303.55 10.7867 303.61 11.1933 303.73 11.54C303.85 11.8733 304.01 12.1533 304.21 12.38C304.41 12.5933 304.637 12.7533 304.89 12.86C305.157 12.9667 305.43 13.02 305.71 13.02C306.283 13.02 306.717 12.8933 307.01 12.64C307.317 12.3867 307.523 12.0733 307.63 11.7H310.11C309.91 12.7533 309.457 13.6 308.75 14.24C308.057 14.8667 307.077 15.18 305.81 15.18ZM311.808 0.999999H314.128V5.86C314.794 5.16667 315.721 4.82 316.908 4.82C318.134 4.82 319.088 5.18667 319.768 5.92C320.461 6.64 320.808 7.73333 320.808 9.2V15H318.488V9.2C318.488 8.46667 318.308 7.91333 317.948 7.54C317.601 7.16667 317.121 6.98 316.508 6.98C315.788 6.98 315.214 7.17333 314.788 7.56C314.374 7.94667 314.154 8.46 314.128 9.1V15H311.808V0.999999ZM323.312 5H325.132L325.312 6.12C326.058 5.25333 327.092 4.82 328.412 4.82C329.638 4.82 330.592 5.18667 331.272 5.92C331.965 6.64 332.312 7.73333 332.312 9.2V15H329.992V9.2C329.992 8.46667 329.812 7.91333 329.452 7.54C329.105 7.16667 328.625 6.98 328.012 6.98C327.292 6.98 326.718 7.17333 326.292 7.56C325.878 7.94667 325.658 8.46 325.632 9.1V15H323.312V5ZM339.016 15.18C337.509 15.18 336.329 14.7533 335.476 13.9C334.636 13.0467 334.216 11.8533 334.216 10.32V9.68C334.216 8.92 334.322 8.24 334.536 7.64C334.762 7.04 335.082 6.53333 335.496 6.12C335.922 5.69333 336.429 5.37333 337.016 5.16C337.602 4.93333 338.269 4.82 339.016 4.82C340.522 4.82 341.696 5.24667 342.536 6.1C343.389 6.95333 343.816 8.14667 343.816 9.68V10.32C343.816 11.08 343.702 11.76 343.476 12.36C343.262 12.96 342.942 13.4733 342.516 13.9C342.102 14.3133 341.596 14.6333 340.996 14.86C340.409 15.0733 339.749 15.18 339.016 15.18ZM339.016 13.02C339.776 13.02 340.356 12.8 340.756 12.36C341.169 11.92 341.376 11.24 341.376 10.32V9.68C341.376 8.77333 341.162 8.1 340.736 7.66C340.322 7.20667 339.749 6.98 339.016 6.98C338.256 6.98 337.669 7.2 337.256 7.64C336.856 8.08 336.656 8.76 336.656 9.68V10.32C336.656 11.2267 336.862 11.9067 337.276 12.36C337.702 12.8 338.282 13.02 339.016 13.02ZM349.092 15C348.038 15 347.225 14.72 346.652 14.16C346.092 13.5867 345.812 12.7667 345.812 11.7V0.999999H348.132V11.46C348.132 11.98 348.245 12.36 348.472 12.6C348.698 12.84 349.045 12.96 349.512 12.96H350.012V15H349.092ZM355.715 15.18C354.208 15.18 353.028 14.7533 352.175 13.9C351.335 13.0467 350.915 11.8533 350.915 10.32V9.68C350.915 8.92 351.022 8.24 351.235 7.64C351.462 7.04 351.782 6.53333 352.195 6.12C352.622 5.69333 353.128 5.37333 353.715 5.16C354.302 4.93333 354.968 4.82 355.715 4.82C357.222 4.82 358.395 5.24667 359.235 6.1C360.088 6.95333 360.515 8.14667 360.515 9.68V10.32C360.515 11.08 360.402 11.76 360.175 12.36C359.962 12.96 359.642 13.4733 359.215 13.9C358.802 14.3133 358.295 14.6333 357.695 14.86C357.108 15.0733 356.448 15.18 355.715 15.18ZM355.715 13.02C356.475 13.02 357.055 12.8 357.455 12.36C357.868 11.92 358.075 11.24 358.075 10.32V9.68C358.075 8.77333 357.862 8.1 357.435 7.66C357.022 7.20667 356.448 6.98 355.715 6.98C354.955 6.98 354.368 7.2 353.955 7.64C353.555 8.08 353.355 8.76 353.355 9.68V10.32C353.355 11.2267 353.562 11.9067 353.975 12.36C354.402 12.8 354.982 13.02 355.715 13.02ZM365.871 14.78C365.284 14.78 364.751 14.6867 364.271 14.5C363.791 14.3 363.371 14.0067 363.011 13.62C362.664 13.2333 362.391 12.7533 362.191 12.18C362.004 11.5933 361.911 10.9067 361.911 10.12V9.48C361.911 8.73333 362.011 8.07333 362.211 7.5C362.411 6.91333 362.684 6.42667 363.031 6.04C363.391 5.64 363.811 5.34 364.291 5.14C364.771 4.92667 365.298 4.82 365.871 4.82C367.284 4.82 368.351 5.32 369.071 6.32L369.291 5H371.111V15C371.111 16.3867 370.751 17.4267 370.031 18.12C369.311 18.8267 368.191 19.18 366.671 19.18C365.964 19.18 365.351 19.1067 364.831 18.96C364.324 18.8133 363.898 18.6 363.551 18.32C363.204 18.04 362.938 17.6933 362.751 17.28C362.578 16.88 362.464 16.42 362.411 15.9H364.731C364.838 16.3667 365.031 16.72 365.311 16.96C365.591 17.2 366.044 17.32 366.671 17.32C367.391 17.32 367.924 17.1333 368.271 16.76C368.618 16.4 368.791 15.8133 368.791 15V13.6C368.431 13.9867 368.004 14.28 367.511 14.48C367.018 14.68 366.471 14.78 365.871 14.78ZM366.571 12.62C367.211 12.62 367.738 12.4 368.151 11.96C368.578 11.52 368.791 10.9067 368.791 10.12V9.48C368.791 8.69333 368.578 8.08 368.151 7.64C367.738 7.2 367.211 6.98 366.571 6.98C365.864 6.98 365.318 7.18667 364.931 7.6C364.544 8 364.351 8.62667 364.351 9.48V10.12C364.351 10.9467 364.551 11.5733 364.951 12C365.351 12.4133 365.891 12.62 366.571 12.62ZM373.802 5H376.122V15H373.802V5ZM374.962 3.8C374.536 3.8 374.176 3.66 373.882 3.38C373.602 3.08667 373.462 2.72667 373.462 2.3C373.462 1.87333 373.602 1.52 373.882 1.24C374.176 0.946666 374.536 0.799999 374.962 0.799999C375.376 0.799999 375.729 0.946666 376.022 1.24C376.316 1.52 376.462 1.87333 376.462 2.3C376.462 2.72667 376.316 3.08667 376.022 3.38C375.729 3.66 375.376 3.8 374.962 3.8ZM382.92 15.18C382.2 15.18 381.553 15.0733 380.98 14.86C380.406 14.6333 379.913 14.3133 379.5 13.9C379.086 13.4733 378.766 12.96 378.54 12.36C378.326 11.76 378.22 11.08 378.22 10.32V9.68C378.22 8.92 378.326 8.24 378.54 7.64C378.766 7.04 379.086 6.53333 379.5 6.12C379.913 5.69333 380.406 5.37333 380.98 5.16C381.553 4.93333 382.2 4.82 382.92 4.82C384.373 4.82 385.52 5.26667 386.36 6.16C387.2 7.05333 387.62 8.33333 387.62 10V10.78H380.54C380.606 11.62 380.84 12.2267 381.24 12.6C381.64 12.96 382.2 13.14 382.92 13.14C383.626 13.14 384.14 13.02 384.46 12.78C384.793 12.5267 385.013 12.2333 385.12 11.9H387.52C387.413 12.3667 387.246 12.8 387.02 13.2C386.793 13.6 386.493 13.9467 386.12 14.24C385.746 14.5333 385.293 14.7667 384.76 14.94C384.226 15.1 383.613 15.18 382.92 15.18ZM382.92 6.86C382.24 6.86 381.706 7.02667 381.32 7.36C380.933 7.69333 380.686 8.22 380.58 8.94H385.26C385.166 8.19333 384.92 7.66 384.52 7.34C384.133 7.02 383.6 6.86 382.92 6.86ZM393.22 15.18C391.847 15.18 390.827 14.88 390.16 14.28C389.507 13.6667 389.127 12.8067 389.02 11.7H391.46C391.567 12.2733 391.74 12.68 391.98 12.92C392.234 13.1467 392.647 13.26 393.22 13.26C393.9 13.26 394.36 13.1667 394.6 12.98C394.854 12.78 394.98 12.52 394.98 12.2C394.98 11.84 394.834 11.5667 394.54 11.38C394.26 11.1933 393.907 11.0467 393.48 10.94C393.054 10.82 392.594 10.7133 392.1 10.62C391.607 10.5133 391.147 10.36 390.72 10.16C390.294 9.94667 389.934 9.66 389.64 9.3C389.36 8.92667 389.22 8.41333 389.22 7.76C389.22 7.34667 389.3 6.96 389.46 6.6C389.62 6.24 389.867 5.93333 390.2 5.68C390.534 5.41333 390.947 5.20667 391.44 5.06C391.947 4.9 392.54 4.82 393.22 4.82C394.5 4.82 395.46 5.12 396.1 5.72C396.74 6.30667 397.114 7.13333 397.22 8.2H394.78C394.674 7.65333 394.507 7.27333 394.28 7.06C394.067 6.84667 393.714 6.74 393.22 6.74C392.647 6.74 392.24 6.83333 392 7.02C391.774 7.20667 391.66 7.43333 391.66 7.7C391.66 8.03333 391.8 8.28 392.08 8.44C392.374 8.58667 392.734 8.71333 393.16 8.82C393.587 8.91333 394.047 9.01333 394.54 9.12C395.034 9.21333 395.494 9.37333 395.92 9.6C396.347 9.81333 396.7 10.12 396.98 10.52C397.274 10.92 397.42 11.46 397.42 12.14C397.42 12.58 397.334 12.9867 397.16 13.36C397 13.7333 396.747 14.0533 396.4 14.32C396.067 14.5867 395.634 14.8 395.1 14.96C394.58 15.1067 393.954 15.18 393.22 15.18Z" fill="url(#paint0_linear)"/>
<defs>
<linearGradient id="paint0_linear" x1="9.1743" y1="-9.91262e-07" x2="10.2471" y2="29.2805" gradientUnits="userSpaceOnUse">
<stop stop-color="#00CDFF"/>
<stop offset="0.40625" stop-color="#7744D2"/>
<stop offset="0.697932" stop-color="#FF3C01"/>
<stop offset="1" stop-color="#FFC700"/>
</linearGradient>
</defs>
</svg>
