<svg width="40" height="42" viewBox="0 0 40 42" fill="none" xmlns="http://www.w3.org/2000/svg">
<path d="M29.2346 32.3949C29.2346 32.3949 29.2346 32.395 29.4584 32.395H29.2346C29.2346 33.0757 28.6667 33.6521 27.9434 33.6521H12.2672C11.5439 33.6521 10.976 33.0757 10.976 32.395V15.46L13.3439 10.8032L13.4254 10.643V10.4632V8.47064C13.4254 8.08516 13.7492 7.74878 14.1723 7.74878H26.0383C26.4614 7.74878 26.7852 8.08515 26.7852 8.47064V10.4632V10.643L26.8666 10.8032L29.2344 15.4596C29.2336 15.8795 29.2337 18.3399 29.234 21.2819C29.234 22.1197 29.2341 22.9967 29.2342 23.8767L29.2344 29.7332L29.2345 31.6631L29.2346 32.2037L29.2346 32.3462L29.2346 32.3827V32.3919V32.3943V32.3949Z" stroke="url(#paint0_linear)" stroke-width="1.5"/>
<path d="M8.22599 0.998779H1V7.03925M1 33.9109V40.2901H7.15338" stroke="url(#paint1_linear)" stroke-width="1.5" stroke-linecap="round"/>
<path d="M31.9845 40.2903L39.2105 40.2903L39.2105 34.2498M39.2105 7.37817L39.2105 0.998977L33.0571 0.998976" stroke="url(#paint2_linear)" stroke-width="1.5" stroke-linecap="round"/>
<defs>
<linearGradient id="paint0_linear" x1="10.6792" y1="6.99878" x2="36.2705" y2="25.884" gradientUnits="userSpaceOnUse">
<stop stop-color="#00CDFF"/>
<stop offset="0.40625" stop-color="#7744D2"/>
<stop offset="0.697932" stop-color="#FF3C01"/>
<stop offset="1" stop-color="#FFC700"/>
</linearGradient>
<linearGradient id="paint1_linear" x1="1.16573" y1="0.998777" x2="15.127" y2="3.62663" gradientUnits="userSpaceOnUse">
<stop stop-color="#00CDFF"/>
<stop offset="0.40625" stop-color="#7744D2"/>
<stop offset="0.697932" stop-color="#FF3C01"/>
<stop offset="1" stop-color="#FFC700"/>
</linearGradient>
<linearGradient id="paint2_linear" x1="39.0448" y1="40.2903" x2="25.0835" y2="37.6624" gradientUnits="userSpaceOnUse">
<stop stop-color="#00CDFF"/>
<stop offset="0.40625" stop-color="#7744D2"/>
<stop offset="0.697932" stop-color="#FF3C01"/>
<stop offset="1" stop-color="#FFC700"/>
</linearGradient>
</defs>
</svg>
